<?xml version="1.0" standalone="no"?>
<!DOCTYPE svg PUBLIC "-//W3C//DTD SVG 20010904//EN"
 "http://www.w3.org/TR/2001/REC-SVG-20010904/DTD/svg10.dtd">
<svg version="1.0" xmlns="http://www.w3.org/2000/svg"
 width="1024.000000pt" height="1024.000000pt" viewBox="0 0 1024.000000 1024.000000"
 preserveAspectRatio="xMidYMid meet">
<metadata>
Created by potrace 1.11, written by Peter Selinger 2001-2013
</metadata>
<g transform="translate(0.000000,1024.000000) scale(0.100000,-0.100000)"
fill="#000000" stroke="none">
<path d="M4325 9734 c-24 -7 -51 -19 -60 -28 -16 -16 -28 -20 -52 -17 -6 1
-26 -17 -44 -39 -18 -22 -36 -40 -41 -40 -12 0 -68 -42 -68 -52 0 -4 7 -5 15
-2 11 5 13 2 9 -10 -5 -13 -9 -14 -20 -5 -11 9 -19 8 -34 -6 -11 -10 -20 -21
-20 -26 0 -4 -15 -30 -34 -58 -64 -95 -102 -261 -94 -417 18 -341 19 -347 44
-337 10 4 13 15 9 37 -3 17 -7 80 -10 139 -3 79 -8 112 -20 123 -19 20 -19 19
8 22 20 1 22 -2 19 -42 -3 -30 1 -48 13 -59 9 -10 12 -17 6 -17 -18 0 -13
-104 7 -152 12 -28 19 -73 21 -133 3 -106 6 -122 29 -128 16 -4 16 -5 0 -6
-22 -1 -22 4 2 -66 11 -32 22 -83 24 -114 3 -31 9 -68 15 -83 6 -15 8 -34 5
-42 -3 -7 2 -20 10 -29 9 -9 16 -33 16 -54 0 -21 4 -53 10 -72 l10 -34 -203 6
c-156 5 -222 4 -292 -8 -106 -17 -235 -20 -235 -4 0 11 -51 12 -240 7 -63 -1
-160 -3 -215 -3 -55 0 -103 -4 -107 -10 -12 -16 -8 -364 4 -394 l11 -26 8 30
c6 22 7 18 4 -19 -3 -27 -5 -90 -6 -140 0 -65 -3 -84 -9 -68 -16 40 -22 23
-14 -45 6 -62 6 -66 -12 -58 -41 18 -84 18 -90 0 -5 -12 -9 -13 -14 -5 -4 7
-32 14 -61 16 -39 3 -50 2 -39 -6 12 -8 11 -10 -8 -10 -13 0 -21 4 -18 9 10
15 -163 20 -192 5 -35 -18 -46 -18 -85 2 -21 12 -32 13 -35 5 -2 -6 -8 -11
-13 -11 -6 0 -7 5 -3 11 5 8 -6 9 -37 5 -24 -4 -56 -7 -71 -8 -27 -1 -28 -3
-28 -57 0 -31 4 -62 9 -70 15 -24 31 -2 31 43 0 39 3 45 29 56 17 6 35 9 41 5
18 -11 0 -25 -32 -25 -30 0 -31 0 -26 -45 3 -24 2 -42 -3 -40 -13 9 -31 -34
-23 -57 5 -16 3 -20 -9 -15 -13 5 -16 -2 -15 -33 0 -21 -3 -43 -6 -48 -3 -6
-2 -13 2 -16 5 -3 7 -18 5 -33 -9 -53 -11 -148 -3 -158 4 -5 5 -30 1 -55 -3
-25 -3 -142 0 -260 4 -118 7 -237 7 -264 l1 -49 62 7 c34 3 86 6 115 6 43 0
52 3 48 15 -5 12 -25 15 -95 15 l-89 0 0 38 c0 20 -7 50 -15 66 -14 26 -14 30
2 41 14 11 15 18 7 47 -9 27 -8 37 4 48 14 12 15 5 9 -66 -7 -88 -1 -127 17
-117 6 3 6 0 -1 -8 -7 -7 -13 -18 -13 -24 0 -16 91 -17 135 -2 30 11 58 12
114 5 53 -6 87 -5 125 5 29 7 87 12 129 11 42 -1 77 1 77 5 0 6 57 3 61 -3 5
-8 12 -173 7 -170 -9 6 -14 -265 -10 -608 l3 -278 370 0 c368 0 374 -1 371
-31 -1 -3 6 -28 14 -54 19 -66 20 -65 -28 -65 -41 -1 -42 -1 -23 -17 20 -15
19 -15 -5 -9 -14 3 -38 6 -55 7 -29 1 -30 1 -5 9 20 6 16 8 -20 7 -25 0 -128
1 -230 2 -116 2 -196 -1 -213 -8 -34 -13 -114 -14 -122 -2 -7 12 -92 13 -258
5 l-127 -7 1 -130 c0 -77 5 -140 12 -152 11 -19 12 -18 18 10 4 17 7 77 8 135
l1 106 97 12 c98 13 110 12 98 -7 -3 -7 -43 -11 -96 -11 l-90 0 5 -105 c2 -57
7 -109 10 -114 4 -5 2 -12 -4 -16 -5 -3 -10 0 -11 7 -2 32 -20 -52 -20 -95 0
-41 -2 -47 -14 -37 -13 10 -14 2 -10 -59 2 -39 0 -71 -5 -71 -5 0 -5 -12 -1
-28 8 -26 7 -55 -3 -242 -3 -51 -1 -96 6 -113 8 -21 8 -34 -2 -53 -11 -19 -11
-34 -2 -72 8 -31 9 -86 4 -167 -4 -66 -4 -318 -1 -560 3 -242 7 -528 7 -635 1
-203 5 -232 27 -224 20 8 20 426 0 484 -18 50 -18 53 -5 45 13 -8 24 39 16 76
-3 16 -2 51 2 77 7 45 7 44 12 -33 3 -44 2 -100 -1 -124 -8 -58 1 -177 12
-159 7 10 9 9 9 -4 0 -9 -5 -20 -11 -24 -8 -5 -9 -43 -3 -138 4 -72 7 -238 6
-368 -2 -207 0 -237 13 -232 9 4 15 0 15 -10 0 -9 -7 -16 -16 -16 -9 0 -14 -7
-12 -17 3 -15 14 -18 78 -16 41 0 181 2 310 3 129 1 237 6 240 10 3 4 43 4 90
0 47 -4 89 -5 94 -3 4 3 49 6 98 7 l90 1 -5 -67 c-3 -40 -2 -68 4 -68 13 0 11
-58 -3 -62 -8 -3 -7 -21 4 -69 12 -46 14 -78 8 -114 -10 -62 -2 -880 10 -916
4 -15 4 -33 -3 -44 -10 -18 -4 -301 7 -312 3 -3 65 -2 140 2 112 6 134 10 129
22 -5 12 -28 14 -129 11 -95 -2 -125 0 -129 10 -3 7 0 10 5 7 6 -4 10 58 10
174 0 98 -4 181 -9 183 -4 2 -11 14 -15 28 -5 17 -4 21 2 11 15 -21 23 3 21
66 -1 32 -1 122 0 200 1 138 12 190 25 115 8 -52 7 -219 -2 -206 -6 10 -8
-286 -3 -336 1 -8 0 -66 -3 -128 l-6 -112 28 0 c15 0 54 5 87 10 68 12 202 13
353 4 90 -6 102 -5 102 10 0 9 4 16 10 16 5 0 7 -7 3 -16 -5 -12 -1 -15 13
-11 44 13 180 20 338 19 94 -1 175 2 180 7 6 4 45 5 86 1 41 -4 78 -6 83 -3 4
2 45 5 92 6 l85 2 0 -47 0 -48 43 0 c24 0 91 3 150 6 86 6 104 10 100 21 -5
12 -30 14 -139 11 -74 -1 -134 1 -134 5 0 5 5 5 10 2 6 -4 11 8 11 27 2 30 2
31 6 6 5 -33 16 -34 153 -15 58 8 137 10 249 4 144 -7 166 -6 173 8 11 18 29
20 22 2 -4 -11 9 -12 68 -5 40 5 159 9 263 10 105 0 195 3 200 7 6 4 42 5 80
1 39 -4 73 -5 77 -3 3 1 56 5 116 7 61 2 119 9 129 15 17 10 16 10 -4 11 -42
0 -32 18 15 26 l47 7 -60 9 c-33 4 -64 6 -70 4 -5 -3 4 -5 20 -6 28 -2 27 -3
-10 -11 -53 -11 -87 -11 -81 0 3 4 -13 5 -37 0 -23 -4 -49 -8 -57 -8 -13 -1
-13 0 0 10 11 7 -6 8 -55 2 -38 -4 -279 -6 -535 -5 -256 2 -474 3 -485 3 -11
0 -46 -4 -77 -9 -32 -4 -58 -5 -58 -1 0 4 -3 15 -7 25 -4 11 -2 15 4 11 14 -9
37 38 27 54 -14 23 -12 380 3 423 7 21 13 64 13 95 -1 51 -2 54 -15 37 -11
-15 -15 -16 -15 -5 0 8 5 20 11 26 7 7 9 46 5 119 -4 60 -7 129 -7 153 0 25
-5 51 -11 58 -8 10 -8 17 0 25 7 7 12 29 12 50 0 21 5 38 11 38 5 0 7 5 3 12
-4 6 -8 66 -10 132 l-2 121 19 -55 c21 -63 24 -84 8 -74 -8 5 -8 1 0 -14 7
-13 8 -23 1 -27 -5 -3 -9 -37 -7 -74 1 -38 5 -64 8 -59 4 5 9 -3 12 -19 3 -15
0 -31 -5 -34 -11 -7 -3 -407 7 -418 5 -5 9 46 8 89 -1 14 1 19 4 12 2 -6 8
-10 13 -7 10 6 22 -107 15 -147 -6 -36 6 -64 23 -54 11 7 11 73 0 91 -3 6 -4
120 -2 255 l3 245 -45 137 c-31 96 -44 156 -46 200 -1 62 -1 62 -8 18 -4 -25
-8 -38 -9 -30 -4 25 0 315 5 319 2 3 18 -9 35 -25 27 -26 30 -34 26 -74 -3
-25 -11 -64 -18 -87 -12 -38 -11 -44 4 -55 19 -14 25 -105 12 -189 -6 -37 -4
-47 9 -52 11 -4 16 -1 16 11 0 9 2 99 4 199 4 182 -5 252 -33 261 -6 2 -11 18
-11 37 0 18 -7 52 -15 75 -8 23 -15 47 -15 52 0 18 28 -19 32 -42 6 -46 23
-29 25 25 1 32 -3 55 -9 55 -6 0 -7 7 -4 16 8 22 -4 40 -15 23 -7 -11 -9 -9
-9 6 0 17 7 21 38 23 20 2 39 7 40 12 2 6 16 10 30 9 l27 -1 -25 -8 c-14 -4
38 -6 115 -4 265 8 373 9 369 3 -6 -11 140 -8 180 4 31 9 35 12 20 18 -14 6
-10 8 16 8 24 1 31 -2 21 -8 -11 -7 -9 -11 9 -21 20 -11 22 -10 16 5 -6 16 -2
17 36 11 23 -4 45 -11 48 -15 6 -11 280 -8 298 3 7 4 29 5 48 2 25 -5 34 -12
34 -27 0 -26 24 -20 28 7 9 46 18 29 15 -27 -2 -34 1 -67 6 -73 12 -15 9 -96
-3 -89 -5 4 -7 -12 -3 -38 3 -25 9 -104 13 -176 l7 -131 -24 -5 c-21 -4 -21
-4 -3 -6 18 -1 21 -8 23 -47 1 -40 -1 -45 -13 -35 -13 11 -15 -7 -14 -136 0
-104 5 -156 14 -175 8 -15 14 -42 14 -60 l-1 -33 -13 30 c-12 29 -13 27 -13
-35 -1 -42 5 -77 15 -97 14 -27 14 -36 3 -57 -8 -14 -10 -30 -5 -38 5 -7 9
-42 10 -78 1 -36 5 -76 9 -89 5 -16 5 -22 -2 -18 -8 5 -8 -5 -2 -31 5 -20 9
-51 9 -69 0 -17 5 -35 12 -39 8 -5 9 -2 5 9 -3 10 -2 17 3 17 13 0 13 -41 0
-60 -9 -13 -11 -13 -21 0 -8 12 -9 11 -5 -5 3 -11 8 -37 12 -57 3 -21 10 -38
14 -38 16 0 20 106 10 251 -6 89 -7 155 -2 158 5 3 12 13 15 21 3 8 7 -30 8
-85 2 -55 4 -113 5 -130 1 -16 3 -36 3 -43 1 -7 6 -10 12 -6 7 4 7 -1 -1 -16
-9 -17 -9 -25 3 -38 17 -20 29 -62 17 -62 -4 0 -6 -55 -3 -122 2 -68 4 -132 4
-143 -2 -39 10 -105 20 -105 12 0 12 157 -1 165 -5 3 -10 16 -10 28 1 21 1 21
14 4 12 -16 14 -16 20 -1 12 32 7 84 -9 84 -8 0 -15 9 -15 20 0 14 7 20 21 20
23 0 23 0 3 133 -7 46 -21 48 -27 5 -3 -23 -4 -17 -5 19 -2 38 2 54 13 61 12
6 14 14 7 32 -5 13 -5 40 -1 59 32 154 36 191 19 191 -5 0 -10 5 -10 11 0 5 4
8 9 5 5 -3 12 1 15 10 9 24 7 64 -3 64 -6 0 -9 23 -9 50 1 28 5 50 10 50 5 0
6 10 2 23 -9 28 -6 409 4 419 4 4 54 9 112 11 l105 3 -112 2 c-103 2 -112 4
-118 23 -4 11 -4 23 -1 26 3 3 108 6 233 5 125 0 233 4 238 8 6 4 46 4 90 0
44 -4 83 -5 87 -3 4 2 63 5 132 7 68 2 132 9 142 15 17 9 16 10 -8 11 -45 0
-32 17 18 25 25 3 44 8 42 9 -1 2 -37 6 -78 9 -41 3 -59 2 -40 -2 33 -7 32 -7
-25 -15 -36 -5 -61 -4 -62 1 -2 6 -23 7 -51 2 -69 -12 -81 -11 -62 2 10 7 -14
7 -80 2 -52 -4 -216 -7 -365 -7 l-270 1 -7 39 c-5 21 -8 127 -8 234 0 107 -2
215 -4 240 -3 25 -7 59 -9 76 -2 22 1 30 9 27 10 -4 13 17 12 87 0 54 -4 86
-9 78 -7 -10 -9 -10 -9 3 0 9 3 19 6 22 4 4 8 80 10 169 1 90 6 204 9 253 4
63 3 86 -4 75 -9 -13 -11 -13 -11 0 0 9 5 21 11 27 7 7 9 46 5 119 -4 60 -8
136 -10 169 -2 33 -6 68 -11 78 -4 10 -2 23 5 32 6 8 9 18 6 23 -3 5 -1 26 5
47 8 28 7 50 -2 82 -10 36 -10 46 1 53 9 6 11 24 6 70 -4 34 -10 68 -13 76 -3
8 -1 14 4 14 5 0 17 -27 26 -60 20 -69 20 -73 8 -66 -4 3 -8 -44 -8 -104 1
-67 5 -107 10 -103 6 4 7 -10 2 -38 -15 -80 -10 -465 7 -475 7 -4 9 7 6 35 -2
22 0 41 4 41 5 0 8 12 9 28 l0 27 10 -25 c6 -14 11 -66 11 -116 0 -50 4 -98 9
-105 5 -8 9 -12 10 -9 0 3 1 154 3 335 l2 330 -39 125 c-31 99 -40 147 -44
228 -3 57 -9 99 -13 92 -13 -21 -15 10 -10 143 l5 128 34 -35 34 -35 -13 -71
c-7 -39 -17 -73 -22 -76 -13 -8 -9 -31 9 -50 15 -14 18 -37 18 -140 1 -86 5
-128 13 -136 11 -11 13 37 10 245 -3 233 -5 260 -20 271 -10 8 -18 26 -18 43
0 16 -7 52 -15 79 -8 27 -14 58 -14 69 1 12 6 5 13 -17 6 -20 17 -43 24 -50 9
-9 12 1 12 50 0 34 -4 62 -10 62 -5 0 -7 13 -3 32 4 22 3 29 -5 24 -8 -5 -12
1 -11 16 0 13 3 17 6 11 3 -9 11 -9 29 3 15 10 24 12 24 5 0 -8 6 -7 21 1 14
8 23 9 25 3 3 -6 42 -9 102 -7 53 2 232 4 398 4 251 1 301 3 301 15 0 8 -6 12
-14 9 -7 -3 -13 -1 -13 4 0 13 16 13 41 0 14 -8 17 -15 10 -28 -16 -29 -13
-305 5 -444 4 -35 3 -63 -3 -70 -11 -14 -9 -190 2 -208 4 -6 4 -27 1 -46 -4
-21 -3 -34 4 -34 5 0 10 -7 10 -16 0 -9 -6 -14 -12 -11 -10 3 -12 -18 -9 -92
1 -53 7 -104 12 -113 11 -20 10 -243 -1 -278 -5 -16 -8 -19 -9 -8 -1 9 -5 19
-11 23 -14 9 -6 -343 9 -358 6 -6 11 -27 10 -46 0 -32 -1 -33 -9 -13 -5 12
-11 22 -12 22 -8 0 3 -149 13 -172 6 -16 8 -44 4 -68 -4 -26 -2 -52 5 -71 10
-23 10 -33 1 -42 -13 -13 -15 -77 -2 -77 4 0 9 -38 9 -85 0 -47 4 -95 8 -107
l8 -23 7 25 c5 19 7 14 8 -24 1 -40 -2 -47 -15 -42 -13 5 -15 0 -9 -36 4 -24
11 -52 16 -63 7 -16 8 -12 7 15 -1 19 1 41 6 48 4 7 5 88 2 180 -5 151 0 270
11 258 2 -2 8 -87 12 -189 7 -150 12 -189 25 -202 17 -18 22 -55 6 -55 -5 0
-7 -21 -5 -47 3 -27 7 -114 9 -194 4 -166 18 -216 27 -99 4 51 2 87 -8 114 -7
22 -10 42 -7 45 4 3 9 0 11 -6 11 -30 23 -9 23 37 0 28 -4 50 -10 50 -5 0 -10
12 -10 26 0 20 4 25 16 20 15 -6 16 2 10 73 -7 88 -20 137 -29 111 -3 -8 -8
-24 -10 -35 -3 -11 -5 -1 -6 22 -1 49 7 75 21 66 7 -4 9 4 5 23 -3 16 1 83 10
150 16 120 16 121 -5 166 -12 24 -22 51 -21 59 0 8 8 -5 18 -29 9 -23 20 -40
24 -36 12 12 8 86 -4 79 -7 -5 -8 5 -3 30 5 30 7 157 4 245 0 8 0 97 1 197 1
99 -2 187 -6 193 -4 6 -8 53 -10 103 -1 51 -5 115 -9 142 -7 46 -6 48 6 25 9
-15 12 -43 10 -69 -3 -29 -1 -41 6 -37 6 3 11 19 12 34 6 82 -1 310 -7 280 -5
-21 -23 -24 -23 -4 0 15 24 39 32 31 11 -12 20 252 9 291 -7 25 -7 53 -1 79 5
22 10 87 10 145 0 94 -3 109 -25 145 -20 33 -24 52 -23 105 l2 65 3 -55 c5
-77 11 -90 29 -66 9 13 14 44 14 87 l0 67 -112 7 c-62 4 -135 5 -163 3 -47 -3
-49 -4 -25 -16 l25 -13 -25 6 c-14 2 -38 5 -55 6 -25 0 -27 2 -10 9 15 6 10 8
-20 7 -22 0 -123 0 -225 2 -108 1 -200 -2 -220 -8 -42 -13 -117 -14 -124 -3
-3 5 -38 10 -77 10 -40 1 -73 3 -75 5 -2 1 -5 56 -8 122 -2 66 -1 100 2 75 6
-38 9 -42 15 -22 5 12 6 30 2 41 -7 25 28 30 215 30 182 1 309 11 317 24 4 6
0 8 -11 4 -10 -4 -29 -4 -43 -1 -36 9 -9 23 47 25 25 1 59 4 75 8 17 4 -42 7
-130 7 -88 0 -142 -3 -120 -7 22 -3 -45 -4 -150 -3 -104 2 -202 4 -217 4 -21
0 -28 5 -28 20 0 16 -7 20 -37 21 -46 1 -34 6 29 12 37 4 48 1 51 -12 3 -9 5
-4 6 12 l1 27 -146 0 c-94 0 -143 -4 -139 -10 8 -12 7 -12 -31 -1 -16 5 -48 5
-70 1 -39 -8 -39 -8 15 -9 30 0 52 -3 49 -6 -5 -5 -50 -6 -183 -3 -30 0 -33 2
-12 5 50 8 28 20 -50 27 -100 8 -349 6 -334 -3 17 -11 -124 -5 -199 8 -36 6
-108 11 -160 10 -83 0 -100 -3 -135 -24 -33 -21 -51 -25 -105 -23 l-65 2 55 3
c81 5 92 13 40 29 -54 16 -70 17 -50 3 11 -8 6 -9 -20 -4 -54 10 -292 15 -250
5 25 -6 12 -7 -45 -5 -517 23 -651 25 -756 8 -99 -16 -110 -16 -165 0 -36 11
-60 13 -62 7 -2 -6 -17 -10 -33 -10 -17 0 -28 4 -25 9 3 5 -64 8 -157 6 -218
-3 -217 -3 -217 -19 0 -8 -8 -12 -22 -9 -13 2 -52 -3 -88 -11 l-65 -14 88 -1
87 -1 0 -31 c0 -31 0 -31 -42 -25 -80 12 -335 17 -313 6 15 -8 11 -9 -20 -5
-22 3 -76 8 -121 11 l-81 6 -8 96 c-5 54 -8 138 -7 187 2 54 -2 99 -9 112 -9
18 -10 29 -1 48 7 14 12 59 12 100 0 40 4 75 9 77 5 2 5 31 -1 68 -5 36 -6
111 -3 168 6 89 9 101 20 85 14 -20 17 -143 3 -143 -12 0 -9 -100 7 -235 18
-145 17 -138 5 -130 -11 7 -14 -330 -4 -384 5 -26 11 -31 33 -30 23 2 24 2 4
6 -27 5 -31 33 -5 33 13 0 14 -2 4 -9 -18 -11 85 -31 162 -31 34 0 68 5 76 11
11 7 -4 9 -53 7 -37 -2 -67 1 -67 6 0 5 -13 6 -30 3 -38 -8 -49 9 -12 18 16 3
94 6 173 6 160 0 222 6 213 20 -3 5 -94 7 -219 4 l-214 -6 5 243 5 243 -39
215 c-30 169 -36 216 -25 218 7 2 13 12 13 23 0 11 -4 17 -10 14 -5 -3 -10 1
-10 10 0 9 6 15 13 12 8 -3 11 -26 9 -81 -2 -56 1 -82 13 -99 14 -21 15 -20
15 23 0 25 2 202 5 394 3 219 0 376 -6 420 -15 98 -18 156 -8 156 17 0 9 18
-11 23 -15 4 -20 14 -20 40 0 20 -4 46 -9 59 -5 13 -11 46 -13 73 -3 28 -3 41
-1 31 4 -16 7 -17 14 -5 6 9 9 -3 9 -36 0 -27 6 -60 13 -72 10 -18 12 -2 14
94 1 93 -1 113 -12 109 -8 -3 -12 0 -10 7 3 7 6 40 9 74 5 67 -10 99 -17 36
-3 -29 -4 -24 -5 20 -1 32 2 57 8 57 6 0 10 7 10 15 0 18 -2 18 260 16 107 -1
202 -1 210 0 8 0 155 2 325 4 171 2 326 4 345 5 32 2 33 3 10 10 -14 4 -52 9
-85 10 l-60 2 55 9 c30 5 64 7 76 4 11 -2 34 -1 51 4 17 5 46 5 64 1 32 -8 33
-8 6 -9 -15 -1 -30 -8 -33 -16 -4 -8 -10 -12 -15 -9 -5 3 -9 1 -9 -4 0 -13
271 -14 347 -1 35 6 60 15 57 20 -3 5 16 8 43 8 26 -1 39 -3 28 -6 -29 -7 -43
-23 -20 -23 11 0 31 -3 45 -7 23 -6 24 -5 10 12 -14 17 -11 17 65 10 44 -4 85
-11 91 -16 6 -5 140 -6 300 -3 159 3 327 5 373 4 46 -1 131 4 190 10 88 9 112
9 141 -3 29 -12 70 -13 235 -7 110 5 212 6 226 3 15 -3 30 0 33 6 4 6 21 11
37 11 20 0 28 -4 23 -11 -5 -8 36 -10 147 -5 323 13 650 18 686 11 36 -8 37
-8 13 -15 l-25 -8 26 -1 c36 -1 42 -37 33 -194 -5 -100 -3 -133 11 -183 9 -33
15 -76 13 -95 l-4 -34 -12 25 -12 25 5 -28 c5 -25 3 -28 -17 -25 -21 3 -23 -1
-26 -47 -3 -57 11 -90 28 -65 5 8 8 20 6 27 -3 6 -1 24 5 40 6 21 7 13 3 -32
-12 -133 -15 -147 -28 -129 -10 13 -12 3 -10 -57 1 -41 7 -87 13 -102 14 -35
14 -40 1 -32 -5 3 -10 16 -10 27 0 31 -12 14 -16 -23 -2 -19 1 -36 8 -41 10
-6 10 -10 -1 -17 -10 -6 -10 -13 -2 -28 6 -13 7 -39 3 -69 -4 -27 -5 -69 -1
-94 4 -25 8 -119 9 -210 1 -91 3 -185 4 -210 l1 -44 48 3 c44 2 47 1 47 -22 0
-14 -3 -33 -6 -42 -6 -13 -9 -14 -16 -3 -10 15 -1 -107 12 -162 8 -32 9 -30
10 25 2 126 12 205 26 205 8 0 14 -7 14 -15 0 -8 4 -15 9 -15 13 0 26 -103 14
-107 -17 -6 0 -690 17 -707 9 -8 10 31 7 159 -3 94 -8 185 -12 203 -5 21 -3
32 4 32 6 0 11 -12 11 -26 0 -14 4 -23 10 -19 6 3 10 47 10 96 0 58 -4 88 -10
84 -6 -4 -10 13 -10 44 0 43 2 49 17 44 15 -6 16 4 9 110 -5 86 -4 117 5 117
7 0 5 10 -6 26 -14 22 -15 28 -4 35 8 4 23 6 34 4 66 -13 135 -14 180 -2 28 7
85 12 128 11 42 -1 77 1 77 6 0 5 12 5 27 1 26 -7 126 4 145 15 5 3 4 12 -2
19 -9 10 -6 15 12 21 l23 8 -25 7 c-37 11 -58 11 -42 0 11 -6 10 -10 -4 -15
-10 -4 -20 -3 -22 2 -2 6 -31 8 -70 5 -74 -6 -92 -6 -172 -4 -30 1 -89 1 -130
-1 -41 -2 -88 0 -104 4 -16 4 -34 4 -40 -1 -21 -16 -56 -20 -56 -6 0 7 -5 15
-11 17 -18 6 -20 130 -2 150 17 19 13 54 -7 50 -11 -3 -11 0 -1 12 9 10 11 30
7 58 -3 24 -6 53 -6 66 0 12 -6 22 -13 22 -8 0 -8 3 2 9 10 7 14 30 15 81 0
70 0 71 17 48 10 -12 14 -25 10 -28 -10 -6 -10 -90 0 -84 4 2 10 0 14 -6 3 -5
1 -10 -4 -10 -6 0 -11 -9 -11 -20 0 -11 -6 -20 -12 -20 -10 0 -10 -2 -2 -8 7
-4 15 -38 19 -77 6 -55 10 -65 16 -47 5 13 15 29 22 37 12 11 13 5 11 -36 -2
-50 9 -70 28 -51 8 8 8 15 1 24 -6 8 -9 56 -8 120 l4 107 -45 57 c-28 37 -44
68 -45 88 -1 17 -3 23 -6 14 -10 -39 -18 -14 -15 47 4 70 16 81 58 51 16 -13
17 -18 6 -33 -23 -34 -24 -44 -7 -57 14 -10 17 -22 13 -54 -4 -29 -2 -42 8
-46 8 -3 14 0 14 7 1 7 2 44 3 82 3 74 -8 115 -30 115 -7 0 -13 7 -13 15 0 8
3 14 8 14 19 -3 22 3 12 21 -9 16 -8 20 7 21 10 0 55 4 101 7 45 4 82 5 82 1
0 -10 64 -8 77 3 9 7 18 7 30 -3 15 -12 16 -12 10 4 -8 20 6 22 25 3 15 -14
170 -18 161 -3 -6 10 9 9 26 -2 7 -5 11 -15 9 -22 -3 -8 1 -29 8 -48 16 -39
18 -99 4 -121 -7 -11 -10 -11 -10 -2 0 7 -4 11 -9 8 -13 -8 -7 -124 7 -138 14
-14 16 -32 2 -23 -6 4 -10 -6 -10 -24 0 -16 5 -33 11 -36 6 -4 8 -14 5 -22 -3
-8 -1 -23 4 -34 7 -13 7 -19 0 -19 -5 0 -10 -7 -10 -15 0 -8 4 -15 8 -15 5 0
9 -13 10 -30 1 -44 12 -55 29 -30 9 13 12 31 8 50 -4 16 -3 40 1 52 7 22 7 22
15 3 4 -11 8 -41 8 -67 1 -35 7 -52 23 -68 12 -11 18 -20 12 -20 -11 0 -2
-139 11 -160 7 -12 11 -7 16 20 5 21 3 40 -3 48 -8 9 -7 11 4 7 11 -4 17 2 20
19 4 17 0 26 -11 29 -13 4 -13 5 2 6 21 1 23 39 2 67 -13 16 -16 17 -25 4 -9
-12 -10 -12 -7 5 2 11 9 19 16 17 9 -2 11 3 7 13 -3 9 1 33 10 53 13 28 17 74
18 196 0 95 -3 164 -9 170 -5 6 -10 22 -11 36 0 14 -4 42 -8 63 -6 34 -5 37 7
26 8 -8 12 -20 10 -26 -7 -19 5 -45 17 -38 8 5 7 12 -2 23 -11 13 -11 14 1 8
11 -7 13 2 8 55 -11 105 -11 134 -3 148 4 7 5 15 1 19 -12 12 -172 15 -194 3
-11 -7 -21 -8 -21 -2 0 5 -10 9 -22 10 -13 0 -40 3 -60 7 -30 5 -39 3 -44 -11
-5 -12 -9 -13 -14 -5 -4 7 -32 14 -61 16 -39 3 -50 2 -39 -6 12 -8 11 -10 -8
-10 -13 0 -21 4 -18 9 10 15 -163 20 -192 5 -15 -8 -29 -14 -32 -14 -5 0 -12
206 -12 320 1 25 1 119 2 209 0 90 -1 165 -2 167 -10 9 -500 7 -506 -2 -4 -7
-60 -10 -142 -10 -74 1 -184 -3 -244 -8 -73 -6 -107 -5 -102 2 3 5 20 12 38
15 18 4 49 9 68 12 26 5 31 4 20 -4 -12 -8 -9 -10 15 -10 36 2 96 16 75 18
-92 10 -157 11 -350 5 -124 -4 -214 -10 -200 -12 14 -2 30 -8 35 -14 7 -8 5
-9 -7 -5 -9 3 -33 9 -52 13 -20 3 -34 10 -31 14 11 18 -450 26 -540 9 -28 -5
-51 -6 -53 -1 -1 5 -13 7 -25 5 -20 -4 -23 0 -22 29 0 18 -10 71 -22 118 -13
47 -26 123 -29 170 -4 47 -13 102 -20 123 -7 20 -11 43 -8 50 2 7 -2 46 -11
86 -8 40 -15 100 -15 135 0 34 -4 66 -9 72 -14 15 -21 73 -10 80 6 4 8 32 4
77 -4 40 -7 81 -7 92 1 11 1 45 2 75 0 30 7 61 14 70 18 21 28 90 13 86 -7 -1
-9 -1 -5 1 11 6 48 93 48 112 0 9 5 23 11 31 9 13 10 12 5 -2 -3 -10 0 -18 6
-18 7 0 7 -4 -1 -14 -12 -14 -41 -115 -41 -141 0 -8 5 -15 10 -15 6 0 10 6 10
14 0 7 7 20 16 27 15 12 16 7 13 -46 -3 -48 -1 -60 11 -60 11 0 15 13 15 55 0
51 39 159 52 146 11 -11 52 53 63 97 10 39 14 44 29 35 13 -8 26 -5 56 11 25
13 58 21 87 21 33 0 54 6 66 18 9 9 30 18 47 20 26 2 27 1 11 -11 -17 -13 -17
-14 10 -25 54 -20 74 -24 74 -12 0 6 5 8 10 5 6 -4 8 -11 5 -16 -3 -5 -1 -14
5 -21 39 -46 78 -107 73 -112 -3 -3 1 -14 9 -23 19 -23 27 -69 18 -108 -4 -16
-8 -22 -9 -12 0 9 -6 17 -12 17 -5 0 -8 4 -5 9 8 13 -15 114 -29 126 -6 6 -20
22 -29 38 -10 15 -25 27 -33 27 -8 0 -31 11 -51 25 -44 30 -107 33 -196 8 -55
-14 -104 -50 -106 -75 0 -4 -11 -18 -25 -32 -14 -14 -28 -43 -32 -68 -7 -42
-7 -42 -13 -13 l-7 30 -13 -30 c-19 -45 -23 -116 -9 -150 7 -16 13 -32 14 -35
14 -57 17 -65 24 -46 5 12 10 16 14 9 4 -6 0 -18 -8 -26 -13 -14 -11 -21 24
-64 54 -68 87 -96 102 -88 8 5 10 4 5 -3 -4 -7 4 -13 21 -17 15 -3 46 -10 68
-16 107 -29 199 -23 217 16 9 20 14 22 29 14 24 -12 83 17 139 68 39 35 57 68
23 42 -10 -7 -7 -1 6 13 13 15 27 25 32 23 4 -3 10 -1 14 5 3 5 2 10 -4 10 -6
0 1 11 14 24 31 31 46 84 52 188 5 83 4 89 -26 142 -22 39 -30 62 -26 79 5 18
2 28 -12 36 -10 6 -14 11 -10 11 16 0 -26 58 -54 74 -16 10 -29 23 -29 30 0
25 -81 80 -111 75 -8 -1 -22 1 -31 4 -10 4 -25 9 -33 12 -8 2 -12 11 -9 19 4
10 -7 16 -45 21 -28 4 -49 10 -46 15 2 4 -44 6 -103 5 -108 -3 -197 -19 -187
-34 6 -10 -18 -21 -45 -21 -11 0 -39 -19 -64 -42 -25 -24 -64 -59 -86 -78 -85
-70 -159 -208 -179 -335 -25 -159 -7 -551 24 -535 13 7 7 257 -6 282 -7 14 -7
24 2 34 6 8 9 27 6 43 -3 15 -2 41 2 57 8 28 8 28 15 6 4 -12 5 -36 1 -52 -10
-46 -8 -140 4 -154 6 -7 8 -16 4 -20 -11 -10 -3 -114 12 -149 10 -25 22 -141
25 -244 0 -7 8 -13 18 -13 14 0 14 -2 3 -9 -12 -8 -11 -18 6 -68 12 -32 24
-85 27 -118 7 -79 15 -126 27 -150 5 -11 11 -38 13 -60 3 -22 5 -40 6 -40 1 0
4 -15 6 -32 l5 -33 -163 6 c-161 7 -164 6 -226 -20 -35 -15 -69 -25 -75 -22
-7 2 -4 5 6 5 21 1 23 17 3 24 -8 3 -120 8 -248 11 -128 2 -217 1 -198 -3 26
-6 13 -8 -55 -9 -52 0 -77 3 -60 7 17 4 -30 8 -104 9 -136 2 -158 8 -146 40 3
8 -6 55 -20 105 -13 51 -29 133 -35 182 -13 124 -27 222 -38 275 -5 25 -8 68
-7 95 2 28 -3 59 -9 70 -23 37 -28 75 -11 82 12 4 15 13 10 31 -3 13 -8 77
-10 140 -3 93 -1 119 11 133 8 9 17 40 21 70 3 30 14 71 24 91 11 21 19 46 19
56 0 10 9 27 19 36 12 11 17 25 14 34 -5 11 -2 14 10 9 9 -3 17 -2 17 4 0 5
11 14 24 19 13 5 27 18 31 30 4 13 12 19 20 16 8 -3 24 6 37 19 31 33 41 31
20 -4 -11 -20 -19 -26 -24 -18 -6 9 -8 9 -8 0 0 -7 -6 -13 -13 -13 -18 0 -69
-58 -62 -70 3 -6 0 -10 -8 -10 -25 0 -68 -68 -88 -140 -22 -81 -22 -80 -9 -80
6 0 10 5 10 11 0 6 7 17 15 25 13 14 15 12 15 -19 0 -20 -3 -43 -7 -52 -5 -15
-8 -14 -19 6 -13 22 -14 18 -11 -41 2 -62 3 -65 27 -65 31 0 39 29 15 55 -15
17 -15 18 2 16 13 -1 18 7 19 29 4 81 18 118 65 176 27 32 49 66 49 76 0 10
11 41 24 70 21 45 30 53 65 64 44 13 57 34 16 27 -13 -3 -22 -2 -20 2 11 18
176 19 175 1 -1 -3 -10 -17 -21 -30 -20 -24 -21 -24 -55 -7 -37 17 -54 14 -54
-10 0 -8 -8 -14 -17 -14 -10 0 -27 -7 -37 -15 -10 -8 -23 -12 -28 -9 -9 6 -22
-20 -16 -35 1 -5 26 1 53 15 28 13 68 24 90 24 22 0 52 8 65 17 14 10 36 19
49 21 21 3 22 1 12 -12 -10 -12 -8 -17 9 -26 12 -6 28 -9 35 -6 8 3 17 1 20
-4 9 -15 27 -12 19 3 -4 7 -3 9 2 4 5 -5 9 -12 9 -16 0 -9 32 -54 53 -76 6 -8
12 -18 12 -24 0 -6 5 -11 10 -11 6 0 10 -10 10 -23 0 -13 5 -28 10 -33 15 -15
17 -86 4 -91 -10 -3 -17 24 -25 97 -3 27 -70 92 -125 121 -38 21 -68 29 -102
29 -93 0 -202 -47 -202 -87 0 -8 -11 -24 -25 -36 -15 -13 -32 -43 -40 -72 -10
-37 -13 -43 -14 -22 -1 15 -5 27 -10 27 -12 0 -2 -42 14 -55 7 -6 9 -18 4 -30
-6 -17 -8 -17 -8 -2 -1 9 -5 17 -10 17 -5 0 -11 10 -13 23 -3 15 -7 7 -12 -23
-7 -43 1 -79 36 -170 10 -24 11 -24 18 -5 8 17 9 16 9 -8 1 -16 -3 -26 -9 -22
-17 11 -11 -5 20 -50 33 -48 88 -98 100 -90 4 3 10 -2 14 -10 3 -9 18 -15 36
-15 17 0 47 -7 67 -15 37 -16 108 -19 162 -9 24 5 35 15 45 39 8 18 20 36 27
41 12 7 12 5 1 -9 -18 -22 -6 -40 21 -31 34 11 88 50 79 58 -4 4 -2 7 3 6 23
-5 35 2 56 33 12 17 16 26 9 20 -8 -7 -18 -13 -24 -13 -5 0 16 26 46 58 63 65
77 107 81 233 2 68 -1 79 -27 119 -19 29 -28 55 -28 82 1 26 -4 38 -13 38 -9
0 -12 6 -9 15 4 9 -16 35 -50 70 -31 30 -56 59 -56 63 0 11 -55 42 -75 42 -12
0 -15 -5 -11 -17 6 -14 3 -14 -16 4 -13 11 -33 24 -46 28 -18 5 -21 10 -12 20
9 10 1 14 -40 20 -27 4 -50 10 -50 14 0 12 -184 7 -235 -5z m84 -8 c-2 -2 -17
-6 -34 -10 -22 -5 -26 -4 -15 4 14 9 59 15 49 6z m1320 0 c-2 -2 -17 -6 -34
-10 -22 -5 -26 -4 -15 4 14 9 59 15 49 6z m-1195 -21 c-4 -8 -18 -15 -33 -14
l-26 1 30 13 c17 8 31 14 32 15 1 0 0 -7 -3 -15z m1330 0 c-4 -8 -12 -15 -20
-15 -20 0 -17 18 4 23 9 3 18 5 19 6 1 0 0 -6 -3 -14z m-1540 -16 c-4 -8 1 -9
17 -4 19 5 21 4 9 -4 -8 -6 -28 -10 -45 -10 -17 1 -22 3 -12 6 9 2 17 9 17 14
0 5 5 9 11 9 5 0 7 -5 3 -11z m1349 -3 c21 4 21 4 2 -5 -11 -5 -31 -9 -45 -9
-16 0 -19 2 -7 5 9 2 17 10 18 16 0 9 2 9 5 1 3 -7 15 -10 27 -8z m-97 -45
c-10 -11 -32 -24 -48 -30 -27 -10 -29 -9 -17 5 7 8 26 21 43 29 41 18 42 18
22 -4z m-1340 -10 c-18 -19 -56 -35 -56 -22 0 8 51 40 64 41 5 0 1 -9 -8 -19z
m517 -12 c12 -7 26 -18 30 -26 5 -7 26 -25 48 -38 21 -14 39 -30 39 -35 0 -20
-19 -9 -69 40 -28 28 -58 50 -65 50 -8 0 -18 5 -21 10 -8 13 11 13 38 -1z
m1373 -39 c31 -27 62 -50 68 -50 6 0 5 -5 -2 -12 -9 -9 -23 -1 -64 40 -28 29
-60 52 -70 52 -10 0 -18 5 -18 10 0 22 32 7 86 -40z m-319 24 c-3 -3 -12 -4
-19 -1 -8 3 -5 6 6 6 11 1 17 -2 13 -5z m50 -28 c1 -1 -8 -14 -20 -30 l-23
-28 -39 19 c-22 10 -43 22 -46 27 -4 5 -19 6 -34 4 -14 -3 -23 -2 -18 3 11 11
78 16 133 11 25 -3 46 -5 47 -6z m-432 -54 c-25 -26 -53 -63 -63 -83 -9 -21
-24 -42 -33 -47 -13 -9 -15 -6 -11 15 3 15 7 20 12 13 4 -7 12 0 20 19 6 17
18 36 26 42 16 13 19 34 5 24 -5 -3 -3 8 5 25 9 16 20 30 26 30 7 0 6 -5 -2
-15 -6 -8 -10 -20 -8 -26 2 -7 14 4 26 25 12 20 26 34 32 31 5 -3 -11 -27 -35
-53z m-1341 -22 c-32 -38 -59 -70 -61 -70 -2 0 7 20 19 44 13 24 28 42 33 40
6 -2 18 9 27 26 9 16 22 30 28 30 6 0 -15 -31 -46 -70z m1549 33 c-7 -3 -13
-11 -13 -19 0 -8 -3 -13 -7 -12 -19 4 -62 -23 -68 -42 -3 -11 -10 -18 -15 -15
-4 3 -11 -2 -14 -11 -3 -8 -2 -12 4 -9 6 3 7 -1 4 -9 -3 -9 -10 -13 -15 -11
-4 3 -14 -3 -21 -15 -17 -26 -26 -25 -23 3 1 12 3 28 4 35 0 7 5 11 10 8 5 -3
14 1 21 9 7 8 18 15 25 15 6 0 17 12 23 26 7 14 16 23 21 19 5 -3 22 6 38 19
15 13 30 22 33 19 3 -3 -1 -8 -7 -10z m97 2 c0 -14 -58 -46 -92 -50 -13 -1
-15 2 -7 17 20 36 99 63 99 33z m-1120 1 c0 -3 -4 -8 -10 -11 -5 -3 -10 -1
-10 4 0 6 5 11 10 11 6 0 10 -2 10 -4z m1520 -77 c0 -6 -4 -7 -10 -4 -5 3 -10
11 -10 16 0 6 5 7 10 4 6 -3 10 -11 10 -16z m-1325 1 c3 -5 1 -10 -4 -10 -6 0
-11 5 -11 10 0 6 2 10 4 10 3 0 8 -4 11 -10z m-793 -62 c-6 -6 -15 -8 -19 -4
-4 4 -1 11 7 16 19 12 27 3 12 -12z m169 -35 c-12 -20 -14 -14 -5 12 4 9 9 14
11 11 3 -2 0 -13 -6 -23z m1329 4 c0 -7 -7 -22 -15 -33 -13 -17 -13 -16 -3 14
13 34 18 40 18 19z m-1038 -4 c-6 -2 -10 -8 -7 -13 3 -4 -2 -10 -10 -14 -8 -3
-15 -1 -15 4 0 7 -7 7 -20 0 -65 -33 -66 -33 -52 -19 13 14 90 48 107 48 6 0
4 -3 -3 -6z m1320 -2 c-8 -4 -13 -12 -12 -17 1 -5 -3 -10 -9 -12 -15 -5 -14
25 2 31 20 9 33 7 19 -2z m368 -22 c0 -14 -17 -10 -23 5 -4 10 -1 13 9 9 7 -3
14 -9 14 -14z m-1330 7 c0 -3 -4 -8 -10 -11 -5 -3 -10 -1 -10 4 0 6 5 11 10
11 6 0 10 -2 10 -4z m916 -5 c-6 -9 -46 -22 -46 -15 0 3 10 9 23 14 29 11 29
11 23 1z m-450 -83 c-3 -40 -10 -86 -15 -103 l-8 -30 -8 28 c-9 35 2 141 15
145 6 2 10 10 10 18 0 8 3 14 6 14 4 0 4 -33 0 -72z m-1331 -37 c-6 -74 -10
-89 -22 -84 -13 5 -14 18 -8 76 6 62 22 113 33 102 2 -2 1 -44 -3 -94z m2332
77 c-3 -8 -6 -5 -6 6 -1 11 2 17 5 13 3 -3 4 -12 1 -19z m-1447 -25 c0 -20 -3
-24 -11 -16 -7 7 -9 19 -6 27 10 24 17 19 17 -11z m96 5 c14 -33 11 -143 -5
-162 -7 -8 -10 -19 -7 -24 3 -6 0 -15 -7 -20 -15 -13 -14 17 2 83 13 52 14
112 1 120 -12 8 -13 25 -2 25 5 0 13 -10 18 -22z m1336 -69 c2 -63 -12 -109
-33 -109 -7 0 -8 7 -4 18 19 49 28 125 17 143 -18 28 -15 47 3 28 10 -10 16
-37 17 -80z m-1552 41 c0 -13 -1 -13 -10 0 -5 8 -10 22 -10 30 0 13 1 13 10 0
5 -8 10 -22 10 -30z m1324 18 c10 -38 6 -45 -9 -18 -17 29 -18 40 -6 40 5 0
11 -10 15 -22z m121 4 c0 -18 -20 -15 -23 4 -3 10 1 15 10 12 7 -3 13 -10 13
-16z m-1719 -1 c-4 -5 10 -7 31 -4 29 4 43 0 61 -17 12 -11 22 -27 22 -35 0
-8 6 -15 13 -16 10 0 10 -2 0 -6 -7 -2 -13 -11 -13 -18 0 -14 -30 -25 -68 -25
-15 0 -21 -4 -16 -12 4 -7 3 -8 -4 -4 -17 10 -15 26 3 26 13 0 13 3 3 20 -17
26 -25 25 -32 -5 -15 -59 34 -85 116 -60 50 15 51 14 34 -4 -36 -40 -132 -35
-159 6 -4 7 -16 13 -26 13 -20 0 -37 29 -24 39 4 3 8 12 9 19 1 6 2 21 3 32 0
10 11 28 23 40 23 21 33 26 24 11z m1413 -13 c13 -9 24 -23 25 -32 1 -8 5 -18
8 -21 10 -11 -4 -45 -18 -45 -8 0 -14 -4 -14 -8 0 -4 -16 -7 -35 -7 -19 0 -35
3 -35 8 0 4 7 7 15 7 12 0 12 3 -2 20 -10 11 -21 20 -25 20 -14 0 -8 -67 7
-80 8 -7 15 -9 15 -4 0 4 5 3 12 -4 16 -16 37 -15 69 2 16 8 32 10 40 5 10 -6
3 -12 -23 -24 -21 -8 -45 -15 -54 -15 -32 0 -84 24 -84 38 0 8 -6 12 -14 9
-15 -6 -29 6 -39 36 -4 11 -3 16 3 12 6 -4 10 6 10 22 0 38 26 74 47 66 9 -4
14 -2 11 3 -10 15 58 8 81 -8z m-202 -13 c-3 -23 -17 -48 -17 -29 0 15 12 54
17 54 2 0 2 -11 0 -25z m630 3 c-3 -8 -6 -5 -6 6 -1 11 2 17 5 13 3 -3 4 -12
1 -19z m-1959 -19 c-6 -16 -12 -29 -13 -27 -6 6 8 58 16 58 4 0 3 -14 -3 -31z
m247 21 c3 -5 1 -10 -4 -10 -6 0 -11 5 -11 10 0 6 2 10 4 10 3 0 8 -4 11 -10z
m987 -57 c-4 -22 -22 -33 -22 -14 0 5 -3 16 -6 25 -4 10 0 14 13 13 15 -1 18
-7 15 -24z m-843 -33 c0 -9 -4 -8 -9 5 -5 11 -9 27 -9 35 0 9 4 8 9 -5 5 -11
9 -27 9 -35z m1346 -23 c5 4 3 0 -5 -11 -14 -18 -15 -18 -21 5 -4 13 -7 38 -7
54 0 26 2 24 12 -13 7 -26 15 -40 21 -35z m-1308 31 c-3 -8 -6 -5 -6 6 -1 11
2 17 5 13 3 -3 4 -12 1 -19z m1361 -19 c-1 -22 -3 -27 -10 -16 -4 8 -5 22 -2
31 9 24 13 19 12 -15z m62 15 c0 -8 -4 -12 -10 -9 -5 3 -10 10 -10 16 0 5 5 9
10 9 6 0 10 -7 10 -16z m-1388 -20 c-3 -17 -7 -22 -12 -13 -9 13 -2 39 10 39
4 0 5 -12 2 -26z m-862 -61 c0 -29 -4 -43 -9 -37 -17 17 -18 84 -1 84 6 0 10
-21 10 -47z m373 32 c4 -8 2 -17 -3 -20 -6 -4 -10 3 -10 14 0 25 6 27 13 6z
m1324 -22 c-3 -10 -5 -4 -5 12 0 17 2 24 5 18 2 -7 2 -21 0 -30z m-938 -9
c-17 -21 -31 -17 -19 6 6 11 15 18 21 14 6 -4 6 -11 -2 -20z m1092 -42 c-6 -2
-9 -8 -5 -13 3 -5 0 -9 -5 -9 -6 0 -11 8 -11 17 0 9 -10 28 -22 42 -21 22 -19
22 16 -4 21 -16 33 -31 27 -33z m239 55 c0 -2 -10 -12 -21 -23 -22 -19 -22
-19 -10 4 10 18 31 31 31 19z m-1585 -27 c11 -12 20 -28 21 -36 3 -22 -20 -11
-25 12 -2 10 -11 24 -20 31 -9 7 -11 13 -5 13 6 0 19 -9 29 -20z m1807 -2 c-7
-7 -12 -8 -12 -2 0 14 12 26 19 19 2 -3 -1 -11 -7 -17z m-1532 2 c0 -5 -5 -10
-11 -10 -5 0 -7 5 -4 10 3 6 8 10 11 10 2 0 4 -4 4 -10z m943 -20 c9 -11 13
-20 7 -20 -5 0 -14 9 -20 20 -6 11 -9 20 -8 20 2 0 11 -9 21 -20z m-1317 -17
c-7 -7 -26 7 -26 19 0 6 6 6 15 -2 9 -7 13 -15 11 -17z m349 7 c3 -5 -3 -10
-15 -10 -12 0 -18 5 -15 10 3 6 10 10 15 10 5 0 12 -4 15 -10z m1335 -6 c0 -2
-9 -4 -21 -4 -11 0 -18 4 -14 10 5 8 35 3 35 -6z m-1490 -18 c0 -9 -30 -14
-35 -6 -4 6 3 10 14 10 12 0 21 -2 21 -4z m224 -33 c-22 -29 -69 -59 -94 -61
-8 0 -26 -3 -40 -7 l-25 -6 25 11 c13 6 39 22 57 35 17 14 40 25 51 25 12 0
22 9 25 22 4 12 9 19 13 15 4 -4 -1 -19 -12 -34z m1091 27 c-3 -5 -12 -7 -20
-3 -21 7 -19 13 6 13 11 0 18 -4 14 -10z m255 -4 c0 -11 -19 -15 -25 -6 -3 5
1 10 9 10 9 0 16 -2 16 -4z m-1685 -16 c3 -5 2 -10 -4 -10 -5 0 -13 5 -16 10
-3 6 -2 10 4 10 5 0 13 -4 16 -10z m439 -5 c-4 -8 -11 -15 -16 -15 -6 0 -5 6
2 15 7 8 14 15 16 15 2 0 1 -7 -2 -15z m891 5 c3 -5 -1 -10 -9 -10 -9 0 -16 5
-16 10 0 6 4 10 9 10 6 0 13 -4 16 -10z m-1299 -31 c53 -2 84 -10 78 -21 -4
-6 0 -14 7 -19 9 -6 3 -8 -21 -8 -19 1 -27 3 -17 6 10 3 16 10 14 16 -2 8 -22
11 -53 9 -38 -3 -55 1 -72 16 -30 27 -28 33 7 16 15 -8 41 -14 57 -15z m1341
-1 c18 0 30 -4 27 -9 -9 -15 -74 -10 -105 8 -41 24 -36 35 8 16 20 -8 52 -15
70 -15z m272 6 c-32 -39 -144 -68 -214 -55 -27 5 -42 9 -32 10 9 0 17 8 17 16
0 8 8 15 18 15 13 0 14 -2 3 -9 -11 -7 -10 -11 7 -20 25 -13 62 -14 62 -2 0 5
8 7 18 5 9 -2 37 11 62 29 44 34 84 40 59 11z m121 16 c0 -5 -7 -10 -16 -10
-8 0 -12 5 -9 10 3 6 10 10 16 10 5 0 9 -4 9 -10z m-1554 -27 c-4 -5 -20 -8
-36 -8 -15 0 -26 3 -23 8 2 4 18 7 35 7 17 0 28 -3 24 -7z m1329 -3 c-7 -11
-65 -9 -65 3 0 4 16 7 36 7 20 0 33 -4 29 -10z m-1635 -25 c11 -13 10 -14 -4
-9 -9 3 -16 10 -16 15 0 13 6 11 20 -6z m1328 -3 c6 -18 -15 -14 -22 4 -4 10
-1 14 6 12 6 -2 14 -10 16 -16z m-1065 -19 c-7 -2 -19 -2 -25 0 -7 3 -2 5 12
5 14 0 19 -2 13 -5z m1152 -41 c-3 -3 -11 0 -18 7 -9 10 -8 11 6 5 10 -3 15
-9 12 -12z m235 -2 c0 -5 -5 -10 -11 -10 -5 0 -7 5 -4 10 3 6 8 10 11 10 2 0
4 -4 4 -10z m-1330 -4 c0 -3 -4 -8 -10 -11 -5 -3 -10 -1 -10 4 0 6 5 11 10 11
6 0 10 -2 10 -4z m587 -38 c-3 -7 -5 -2 -5 12 0 14 2 19 5 13 2 -7 2 -19 0
-25z m-670 6 c-3 -3 -12 -4 -19 -1 -8 3 -5 6 6 6 11 1 17 -2 13 -5z m80 0 c-3
-3 -12 -4 -19 -1 -8 3 -5 6 6 6 11 1 17 -2 13 -5z m1320 0 c-3 -3 -12 -4 -19
-1 -8 3 -5 6 6 6 11 1 17 -2 13 -5z m-1270 -850 c-3 -3 -12 -4 -19 -1 -8 3 -5
6 6 6 11 1 17 -2 13 -5z m-1543 -13 c9 -14 -49 -21 -180 -21 l-124 0 4 -154
c2 -85 7 -159 11 -165 3 -6 1 -19 -4 -28 -9 -16 -10 -16 -11 5 0 12 -3 22 -7
22 -5 0 -7 74 -5 164 l3 164 132 9 c73 6 142 11 154 11 12 1 24 -2 27 -7z
m696 -1 c-10 -6 32 -8 123 -3 114 5 137 4 137 -8 0 -12 -30 -14 -167 -13 -100
1 -152 -1 -128 -6 33 -6 25 -7 -43 -9 -90 -1 -105 13 -24 24 26 3 56 10 67 15
11 5 27 9 35 9 13 1 13 0 0 -9z m953 3 c-7 -2 -19 -2 -25 0 -7 3 -2 5 12 5 14
0 19 -2 13 -5z m395 0 c-10 -2 -26 -2 -35 0 -10 3 -2 5 17 5 19 0 27 -2 18 -5z
m-948 -12 c-20 -4 -41 -10 -47 -14 -6 -4 -14 -3 -17 2 -8 12 17 19 64 19 l35
0 -35 -7z m1067 3 c-3 -3 -12 -4 -19 -1 -8 3 -5 6 6 6 11 1 17 -2 13 -5z m306
-1 c-7 -2 -19 -2 -25 0 -7 3 -2 5 12 5 14 0 19 -2 13 -5z m194 1 c-3 -3 -12
-4 -19 -1 -8 3 -5 6 6 6 11 1 17 -2 13 -5z m113 -4 c12 -8 9 -10 -12 -10 -16
0 -28 5 -28 10 0 13 20 13 40 0z m-1350 -10 c11 -7 3 -10 -30 -10 -25 0 -52 5
-60 10 -11 7 -3 10 30 10 25 0 52 -5 60 -10z m580 0 c0 -5 -17 -10 -37 -9 -34
1 -35 2 -13 9 36 11 50 11 50 0z m588 3 c-21 -2 -55 -2 -75 0 -21 2 -4 4 37 4
41 0 58 -2 38 -4z m365 -10 c-7 -2 -19 -2 -25 0 -7 3 -2 5 12 5 14 0 19 -2 13
-5z m-1806 -9 c-3 -3 -12 -4 -19 -1 -8 3 -5 6 6 6 11 1 17 -2 13 -5z m2576 -1
c-13 -2 -33 -2 -45 0 -13 2 -3 4 22 4 25 0 35 -2 23 -4z m-1436 -55 c23 -7 40
-15 37 -20 -6 -9 88 0 136 14 19 5 100 11 180 13 115 3 132 2 81 -5 -77 -11
-90 -20 -30 -21 40 0 42 -1 19 -10 -14 -6 -52 -8 -85 -5 -83 8 -83 8 -247 0
-102 -5 -148 -3 -148 4 0 6 6 12 13 15 6 2 -22 7 -63 11 -76 6 -151 5 -527 -9
-152 -6 -213 -5 -213 3 0 23 103 28 505 24 188 -2 316 -7 342 -14z m-2259 1
c-29 -6 -67 -6 -95 0 -43 8 -38 9 47 9 85 0 90 -1 48 -9z m1337 1 c4 -7 -3 -8
-22 -4 -38 9 -42 14 -10 14 14 0 29 -5 32 -10z m968 3 c-7 -2 -19 -2 -25 0 -7
3 -2 5 12 5 14 0 19 -2 13 -5z m44 1 c-3 -3 -12 -4 -19 -1 -8 3 -5 6 6 6 11 1
17 -2 13 -5z m-1437 -24 c-29 -23 -137 -28 -159 -7 -11 10 -12 9 -7 -1 6 -10
-7 -13 -61 -12 -37 0 -86 -2 -108 -5 -23 -3 -64 1 -95 9 -54 15 -52 15 100 11
100 -3 150 -1 140 5 -11 7 -7 10 17 10 17 0 35 -4 38 -10 3 -5 25 -9 48 -9 30
1 35 3 17 7 l-25 5 25 8 c14 4 41 7 60 8 l35 1 -25 -20z m2129 16 c-11 -9
-180 -15 -174 -6 3 5 45 10 92 10 48 0 84 -2 82 -4z m166 -6 c-28 -12 -93 -12
-100 0 -4 6 17 10 57 9 44 0 57 -3 43 -9z m832 1 c55 -3 99 -3 96 2 -5 8 34 8
62 -1 11 -4 21 -14 23 -22 3 -12 1 -13 -9 -2 -15 14 -63 17 -54 2 4 -6 -21
-10 -67 -9 -52 0 -67 3 -53 9 15 7 4 9 -40 10 -33 0 -98 4 -145 8 l-85 9 85 0
c47 1 131 -2 187 -6z m-349 -7 c-4 -3 -39 -10 -79 -15 -40 -5 -82 -12 -92 -15
-13 -4 -17 -2 -13 5 5 7 -9 12 -41 13 -41 2 -9 4 196 16 19 1 32 -1 29 -4z
m-3313 -14 c4 -6 -15 -10 -50 -10 -35 0 -54 4 -50 10 3 6 26 10 50 10 24 0 47
-4 50 -10z m1636 3 l94 -8 -80 -5 c-102 -7 -208 0 -180 11 26 10 54 10 166 2z
m-743 -10 c-10 -2 -26 -2 -35 0 -10 3 -2 5 17 5 19 0 27 -2 18 -5z m2189 -9
c-3 -3 -12 -4 -19 -1 -8 3 -5 6 6 6 11 1 17 -2 13 -5z m742 -21 c-1 -22 -2
-23 -6 -8 -3 11 -10 23 -17 27 -7 5 -5 8 7 8 12 0 17 -7 16 -27z m-2365 3 c-3
-8 -14 -12 -25 -9 -27 7 -24 18 6 21 17 1 23 -2 19 -12z m83 8 c-3 -3 -12 -4
-19 -1 -8 3 -5 6 6 6 11 1 17 -2 13 -5z m-500 -10 c-3 -3 -12 -4 -19 -1 -8 3
-5 6 6 6 11 1 17 -2 13 -5z m-146 -15 c17 -11 -49 -10 -136 1 -58 7 -57 7 31
8 50 0 97 -4 105 -9z m637 4 c-10 -2 -28 -2 -40 0 -13 2 -5 4 17 4 22 1 32 -1
23 -4z m-2141 -120 c-3 -10 -5 -4 -5 12 0 17 2 24 5 18 2 -7 2 -21 0 -30z m10
-75 c-3 -7 -5 -2 -5 12 0 14 2 19 5 13 2 -7 2 -19 0 -25z m40 -20 c-3 -7 -5
-2 -5 12 0 14 2 19 5 13 2 -7 2 -19 0 -25z m-485 -349 c-9 -9 -112 -16 -112
-7 0 4 12 9 28 11 41 6 93 4 84 -4z m5180 0 c-9 -9 -112 -16 -112 -7 0 4 12 9
28 11 41 6 93 4 84 -4z m453 1 c-3 -5 -11 -10 -16 -10 -6 0 -7 5 -4 10 3 6 11
10 16 10 6 0 7 -4 4 -10z m-5555 -10 c0 -5 -2 -10 -4 -10 -3 0 -8 5 -11 10 -3
6 -1 10 4 10 6 0 11 -4 11 -10z m5180 0 c0 -5 -2 -10 -4 -10 -3 0 -8 5 -11 10
-3 6 -1 10 4 10 6 0 11 -4 11 -10z m-4750 -25 c0 -8 -4 -17 -10 -20 -6 -4 -10
5 -10 20 0 15 4 24 10 20 6 -3 10 -12 10 -20z m-276 -34 c74 -1 67 -12 -11
-17 -32 -2 -73 -5 -92 -6 -19 -2 -36 2 -38 9 -4 12 26 20 62 17 11 -1 47 -3
79 -3z m5185 0 c80 -1 74 -12 -11 -17 -35 -2 -78 -5 -97 -6 -19 -2 -36 2 -38
9 -4 12 26 20 62 17 11 -1 49 -3 84 -3z m-5649 -5 c0 -11 -19 -15 -25 -6 -3 5
1 10 9 10 9 0 16 -2 16 -4z m5768 -12 c-27 -8 -48 -19 -48 -24 0 -13 -37 -13
-45 -1 -3 5 -1 12 5 16 5 3 10 1 10 -5 0 -7 13 -4 33 9 17 11 46 20 62 20 26
0 24 -2 -17 -15z m-5568 -14 c0 -17 -7 -20 -44 -20 -25 0 -48 5 -51 11 -5 7 7
8 39 4 39 -6 46 -5 46 9 0 9 2 16 5 16 3 0 5 -9 5 -20z m347 -5 c-17 -17 -43
-20 -52 -6 -3 5 -1 12 5 16 5 3 10 1 10 -5 0 -7 8 -5 22 4 26 19 36 13 15 -9z
m4836 5 c-4 -16 -14 -20 -49 -20 -23 0 -46 5 -49 11 -5 7 7 8 39 4 39 -6 46
-5 46 9 0 9 4 16 9 16 5 0 7 -9 4 -20z m448 -53 c-8 -8 -10 -2 -5 21 5 24 3
32 -7 32 -11 0 -11 2 1 10 12 8 16 3 18 -22 2 -17 -1 -35 -7 -41z m-5376 43
c17 -7 15 -9 -12 -9 -18 -1 -33 4 -33 9 0 12 17 12 45 0z m130 0 c-3 -5 -11
-10 -16 -10 -6 0 -7 5 -4 10 3 6 11 10 16 10 6 0 7 -4 4 -10z m5050 0 c17 -7
15 -9 -12 -9 -18 -1 -33 4 -33 9 0 12 17 12 45 0z m130 0 c-3 -5 -11 -10 -16
-10 -6 0 -7 5 -4 10 3 6 11 10 16 10 6 0 7 -4 4 -10z m-5530 -29 c-3 -6 -16
-11 -28 -11 -21 1 -21 1 3 15 27 14 36 13 25 -4z m5180 0 c-3 -6 -16 -11 -28
-11 -21 1 -21 1 3 15 27 14 36 13 25 -4z m-4990 -20 c-6 -5 -25 10 -25 20 0 5
6 4 14 -3 8 -7 12 -15 11 -17z m5180 0 c-6 -5 -25 10 -25 20 0 5 6 4 14 -3 8
-7 12 -15 11 -17z m-5233 -5 c15 -14 170 -18 161 -3 -6 10 9 9 26 -2 7 -5 11
-15 9 -22 -3 -8 1 -30 9 -50 19 -50 14 -115 -9 -111 -15 2 -17 -6 -15 -63 2
-35 8 -70 15 -77 14 -14 16 -32 2 -23 -6 4 -10 -6 -10 -24 0 -16 4 -32 9 -36
5 -3 8 -28 6 -55 -2 -28 0 -50 4 -50 4 0 8 -13 9 -30 1 -44 12 -55 28 -31 9
12 12 30 8 46 -3 14 -3 37 1 53 14 52 24 -6 24 -147 l1 -133 -37 6 c-24 4 -33
3 -25 -2 11 -7 10 -11 -4 -16 -10 -4 -20 -3 -22 2 -2 6 -31 8 -70 5 -75 -6
-94 -7 -172 -4 -30 1 -89 0 -130 -2 -41 -1 -88 1 -104 5 -16 4 -34 4 -40 -1
-19 -15 -69 -23 -61 -10 4 6 2 15 -5 19 -19 12 -22 131 -3 152 17 19 9 62 -10
52 -8 -5 -8 -2 1 7 14 16 16 85 2 94 -6 3 -7 17 -4 31 4 16 2 24 -7 24 -11 0
-11 2 0 9 10 7 14 30 15 81 0 70 0 71 17 48 10 -12 14 -25 10 -28 -5 -3 -7
-21 -5 -40 2 -19 4 -48 3 -65 -1 -16 -1 -43 -1 -60 1 -36 19 -137 21 -114 0 9
9 25 19 37 18 20 18 20 18 -31 -1 -43 2 -52 18 -55 15 -3 17 0 11 14 -5 11 -9
71 -9 134 l-1 115 -42 53 c-29 36 -43 64 -44 85 -1 18 -3 24 -6 15 -2 -10 -8
-18 -12 -18 -7 0 -2 121 5 129 2 2 15 0 29 -3 36 -9 42 -33 15 -61 l-22 -23
22 -12 c19 -10 22 -18 17 -55 -3 -32 -1 -45 9 -49 11 -4 14 12 14 83 0 98 -5
121 -26 121 -8 0 -14 7 -14 16 0 9 5 12 11 8 8 -5 10 1 7 20 -4 19 -1 26 11
27 9 0 53 4 99 7 45 4 82 5 82 1 0 -10 64 -8 77 3 9 7 18 7 30 -3 15 -12 16
-12 10 4 -8 20 6 22 25 3z m359 2 c6 -19 9 -141 3 -136 -4 5 -8 20 -9 35 -1
16 -5 45 -9 66 -6 25 -5 37 3 37 6 0 11 -1 12 -2z m-91 -80 c0 -19 -2 -20 -10
-8 -13 19 -13 30 0 30 6 0 10 -10 10 -22z m5180 0 c0 -19 -2 -20 -10 -8 -13
19 -13 30 0 30 6 0 10 -10 10 -22z m-770 -28 c0 -5 -7 -7 -15 -4 -8 4 -12 10
-9 15 6 11 24 2 24 -11z m-4399 -75 c-5 -28 -9 -41 -10 -30 -2 18 -3 18 -15
-4 -13 -24 -13 -24 -12 8 1 21 5 30 14 26 7 -2 12 1 11 8 -2 13 11 50 17 45 2
-2 -1 -26 -5 -53z m5178 -7 c-1 -24 -4 -34 -6 -24 -5 19 -6 18 -18 -4 -12 -22
-12 -22 -11 9 1 22 5 30 15 26 8 -3 11 0 8 9 -5 12 0 26 10 26 2 0 2 -19 2
-42z m-6002 10 c-3 -8 -6 -5 -6 6 -1 11 2 17 5 13 3 -3 4 -12 1 -19z m5218
-56 c2 -27 -1 -56 -6 -63 -10 -15 -10 -13 -11 46 -1 61 1 79 8 72 4 -3 8 -28
9 -55z m-5185 28 c0 -11 -4 -20 -9 -20 -5 0 -7 9 -4 20 3 11 7 20 9 20 2 0 4
-9 4 -20z m0 -84 c-7 -7 -10 1 -9 25 0 32 1 33 10 10 6 -16 6 -28 -1 -35z m2
-63 c4 -51 3 -73 -4 -73 -4 0 -8 9 -8 20 0 10 -8 23 -17 29 -10 5 -14 13 -10
17 4 4 14 -1 22 -12 17 -22 20 -12 5 17 -7 13 -7 19 0 19 5 0 11 -8 12 -17z
m5181 -5 c9 -45 8 -106 -3 -113 -7 -4 -10 2 -9 17 3 38 0 60 -10 54 -9 -6 -24
35 -16 43 3 2 12 -4 20 -15 17 -22 20 -12 5 17 -6 11 -7 19 -1 19 5 0 11 -10
14 -22z m-4323 -14 c0 -8 -4 -12 -10 -9 -5 3 -10 10 -10 16 0 5 5 9 10 9 6 0
10 -7 10 -16z m5177 -6 c-3 -8 -6 -5 -6 6 -1 11 2 17 5 13 3 -3 4 -12 1 -19z
m-5863 -33 c3 -8 1 -15 -4 -15 -6 0 -10 7 -10 15 0 8 2 15 4 15 2 0 6 -7 10
-15z m706 -23 c0 -1 -9 2 -20 8 -11 6 -20 15 -20 20 0 6 9 2 20 -7 11 -10 20
-19 20 -21z m4474 23 c3 -8 1 -15 -4 -15 -6 0 -10 7 -10 15 0 8 2 15 4 15 2 0
6 -7 10 -15z m-5177 -57 c-3 -7 -5 -2 -5 12 0 14 2 19 5 13 2 -7 2 -19 0 -25z
m5180 0 c-3 -7 -5 -2 -5 12 0 14 2 19 5 13 2 -7 2 -19 0 -25z m-5355 0 c-7 -7
-12 -8 -12 -2 0 14 12 26 19 19 2 -3 -1 -11 -7 -17z m862 7 c-4 -8 -8 -15 -10
-15 -2 0 -4 7 -4 15 0 8 4 15 10 15 5 0 7 -7 4 -15z m5186 11 c0 -3 -4 -8 -10
-11 -5 -3 -10 -1 -10 4 0 6 5 11 10 11 6 0 10 -2 10 -4z m-5886 -31 c3 -8 1
-15 -4 -15 -6 0 -10 7 -10 15 0 8 2 15 4 15 2 0 6 -7 10 -15z m716 -110 c-6
-28 -7 -28 -12 -7 -4 15 -11 20 -22 16 -9 -3 -16 -1 -16 5 0 7 7 14 15 17 8 4
12 10 9 15 -3 5 0 26 7 47 l13 37 6 -50 c4 -27 4 -63 0 -80z m4330 13 c0 -21
-3 -38 -7 -38 -5 0 -9 -45 -11 -101 -2 -67 1 -99 8 -94 13 8 13 -1 0 -26 -8
-15 -7 -19 5 -19 8 0 15 -4 15 -10 0 -5 -9 -10 -19 -10 -16 0 -21 9 -26 48 -3
26 -11 55 -16 65 -8 15 -6 22 8 32 16 12 16 17 6 46 -9 22 -9 37 -2 50 5 11 7
35 3 54 -3 19 -3 47 1 62 l7 28 13 -25 c8 -14 14 -42 15 -62z m-5180 -10 c0
-28 -4 -36 -14 -32 -15 6 -28 77 -19 101 9 24 32 -25 33 -69z m791 -75 c2 -29
0 -56 -4 -59 -4 -4 -7 21 -7 56 0 75 7 77 11 3z m-31 -113 c0 -5 -10 -10 -22
-10 -19 0 -20 2 -8 10 19 13 30 13 30 0z m-88 -85 c-2 -19 -6 -35 -8 -35 -2 0
-4 16 -4 35 0 19 4 35 8 35 4 0 6 -16 4 -35z m4578 -9 c0 -2 -7 -6 -15 -10 -8
-3 -15 -1 -15 4 0 6 7 10 15 10 8 0 15 -2 15 -4z m-63 -22 c-3 -3 -12 -4 -19
-1 -8 3 -5 6 6 6 11 1 17 -2 13 -5z m100 -36 c-3 -8 -6 -5 -6 6 -1 11 2 17 5
13 3 -3 4 -12 1 -19z m-4611 -281 c2 -95 4 -232 5 -305 1 -73 -2 -137 -7 -142
-6 -6 -10 56 -10 163 0 132 -4 190 -19 250 -14 59 -15 82 -7 100 9 19 11 16
12 -28 1 -27 5 -59 10 -70 5 -12 6 29 3 100 -3 66 -2 116 3 112 4 -4 9 -85 10
-180z m4611 131 c-3 -8 -6 -5 -6 6 -1 11 2 17 5 13 3 -3 4 -12 1 -19z m-4438
-433 c0 -60 -3 -115 -7 -121 -4 -7 -7 65 -8 160 -1 112 2 154 7 121 4 -27 8
-99 8 -160z m-192 -37 c-3 -8 -6 -5 -6 6 -1 11 2 17 5 13 3 -3 4 -12 1 -19z
m263 -92 c0 -2 -9 -6 -20 -9 -11 -3 -20 -1 -20 4 0 5 9 9 20 9 11 0 20 -2 20
-4z m760 -10 c0 -18 -32 -26 -105 -25 -33 1 -52 3 -42 6 9 2 17 8 17 13 0 8
23 12 108 18 13 1 22 -4 22 -12z m468 7 c-16 -2 -40 -2 -55 0 -16 2 -3 4 27 4
30 0 43 -2 28 -4z m118 -2 c-18 -7 -66 -3 -66 5 0 2 19 4 43 3 30 0 36 -3 23
-8z m671 3 c-3 -3 -12 -4 -19 -1 -8 3 -5 6 6 6 11 1 17 -2 13 -5z m443 -4 c0
-12 -27 -12 -55 0 -16 7 -13 9 18 9 20 1 37 -3 37 -9z m-859 -11 c9 -5 20 -5
24 -1 3 4 32 7 62 8 63 1 43 -14 -22 -16 -49 -2 -38 -6 38 -15 32 -4 57 -9 54
-11 -2 -3 -58 1 -123 7 -90 9 -119 9 -122 0 -3 -9 -7 -9 -18 0 -15 12 -224 7
-271 -7 -14 -4 -23 -2 -23 4 0 17 77 34 123 27 23 -4 53 -2 67 3 31 12 189 13
211 1z m986 5 c-3 -3 -12 -4 -19 -1 -8 3 -5 6 6 6 11 1 17 -2 13 -5z m490 -8
c12 -12 -32 -19 -66 -10 -20 5 -65 6 -100 2 -35 -4 -69 -4 -75 0 -6 4 23 9 64
12 86 6 170 4 177 -4z m-1139 -11 c12 -12 -8 -15 -47 -9 -30 5 -39 10 -29 16
12 8 66 3 76 -7z m1568 -3 c-21 -2 -42 0 -47 5 -4 4 13 6 39 3 l47 -5 -39 -3z
m-1433 1 c-13 -2 -35 -2 -50 0 -16 2 -5 4 22 4 28 0 40 -2 28 -4z m342 -3 c-3
-5 -17 -10 -31 -10 -14 0 -22 4 -19 10 3 6 17 10 31 10 14 0 22 -4 19 -10z
m-1915 -30 c0 -16 -4 -30 -10 -30 -5 0 -10 14 -10 30 0 17 5 30 10 30 6 0 10
-13 10 -30z m1780 -20 c-8 -5 -26 -9 -40 -9 l-25 1 25 8 c14 4 32 8 40 9 13 1
13 0 0 -9z m-132 -7 c-21 -2 -55 -2 -75 0 -21 2 -4 4 37 4 41 0 58 -2 38 -4z
m375 0 c-13 -2 -35 -2 -50 0 -16 2 -5 4 22 4 28 0 40 -2 28 -4z m450 0 c-13
-2 -35 -2 -50 0 -16 2 -5 4 22 4 28 0 40 -2 28 -4z m70 0 c-7 -2 -19 -2 -25 0
-7 3 -2 5 12 5 14 0 19 -2 13 -5z m-1958 -38 c30 -13 29 -13 -29 -14 -55 -1
-58 0 -40 14 23 18 31 18 69 0z m265 0 c39 -4 51 -3 40 4 -12 9 -10 11 12 11
15 0 30 -4 33 -10 3 -5 21 -10 38 -9 27 0 29 2 12 9 -17 7 -16 9 10 9 17 0 36
-3 44 -8 19 -12 -49 -19 -209 -20 -104 -1 -141 2 -160 14 -23 14 -20 15 50 11
41 -3 100 -8 130 -11z m793 8 c-13 -2 -33 -2 -45 0 -13 2 -3 4 22 4 25 0 35
-2 23 -4z m351 -4 c69 2 25 -16 -53 -22 -48 -3 -68 -1 -60 5 9 6 0 8 -28 4
-23 -3 -44 -2 -48 3 -7 13 38 18 100 13 28 -2 68 -4 89 -3z m358 4 c-30 -2
-50 -8 -47 -14 7 -11 -75 -12 -166 -2 -93 10 -37 18 131 19 74 0 111 -1 82 -3z
m148 -3 c12 0 13 -2 1 -9 -19 -12 -93 -12 -86 0 4 5 11 7 16 4 5 -4 9 -1 9 6
0 7 9 9 23 5 12 -3 29 -6 37 -6z m197 4 c-3 -3 -12 -4 -19 -1 -8 3 -5 6 6 6
11 1 17 -2 13 -5z m-1390 -20 c-3 -3 -12 -4 -19 -1 -8 3 -5 6 6 6 11 1 17 -2
13 -5z m-115 -11 c-16 -3 -22 -9 -18 -20 5 -11 2 -13 -10 -9 -8 3 -54 6 -101
6 -48 0 -84 2 -81 5 7 7 142 22 193 22 22 0 30 -2 17 -4z m535 1 c-3 -3 -12
-4 -19 -1 -8 3 -5 6 6 6 11 1 17 -2 13 -5z m-221 -19 c-11 -8 -15 -15 -9 -15
6 0 26 -3 44 -6 27 -5 31 -3 19 6 -12 9 1 10 58 6 41 -3 79 -9 85 -13 13 -9
359 -6 572 4 72 3 157 5 190 4 232 -6 352 -6 362 2 7 5 35 6 63 2 34 -5 50 -3
50 4 0 6 7 11 15 11 18 0 20 -16 3 -24 -7 -4 1 -4 19 -1 18 2 34 1 37 -3 2 -4
7 -53 11 -109 l8 -103 -37 0 -36 0 1 -131 c1 -149 4 -166 27 -147 13 11 14 9
7 -17 -5 -16 -8 -43 -7 -60 0 -16 -1 -37 -4 -45 -4 -13 -6 -13 -14 0 -7 10 -9
-1 -8 -35 1 -27 5 -55 10 -61 5 -7 3 -18 -6 -27 -12 -12 -13 -22 -6 -44 6 -16
9 -38 8 -48 -2 -19 5 -86 19 -185 l7 -45 6 40 6 40 4 -47 c3 -25 3 -45 0 -43
-3 2 -6 -48 -5 -111 0 -63 -4 -114 -9 -114 -5 0 -6 34 -3 78 4 50 1 100 -8
142 -8 36 -15 90 -16 120 -1 51 -2 53 -9 20 -5 -19 -6 -73 -4 -120 3 -47 4
-96 3 -110 -3 -61 -1 -99 8 -147 5 -29 6 -50 1 -47 -9 6 -9 -9 -8 -567 0 -218
4 -418 8 -445 4 -27 6 -91 4 -141 -3 -78 -7 -93 -20 -94 -13 0 -13 -2 3 -9 36
-15 -8 -11 -55 6 -26 9 -82 17 -132 18 -77 1 -89 -1 -110 -21 -17 -16 -35 -22
-59 -21 l-34 1 33 4 c31 4 41 16 23 27 -13 9 -103 10 -131 2 -19 -6 -21 -5
-10 3 11 8 1 10 -40 10 -44 -1 -50 -3 -30 -10 17 -5 4 -7 -40 -4 -302 21 -396
22 -448 9 -62 -16 -112 -18 -112 -4 0 13 -337 6 -370 -8 -20 -9 -21 -11 -6
-11 11 -1 17 -4 14 -7 -4 -3 -28 2 -55 11 -28 10 -84 18 -135 18 -77 2 -89 0
-110 -20 -17 -16 -35 -22 -59 -21 l-34 1 33 4 c31 4 41 16 23 27 -13 9 -103
10 -131 2 -19 -6 -21 -5 -10 3 11 8 1 10 -40 10 -44 -1 -50 -3 -30 -10 17 -5
3 -7 -40 -3 -267 18 -397 21 -440 8 -54 -17 -106 -18 -116 -3 -3 6 -20 8 -38
5 -35 -6 -49 0 -60 29 -6 16 -9 17 -16 5 -6 -10 -9 2 -9 35 0 28 -3 82 -8 120
-5 39 -6 72 -1 73 4 2 8 19 8 38 0 25 -4 34 -17 34 -13 0 -14 3 -5 12 7 7 12
35 13 62 1 41 3 46 9 26 4 -14 9 -90 9 -170 1 -80 5 -151 10 -158 17 -28 20
21 13 211 -4 119 -9 175 -13 147 -5 -38 -7 -40 -9 -15 -4 40 -1 68 8 75 4 3 8
68 9 145 0 77 4 190 7 250 5 88 2 129 -14 204 -10 52 -17 99 -13 104 5 8 7
106 14 687 3 194 2 207 -19 247 -12 23 -22 53 -21 65 1 22 1 22 8 -2 l7 -25
12 22 c15 26 16 153 2 153 -5 0 -10 9 -10 21 0 11 -5 17 -10 14 -7 -4 -8 15
-4 54 3 40 1 61 -5 61 -6 0 -11 -5 -11 -12 0 -6 -3 -8 -6 -5 -11 11 18 67 35
68 9 1 37 1 64 0 27 -1 47 2 47 9 0 6 22 9 53 9 48 -2 49 -2 17 -9 -19 -3 62
-5 180 -2 394 8 720 7 720 -2 0 -9 133 0 190 14 30 7 31 8 10 10 -21 2 -19 4
10 10 53 11 57 11 36 -5z m300 6 c-3 -5 16 -6 42 -4 35 3 43 2 32 -6 -17 -12
-79 -15 -105 -5 -13 5 -14 8 -3 15 17 11 41 11 34 0z m-1891 -8 c-11 -3 -22
-9 -25 -14 -8 -12 -403 -21 -495 -10 -79 8 -79 8 -25 11 55 3 464 16 530 17
19 0 26 -2 15 -4z m1315 -3 c12 -8 9 -10 -13 -10 -16 0 -26 4 -22 10 8 12 16
12 35 0z m104 -5 c6 -18 2 -18 -44 0 l-35 13 36 1 c24 1 39 -4 43 -14z m1723
-7 c-3 -8 -6 -5 -6 6 -1 11 2 17 5 13 3 -3 4 -12 1 -19z m32 -125 c1 -24 -3
-43 -7 -43 -5 0 -9 6 -9 13 -1 6 -2 31 -4 55 -1 24 -6 45 -11 48 -4 3 -8 13
-8 22 0 15 2 15 10 2 7 -11 10 -7 11 20 1 27 3 23 9 -20 5 -30 8 -74 9 -97z
m-3149 117 c0 -5 -4 -10 -10 -10 -5 0 -10 5 -10 10 0 6 5 10 10 10 6 0 10 -4
10 -10z m60 0 c0 -5 -2 -10 -4 -10 -3 0 -8 5 -11 10 -3 6 -1 10 4 10 6 0 11
-4 11 -10z m97 -67 c-3 -10 -5 -4 -5 12 0 17 2 24 5 18 2 -7 2 -21 0 -30z
m-91 -8 c3 -14 3 -37 -1 -52 -7 -26 -8 -26 -15 -8 -12 28 -12 85 0 85 5 0 12
-11 16 -25z m101 -47 c-3 -8 -6 -5 -6 6 -1 11 2 17 5 13 3 -3 4 -12 1 -19z
m40 -30 c-3 -7 -5 -2 -5 12 0 14 2 19 5 13 2 -7 2 -19 0 -25z m-170 -10 c-3
-8 -6 -5 -6 6 -1 11 2 17 5 13 3 -3 4 -12 1 -19z m4190 -54 c-3 -3 -12 -4 -19
-1 -8 3 -5 6 6 6 11 1 17 -2 13 -5z m-4644 -11 c-7 -2 -19 -2 -25 0 -7 3 -2 5
12 5 14 0 19 -2 13 -5z m3671 -2 c3 -5 -1 -11 -9 -15 -9 -3 -15 0 -15 9 0 16
16 20 24 6z m419 2 c-7 -2 -19 -2 -25 0 -7 3 -2 5 12 5 14 0 19 -2 13 -5z
m-3907 -14 c3 -6 11 -5 20 1 7 7 19 10 26 7 8 -3 1 -9 -15 -16 -31 -12 -138
-15 -177 -4 l-25 7 25 6 c38 10 139 9 146 -1z m481 -21 c-3 -7 -5 -2 -5 12 0
14 2 19 5 13 2 -7 2 -19 0 -25z m3604 21 c9 -5 20 -4 27 3 5 5 16 8 24 5 34
-13 -55 -28 -152 -27 -58 2 -121 -1 -140 -5 -28 -6 -33 -5 -23 5 21 22 229 37
264 19z m-4285 -14 c-32 -17 -66 -20 -66 -6 0 11 23 18 65 20 l30 1 -29 -15z
m429 5 c4 -6 -5 -10 -19 -10 -14 0 -26 5 -26 10 0 6 9 10 19 10 11 0 23 -4 26
-10z m3088 3 c-9 -3 -13 -29 -13 -78 0 -41 -4 -77 -10 -80 -13 -8 -13 -35 -1
-35 5 0 12 8 14 18 3 9 5 -3 6 -27 l1 -44 -21 24 c-16 18 -19 32 -15 59 3 19
9 65 12 103 5 53 10 67 23 66 10 0 12 -2 4 -6z m997 -3 c12 -8 9 -10 -12 -10
-16 0 -28 5 -28 10 0 13 20 13 40 0z m257 -22 c-3 -7 -5 -2 -5 12 0 14 2 19 5
13 2 -7 2 -19 0 -25z m-410 6 c-3 -3 -12 -4 -19 -1 -8 3 -5 6 6 6 11 1 17 -2
13 -5z m-4790 -50 c-3 -3 -12 -4 -19 -1 -8 3 -5 6 6 6 11 1 17 -2 13 -5z m827
-3 c4 -5 -3 -7 -14 -4 -23 6 -26 13 -6 13 8 0 17 -4 20 -9z m4091 -1 c8 -13
-5 -13 -25 0 -13 8 -13 10 2 10 9 0 20 -4 23 -10z m197 -42 c3 -29 2 -57 0
-62 -3 -5 -5 -50 -4 -100 0 -75 -1 -83 -8 -46 -4 25 -6 56 -3 70 2 14 -2 54
-9 90 l-14 65 -64 5 c-38 3 -60 8 -53 13 7 4 30 5 50 2 28 -5 34 -4 23 4 -11
8 -4 11 32 11 l46 0 4 -52z m-5042 38 c0 -9 -40 -13 -46 -5 -3 5 6 9 20 9 14
0 26 -2 26 -4z m517 -21 c-11 -10 -35 -15 -78 -15 -34 0 -60 3 -57 6 3 3 24 5
47 6 23 0 41 4 41 9 0 7 50 18 59 12 2 -1 -4 -9 -12 -18z m412 -13 c-2 -24 -2
-24 -6 -4 -4 20 -10 22 -64 22 -33 0 -58 3 -56 8 3 4 32 5 66 4 59 -4 61 -5
60 -30z m3144 31 c-7 -2 -19 -2 -25 0 -7 3 -2 5 12 5 14 0 19 -2 13 -5z m531
-18 c-5 -11 -22 -15 -73 -14 -47 1 -59 3 -41 9 14 4 35 5 48 3 12 -3 22 0 22
6 0 6 11 11 25 11 18 0 23 -4 19 -15z m-4397 -10 c0 -10 -10 -15 -28 -15 -21
0 -27 4 -23 15 4 8 16 15 28 15 14 0 23 -6 23 -15z m149 0 c14 -13 11 -15 -28
-15 -24 0 -52 7 -62 15 -18 14 -16 15 28 15 29 0 53 -6 62 -15z m3941 0 c0
-10 -11 -15 -35 -15 -29 0 -33 2 -22 15 7 8 22 15 35 15 13 0 22 -6 22 -15z
m149 0 c14 -13 11 -15 -28 -15 -24 1 -54 7 -68 15 -24 14 -23 14 28 15 35 0
59 -5 68 -15z m-3719 -1 c-3 -3 -12 -4 -19 -1 -8 3 -5 6 6 6 11 1 17 -2 13 -5z
m4090 0 c-3 -3 -12 -4 -19 -1 -8 3 -5 6 6 6 11 1 17 -2 13 -5z m-4199 -21
c-10 -2 -18 -9 -18 -14 0 -11 -55 -12 -90 -1 -22 6 -19 8 20 13 54 7 112 9 88
2z m4090 0 c-10 -2 -18 -9 -18 -14 0 -11 -54 -12 -90 -2 l-25 7 24 5 c29 7
133 11 109 4z m-3863 -17 c15 -11 17 -17 8 -27 -8 -10 -10 -56 -7 -144 2 -71
4 -154 4 -183 -1 -29 4 -77 9 -108 8 -44 8 -60 -3 -77 -12 -18 -13 -44 -6
-134 5 -61 6 -121 3 -132 -3 -12 -1 -21 6 -21 6 0 11 -7 11 -16 0 -8 -5 -12
-11 -8 -8 5 -9 -20 -5 -87 13 -204 18 -362 11 -397 -8 -35 -8 -36 -15 -12 -7
20 -8 17 -9 -20 -1 -25 -3 -98 -5 -162 -3 -88 0 -122 10 -135 7 -10 13 -34 13
-53 0 -29 -2 -31 -9 -15 -6 13 -9 -7 -9 -62 -1 -50 3 -84 10 -89 7 -4 9 -24 6
-55 -3 -26 -1 -64 4 -84 7 -25 7 -46 -2 -72 -8 -27 -8 -37 0 -43 7 -3 11 -24
9 -46 -1 -21 2 -70 7 -109 6 -55 10 -65 16 -45 5 20 7 15 8 -22 1 -44 -12 -65
-22 -35 -4 13 -1 -16 8 -81 4 -24 9 -42 10 -40 9 9 27 189 20 205 -9 25 -17
222 -9 256 16 75 23 -19 25 -373 l3 -385 -84 1 c-59 1 -74 -1 -50 -6 19 -4 28
-8 19 -9 -9 0 -38 -4 -64 -8 -37 -5 -46 -3 -40 6 5 9 2 12 -11 8 -11 -3 -41
-8 -69 -12 -38 -4 -46 -3 -35 5 11 9 -3 9 -55 4 -78 -8 -643 -12 -655 -4 -13
9 -22 241 -12 333 7 68 6 99 -4 134 -8 25 -12 49 -9 53 3 4 1 28 -4 54 -4 25
-5 43 -1 41 17 -10 32 25 25 57 -15 64 -13 440 2 482 7 21 13 65 13 98 0 55
-1 59 -17 47 -15 -13 -16 -12 -7 6 8 18 10 132 4 310 -1 33 -7 66 -12 73 -8 9
-8 16 0 24 7 7 12 31 12 55 0 25 5 43 11 43 7 0 8 7 4 18 -4 9 -9 76 -10 147
-1 88 1 120 7 100 5 -16 13 -44 18 -61 13 -39 13 -57 0 -49 -7 4 -7 -3 0 -19
6 -17 6 -26 0 -26 -6 0 -9 -31 -8 -79 2 -43 6 -74 9 -69 4 6 9 -5 11 -23 3
-19 1 -37 -5 -40 -9 -7 -1 -458 9 -468 4 -4 8 63 7 109 -1 14 1 19 4 12 2 -6
8 -10 13 -7 8 5 18 -102 17 -182 -1 -46 9 -65 23 -43 9 14 8 86 -2 95 -3 3 -4
37 -2 74 3 63 2 69 -17 74 -13 4 -18 10 -14 17 6 9 10 9 16 -1 7 -11 9 -9 9 6
0 11 3 103 6 205 l5 186 -41 129 c-29 91 -44 158 -49 225 -6 65 -9 79 -10 45
-1 -30 -5 -44 -9 -35 -4 8 -5 91 -2 183 l5 168 34 -34 c30 -32 33 -39 28 -84
-3 -26 -11 -69 -18 -96 -11 -42 -11 -49 4 -60 14 -9 17 -29 18 -88 0 -41 -2
-95 -6 -120 -5 -35 -3 -48 9 -58 14 -12 16 -10 16 10 0 13 2 119 5 236 3 131
1 215 -5 218 -6 3 -10 17 -10 30 0 12 -7 25 -15 29 -10 4 -15 19 -15 49 0 25
-7 61 -15 80 -8 20 -15 42 -14 49 0 10 2 10 6 0 2 -6 9 -10 14 -6 5 3 9 -8 9
-24 0 -16 6 -34 13 -40 9 -8 12 4 14 54 1 39 -2 64 -9 64 -6 0 -8 10 -4 24 6
26 -8 46 -17 24 -3 -7 -6 -3 -6 10 -1 13 3 20 9 17 6 -3 10 -1 10 6 0 7 11 10
30 7 16 -2 31 0 33 6 2 5 11 6 23 2 10 -5 53 -8 94 -7 41 0 209 2 373 3 272 3
299 5 308 21 12 21 19 21 44 3z m-130 -6 c4 -6 -11 -7 -42 -3 -63 8 -67 13
-10 13 25 0 49 -4 52 -10z m4090 -1 c5 -7 -8 -8 -41 -3 -64 9 -68 14 -11 14
25 0 49 -5 52 -11z m-841 -34 c3 -8 1 -15 -4 -15 -6 0 -10 7 -10 15 0 8 2 15
4 15 2 0 6 -7 10 -15z m-3087 -29 c-7 -14 -13 -23 -15 -21 -7 6 9 45 18 45 4
0 3 -11 -3 -24z m37 -72 l-8 -69 -6 49 c-8 60 -1 111 12 98 6 -6 7 -36 2 -78z
m4048 59 c-2 -12 -8 -20 -13 -17 -14 8 -11 41 4 41 9 0 12 -9 9 -24z m46 1 c4
2 3 -25 -2 -60 -6 -35 -13 -61 -17 -56 -10 10 -16 101 -6 95 4 -2 8 8 8 24 1
17 3 21 6 10 2 -9 8 -15 11 -13z m89 -36 c-3 -8 -6 -5 -6 6 -1 11 2 17 5 13 3
-3 4 -12 1 -19z m30 -25 c-3 -10 -5 -4 -5 12 0 17 2 24 5 18 2 -7 2 -21 0 -30z
m-10 -95 c-3 -8 -6 -5 -6 6 -1 11 2 17 5 13 3 -3 4 -12 1 -19z m-87 -17 c0
-16 -7 -36 -15 -45 -14 -14 -14 -23 5 -94 19 -75 22 -173 7 -189 -4 -3 -7 16
-7 43 -1 48 -1 48 -15 24 l-14 -25 -1 33 c0 23 4 31 12 26 8 -5 9 0 4 17 -11
39 -18 227 -7 204 8 -19 9 -18 16 8 9 35 15 34 15 -2z m-4093 -18 c-2 -24 -9
-37 -16 -35 -8 1 -10 -4 -7 -15 14 -45 25 -158 16 -167 -6 -6 -10 -18 -10 -29
0 -10 -4 -15 -10 -12 -13 8 -13 68 0 81 6 6 6 22 0 44 -6 19 -10 61 -10 94 0
51 2 57 15 46 13 -10 15 -9 15 9 0 11 3 21 6 21 3 0 4 -17 1 -37z m-1158 -133
l0 -25 -14 27 c-8 15 -12 34 -8 44 6 16 7 16 14 -2 4 -10 8 -30 8 -44z m4072
51 c6 10 9 4 9 -18 0 -18 -4 -33 -10 -33 -5 0 -10 6 -10 14 0 8 -2 20 -3 28
-2 7 -2 9 1 4 2 -4 8 -2 13 5z m-2824 -33 c-3 -8 -6 -5 -6 6 -1 11 2 17 5 13
3 -3 4 -12 1 -19z m-1160 -85 c-2 -16 -4 -3 -4 27 0 30 2 43 4 28 2 -16 2 -40
0 -55z m5241 -87 c-4 -6 -7 26 -6 70 l1 79 7 -70 c3 -38 3 -74 -2 -79z m-4091
7 c-2 -16 -4 -5 -4 22 0 28 2 40 4 28 2 -13 2 -35 0 -50z m3020 45 c-3 -8 -6
-5 -6 6 -1 11 2 17 5 13 3 -3 4 -12 1 -19z m-4295 -68 c2 -22 0 -40 -4 -40 -5
0 -8 18 -8 40 0 22 2 40 4 40 2 0 6 -18 8 -40z m4105 8 c-3 -8 -6 -5 -6 6 -1
11 2 17 5 13 3 -3 4 -12 1 -19z m100 -10 c-3 -7 -5 -2 -5 12 0 14 2 19 5 13 2
-7 2 -19 0 -25z m-4171 -92 c-8 -51 -24 -63 -22 -16 1 16 4 30 9 30 4 0 4 12
1 28 -5 21 -4 25 6 15 9 -8 10 -26 6 -57z m1151 12 c-3 -7 -5 -2 -5 12 0 14 2
19 5 13 2 -7 2 -19 0 -25z m3045 7 c3 -14 1 -25 -3 -25 -5 0 -9 11 -9 25 0 14
2 25 4 25 2 0 6 -11 8 -25z m1058 -75 c0 -49 -4 -91 -8 -94 -5 -3 -8 39 -8 94
1 54 4 96 8 93 5 -2 8 -44 8 -93z m67 58 c-3 -7 -5 -2 -5 12 0 14 2 19 5 13 2
-7 2 -19 0 -25z m-4078 -23 c5 -5 4 -21 0 -35 -8 -28 -10 -23 -14 40 -1 25 0
36 2 25 3 -11 8 -24 12 -30z m-1241 -135 c0 -19 -3 -44 -8 -55 -6 -13 -8 7 -8
60 0 55 3 72 8 55 4 -14 8 -41 8 -60z m1149 18 c-3 -7 -5 -2 -5 12 0 14 2 19
5 13 2 -7 2 -19 0 -25z m-4 -221 c2 -37 2 -65 -1 -62 -10 10 -29 95 -20 89 4
-3 8 7 8 22 0 49 7 21 13 -49z m2939 16 c5 -160 4 -298 -2 -326 l-8 -32 -1 33
c-1 18 -6 43 -12 55 -9 16 -9 22 0 25 6 2 11 25 11 53 0 31 -4 48 -10 44 -5
-3 -10 2 -10 13 0 11 -3 40 -6 66 -5 30 -3 46 4 46 6 0 13 -12 15 -27 2 -16 2
0 -1 35 -3 42 -1 62 7 62 6 0 12 -20 13 -47z m-4085 -61 c1 -53 2 -128 4 -165
1 -41 -3 -73 -10 -80 -8 -8 -11 -6 -11 10 0 12 -3 30 -6 40 -5 15 -4 15 5 3 9
-12 11 -9 11 15 0 48 -20 155 -32 174 -7 11 -8 26 -3 37 7 16 9 12 15 -19 12
-65 21 -54 14 16 -4 37 -3 67 2 67 5 0 10 -44 11 -98z m5235 30 c3 -59 -5 -67
-21 -21 -14 40 -14 42 2 32 6 -4 4 6 -7 21 -10 16 -13 25 -7 22 6 -4 11 -2 11
5 0 8 3 9 9 4 5 -6 11 -34 13 -63z m75 -64 c-3 -8 -6 -5 -6 6 -1 11 2 17 5 13
3 -3 4 -12 1 -19z m-1052 -140 c4 -88 3 -90 -5 -28 -21 151 -21 156 -10 138 6
-10 13 -59 15 -110z m-4086 -10 c1 -43 -2 -78 -6 -78 -5 0 -8 46 -9 103 -1 59
2 92 6 77 5 -14 8 -60 9 -102z m5070 -143 c-7 -31 -12 -19 -10 25 1 23 0 23
-8 5 -5 -11 -10 -15 -11 -10 -7 58 -7 95 0 95 5 0 11 -6 14 -12 4 -7 4 2 1 19
-2 18 -1 41 3 50 9 24 19 -133 11 -172z m-4089 74 c0 -51 -4 -88 -9 -85 -5 3
-7 16 -3 28 3 14 2 19 -6 14 -9 -5 -12 7 -12 41 0 36 3 44 11 33 8 -12 10 -8
8 15 -1 37 0 45 6 45 3 0 5 -41 5 -91z m3101 -49 c5 0 9 -8 9 -17 0 -15 -2
-15 -9 -4 -7 11 -10 7 -14 -15 -2 -16 -4 3 -4 41 0 39 2 53 4 33 2 -21 8 -38
14 -38z m-4081 -10 c0 -5 -4 -10 -10 -10 -5 0 -10 5 -10 10 0 6 5 10 10 10 6
0 10 -4 10 -10z m960 -50 c0 -13 -1 -13 -10 0 -5 8 -10 22 -10 30 0 13 1 13
10 0 5 -8 10 -22 10 -30z m117 18 c-3 -8 -6 -5 -6 6 -1 11 2 17 5 13 3 -3 4
-12 1 -19z m2851 -63 c6 -38 11 -110 10 -159 -1 -75 -3 -86 -14 -72 -7 10 -15
39 -19 65 -8 56 -3 253 6 243 3 -4 11 -38 17 -77z m1109 53 c-3 -7 -5 -2 -5
12 0 14 2 19 5 13 2 -7 2 -19 0 -25z m-5189 -198 c0 -58 -2 -97 -5 -87 -2 9
-8 15 -12 12 -10 -6 -21 216 -13 263 6 37 6 37 18 -23 7 -33 13 -107 12 -165z
m139 188 c-3 -8 -6 -5 -6 6 -1 11 2 17 5 13 3 -3 4 -12 1 -19z m4122 -10 c0
-27 -2 -29 -8 -13 -5 11 -6 26 -4 33 8 21 13 13 12 -20z m-3052 -260 c-3 -7
-5 -2 -5 12 0 14 2 19 5 13 2 -7 2 -19 0 -25z m2860 -149 c-5 -146 0 -222 14
-213 5 3 9 -7 9 -21 0 -15 -4 -24 -10 -20 -6 4 -10 -12 -10 -39 0 -25 -4 -46
-10 -46 -6 0 -10 46 -10 118 -1 87 -4 122 -15 136 -19 25 -19 47 -1 40 19 -7
26 17 16 61 -11 47 -1 137 13 128 6 -4 8 -56 4 -144z m1222 69 c-1 -37 -2 -39
-9 -18 -12 36 -12 60 0 60 6 0 10 -19 9 -42z m-4102 -90 c-3 -8 -6 -5 -6 6 -1
11 2 17 5 13 3 -3 4 -12 1 -19z m23 -37 c0 -6 -4 -13 -10 -16 -5 -3 -10 1 -10
9 0 9 5 16 10 16 6 0 10 -4 10 -9z m-92 -71 c0 -9 -3 -7 -8 5 -5 11 -8 29 -8
40 0 16 2 15 8 -5 4 -14 8 -32 8 -40z m4079 28 c-3 -7 -5 -2 -5 12 0 14 2 19
5 13 2 -7 2 -19 0 -25z m-3996 -71 c-8 -8 -11 0 -10 29 1 39 1 39 11 11 7 -21
7 -32 -1 -40z m4090 26 c-4 -28 -6 -32 -9 -15 -3 22 3 52 11 52 1 0 1 -17 -2
-37z m-4090 -176 c-11 -11 -11 -2 0 48 1 6 4 -1 6 -14 3 -13 0 -28 -6 -34z
m2836 -19 c-3 -7 -5 -2 -5 12 0 14 2 19 5 13 2 -7 2 -19 0 -25z m-2828 -27
c-15 -5 -22 6 -14 19 6 9 10 9 16 -1 5 -8 4 -15 -2 -18z m324 22 c-7 -2 -19
-2 -25 0 -7 3 -2 5 12 5 14 0 19 -2 13 -5z m767 -9 c0 -2 -9 -4 -20 -4 -11 0
-20 4 -20 9 0 5 9 7 20 4 11 -3 20 -7 20 -9z m743 9 c-7 -2 -19 -2 -25 0 -7 3
-2 5 12 5 14 0 19 -2 13 -5z m767 -9 c0 -2 -9 -4 -20 -4 -11 0 -20 4 -20 9 0
5 9 7 20 4 11 -3 20 -7 20 -9z m-2216 -5 c-5 -9 1 -10 22 -5 47 11 107 13 133
4 14 -5 27 -5 30 0 3 5 15 6 26 1 19 -7 19 -8 -2 -8 -12 -1 -23 -5 -25 -10 -4
-11 -88 -21 -88 -10 0 5 -28 9 -62 8 -45 0 -57 -3 -43 -9 16 -7 11 -9 -22 -9
-23 -1 -44 3 -47 8 -5 7 43 30 82 40 2 1 0 -4 -4 -10z m493 5 c-3 -3 -12 -4
-19 -1 -8 3 -5 6 6 6 11 1 17 -2 13 -5z m1017 -5 c-5 -9 1 -10 22 -5 44 10
135 13 140 4 3 -4 17 -6 32 -4 15 2 20 1 12 -1 -8 -3 -17 -9 -20 -13 -8 -11
-90 -19 -90 -9 0 5 -26 9 -57 9 -41 0 -54 -3 -43 -10 11 -7 2 -10 -32 -10 -58
0 -61 12 -10 33 46 19 55 20 46 6z m493 5 c-3 -3 -12 -4 -19 -1 -8 3 -5 6 6 6
11 1 17 -2 13 -5z m-1627 -25 c0 -12 -37 -12 -44 0 -7 11 14 20 32 13 6 -2 12
-8 12 -13z m710 11 c-8 -5 -44 -9 -80 -8 l-65 1 55 7 c91 11 107 11 90 0z
m717 4 c-3 -3 -12 -4 -19 -1 -8 3 -5 6 6 6 11 1 17 -2 13 -5z m83 -15 c0 -11
-21 -12 -46 -2 -16 6 -16 7 2 13 22 8 44 2 44 -11z m-1210 1 c0 -5 -9 -10 -21
-10 -11 0 -17 5 -14 10 3 6 13 10 21 10 8 0 14 -4 14 -10z m1510 0 c0 -5 -9
-10 -21 -10 -11 0 -17 5 -14 10 3 6 13 10 21 10 8 0 14 -4 14 -10z m-1927 -17
c-7 -2 -19 -2 -25 0 -7 3 -2 5 12 5 14 0 19 -2 13 -5z m1510 0 c-7 -2 -19 -2
-25 0 -7 3 -2 5 12 5 14 0 19 -2 13 -5z m-1250 -40 c-7 -2 -21 -2 -30 0 -10 3
-4 5 12 5 17 0 24 -2 18 -5z m67 -3 c-20 -13 -53 -13 -45 0 3 6 18 10 33 10
21 0 24 -2 12 -10z m108 3 c-10 -2 -28 -2 -40 0 -13 2 -5 4 17 4 22 1 32 -1
23 -4z m1782 -18 c0 -8 -4 -15 -10 -15 -5 0 -10 7 -10 15 0 8 5 15 10 15 6 0
10 -7 10 -15z m-2340 -9 c0 -8 -6 -16 -13 -19 -24 -9 -216 -7 -221 2 -9 14 40
22 69 11 34 -13 78 -13 70 0 -3 6 -2 10 4 10 5 0 13 -4 16 -10 3 -5 16 -10 28
-9 12 0 16 3 10 6 -22 8 -14 23 12 23 15 0 25 -6 25 -14z m2284 -10 c-5 -12
-19 -16 -58 -16 -62 0 -91 14 -50 24 15 4 30 3 33 -2 4 -6 20 -5 41 2 41 14
42 14 34 -8z m-1971 7 c-7 -2 -19 -2 -25 0 -7 3 -2 5 12 5 14 0 19 -2 13 -5z
m65 0 c-10 -2 -26 -2 -35 0 -10 3 -2 5 17 5 19 0 27 -2 18 -5z m322 -2 c0 -6
12 -6 32 0 41 11 38 12 38 -6 0 -11 -12 -15 -49 -15 -27 0 -57 3 -67 7 -16 6
-16 7 2 14 27 11 44 11 44 0z m127 3 c-3 -3 -12 -4 -19 -1 -8 3 -5 6 6 6 11 1
17 -2 13 -5z m558 -10 c30 -4 36 -3 25 5 -13 9 -13 11 2 11 9 0 20 -4 23 -10
3 -5 16 -10 28 -10 18 0 19 2 7 10 -12 8 -9 10 13 10 30 0 37 -16 10 -24 -25
-7 -205 -6 -217 1 -14 9 26 23 49 17 11 -3 38 -7 60 -10z m493 9 c-15 -2 -42
-2 -60 0 -18 2 -6 4 27 4 33 0 48 -2 33 -4z m-2163 -13 c4 -6 -9 -10 -32 -10
-28 0 -34 3 -23 10 20 13 47 13 55 0z m850 3 l40 -7 -44 -6 c-49 -7 -91 -2
-91 11 0 11 40 11 95 2z m660 -3 c4 -6 -9 -10 -32 -10 -28 0 -34 3 -23 10 20
13 47 13 55 0z m850 3 l40 -7 -44 -6 c-49 -7 -91 -2 -91 11 0 11 40 11 95 2z
m-1998 -30 c-1 -15 -9 -18 -60 -15 -67 4 -70 10 -7 17 23 2 45 6 48 9 11 12
21 6 19 -11z m1511 5 c-3 -9 -28 -14 -69 -15 l-64 -1 55 13 c73 17 82 17 78 3z
m-1113 -8 c-3 -6 4 -10 16 -10 12 0 20 -3 16 -6 -9 -9 -68 7 -61 17 3 5 12 9
20 9 8 0 12 -4 9 -10z m1510 0 c-3 -6 4 -10 16 -10 12 0 20 -3 16 -6 -9 -9
-68 7 -61 17 3 5 12 9 20 9 8 0 12 -4 9 -10z m-1841 -12 c-5 -8 -2 -9 9 -5 9
3 19 1 23 -5 5 -8 -3 -9 -26 -5 -18 4 -40 8 -49 8 -9 1 -2 5 14 9 17 4 31 8
33 9 2 0 0 -4 -4 -11z m147 3 c-11 -7 -9 -11 9 -21 20 -11 22 -10 16 5 -6 16
-2 17 36 11 23 -4 45 -11 48 -15 6 -11 280 -8 298 2 7 5 26 5 43 2 23 -5 31
-14 36 -36 8 -40 23 -47 23 -10 0 36 9 61 21 61 6 0 5 -8 -1 -19 -5 -11 -13
-59 -17 -108 -3 -48 -8 -82 -11 -75 -8 25 -17 11 -17 -28 0 -22 6 -45 13 -52
6 -6 12 -17 12 -23 0 -5 -4 -3 -9 4 -15 23 -25 -32 -12 -57 8 -15 8 -22 -2
-25 -9 -3 -9 -8 -1 -17 8 -8 9 -23 4 -43 -13 -49 -19 -197 -9 -197 13 0 11
-54 -2 -67 -8 -8 -7 -29 5 -76 13 -53 14 -74 5 -118 -8 -36 -10 -125 -5 -278
3 -125 6 -319 7 -434 0 -126 4 -207 10 -207 6 0 6 -7 -1 -19 -5 -11 -10 -49
-10 -85 0 -46 -4 -66 -12 -66 -9 0 -9 -3 1 -9 11 -7 4 -11 -24 -17 -24 -4 -40
-3 -42 3 -2 6 -19 7 -46 2 -56 -11 -59 -11 -51 2 4 8 -14 9 -62 3 -59 -7 -764
-10 -964 -5 -36 1 -91 -2 -122 -7 -51 -7 -58 -6 -58 9 0 25 11 50 20 44 4 -2
7 24 7 60 0 35 -4 62 -8 59 -4 -2 -5 26 -3 64 2 37 4 101 3 142 0 114 0 120
11 140 14 26 13 143 -1 134 -8 -4 -9 3 -6 22 15 76 17 146 7 183 -15 58 -16
227 -1 245 8 9 10 24 5 38 -10 31 -12 220 -2 210 4 -4 9 -16 11 -27 2 -11 9
-31 14 -45 7 -17 7 -27 0 -31 -5 -4 -7 -12 -3 -17 4 -6 2 -19 -5 -30 -9 -14
-8 -36 5 -97 12 -59 13 -80 5 -86 -9 -5 -10 -50 -6 -165 4 -88 7 -180 7 -206
0 -27 4 -48 9 -48 6 0 7 16 4 35 -4 24 -2 35 7 35 7 0 10 7 7 15 -4 8 -2 17 2
20 14 8 21 -34 21 -122 0 -45 5 -85 10 -88 18 -11 20 17 11 135 -4 63 -9 102
-10 85 l-2 -30 -10 25 c-8 18 -7 27 4 35 10 7 13 34 13 98 -1 49 0 90 2 92 2
2 5 32 8 67 3 56 -2 82 -41 198 -38 114 -45 146 -45 214 0 80 -14 97 -23 26
-2 -19 -4 1 -4 45 -1 82 12 226 17 190 1 -11 2 -31 1 -45 -1 -14 3 -38 8 -55
8 -26 9 -23 10 30 1 70 11 94 30 71 13 -15 9 -42 -17 -119 -15 -45 -15 -50 0
-61 12 -9 17 -34 21 -99 4 -50 2 -89 -3 -92 -15 -9 -12 -41 5 -55 8 -7 15 -11
16 -9 5 17 8 383 4 416 -3 22 -14 50 -24 61 -17 21 -18 98 0 87 4 -3 6 37 4
90 l-4 95 24 0 c14 0 25 5 25 10 0 6 12 10 28 9 24 0 25 -1 7 -9 -12 -5 38 -6
117 -4 251 8 368 9 368 3 0 -11 125 -9 169 3 36 9 41 13 25 19 -14 6 -10 8 16
8 24 1 31 -2 21 -8z m1385 -6 c18 -14 18 -14 -4 -15 -13 0 -20 4 -17 10 4 6
-7 8 -27 5 -29 -4 -30 -4 -8 4 35 13 34 13 56 -4z m-2309 -67 c-3 -8 -6 -5 -6
6 -1 11 2 17 5 13 3 -3 4 -12 1 -19z m100 -110 c-3 -7 -5 -2 -5 12 0 14 2 19
5 13 2 -7 2 -19 0 -25z m1353 -150 c0 -23 -3 -29 -11 -21 -6 6 -8 20 -4 32 9
30 15 26 15 -11z m97 -85 c-2 -16 -4 -5 -4 22 0 28 2 40 4 28 2 -13 2 -35 0
-50z m-1517 -45 c0 -9 -15 -12 -52 -9 -47 4 -49 5 -23 12 48 11 75 10 75 -3z
m97 -20 c-3 -7 -5 -2 -5 12 0 14 2 19 5 13 2 -7 2 -19 0 -25z m1302 -53 c8
-54 9 -56 10 -20 2 36 3 38 12 16 11 -27 0 -129 -11 -110 -5 7 -6 19 -3 27 3
8 1 17 -6 21 -6 4 -14 39 -16 77 -6 80 1 75 14 -11z m-1512 -2 c-3 -10 -5 -4
-5 12 0 17 2 24 5 18 2 -7 2 -21 0 -30z m3130 -15 c-3 -8 -6 -5 -6 6 -1 11 2
17 5 13 3 -3 4 -12 1 -19z m-3102 -48 c-8 -46 -9 -47 -19 -7 -4 19 -3 26 4 22
6 -3 10 3 10 16 0 12 3 20 6 16 3 -3 3 -24 -1 -47z m3103 -42 c1 -45 -1 -59
-8 -48 -8 12 -10 10 -11 -10 0 -23 -1 -23 -9 -5 -12 28 -12 88 0 80 6 -4 10 5
10 19 0 14 4 26 8 26 4 0 9 -28 10 -62z m-3098 -90 c0 -24 -5 -50 -10 -58 -7
-11 -10 2 -10 43 0 31 4 57 10 57 6 0 10 -19 10 -42z m3068 -19 c-3 -8 -7 -3
-11 10 -4 17 -3 21 5 13 5 -5 8 -16 6 -23z m-3068 -246 c0 -71 1 -135 2 -143
3 -37 -3 -93 -8 -87 -4 3 -6 57 -6 119 1 72 -2 106 -8 93 -8 -20 -9 -19 -9 1
-1 12 -3 37 -6 55 l-5 34 15 -35 15 -35 -6 63 c-4 39 -2 62 4 62 6 0 11 -49
12 -127z m1484 34 c4 -15 11 -25 16 -22 6 4 10 -10 10 -32 l0 -38 -26 52 c-17
33 -24 59 -19 70 8 19 9 16 19 -30z m-1315 -103 c6 -33 6 -65 -2 -97 -8 -37
-8 -53 1 -68 14 -23 15 -32 3 -24 -5 3 -11 -9 -14 -27 -2 -18 -3 35 -3 119 1
83 2 150 3 149 2 -2 7 -25 12 -52z m1510 -66 c1 -38 -2 -68 -6 -68 -5 0 -8 42
-9 93 -1 55 2 82 6 67 5 -14 8 -55 9 -92z m1490 44 c0 -30 -2 -33 -9 -17 -12
28 -12 67 0 60 6 -3 10 -23 9 -43z m-9 -71 c6 -13 7 -28 1 -43 l-10 -23 1 25
c0 14 -3 33 -7 43 -10 23 2 22 15 -2z m-1657 -14 c3 -8 1 -20 -4 -28 -6 -10
-9 -7 -9 14 0 29 5 35 13 14z m1574 -69 c-3 -8 -6 -5 -6 6 -1 11 2 17 5 13 3
-3 4 -12 1 -19z m-1402 2 c3 -5 1 -10 -4 -10 -6 0 -11 5 -11 10 0 6 2 10 4 10
3 0 8 -4 11 -10z m1495 -33 c0 -18 -2 -19 -10 -7 -13 20 -13 43 0 35 6 -3 10
-16 10 -28z m-1503 -19 c-3 -8 -6 -5 -6 6 -1 11 2 17 5 13 3 -3 4 -12 1 -19z
m-157 -42 c-13 -13 -13 -66 0 -66 5 0 7 -90 5 -235 -3 -172 -1 -234 7 -229 8
5 8 -1 2 -22 -4 -16 -8 -48 -7 -71 1 -24 -2 -43 -7 -43 -6 0 -10 35 -11 78 0
70 -4 101 -24 197 -5 22 -4 26 4 15 17 -25 26 17 13 64 -6 24 -7 45 -2 52 5 5
7 70 4 143 -2 74 -2 143 2 155 7 20 7 20 16 -3 5 -16 5 -28 -2 -35z m190 38
c0 -8 -5 -12 -10 -9 -6 4 -8 11 -5 16 9 14 15 11 15 -7z m-1723 -746 c-3 -8
-6 -5 -6 6 -1 11 2 17 5 13 3 -3 4 -12 1 -19z"/>
<path d="M4688 7863 c12 -2 32 -2 45 0 12 2 2 4 -23 4 -25 0 -35 -2 -22 -4z"/>
<path d="M5763 7843 c9 -2 23 -2 30 0 6 3 -1 5 -18 5 -16 0 -22 -2 -12 -5z"/>
<path d="M2910 6471 c0 -17 -4 -21 -15 -17 -19 7 -19 -4 -1 -29 13 -19 15 -17
21 18 4 21 5 41 1 44 -3 4 -6 -4 -6 -16z"/>
<path d="M2310 6448 c0 -34 3 -38 24 -38 36 0 37 11 5 45 l-29 30 0 -37z"/>
<path d="M6010 5230 c-9 -6 -10 -10 -3 -10 6 0 15 5 18 10 8 12 4 12 -15 0z"/>
<path d="M3560 4831 c0 -6 5 -13 10 -16 6 -3 10 1 10 9 0 9 -4 16 -10 16 -5 0
-10 -4 -10 -9z"/>
<path d="M2642 3615 c0 -16 2 -22 5 -12 2 9 2 23 0 30 -3 6 -5 -1 -5 -18z"/>
<path d="M2681 3130 c-1 -109 5 -132 33 -128 17 2 22 11 24 42 2 28 -1 42 -13
48 -8 5 -13 13 -11 17 3 4 -3 30 -14 57 l-19 49 0 -85z"/>
<path d="M3661 4364 c0 -11 3 -14 6 -6 3 7 2 16 -1 19 -3 4 -6 -2 -5 -13z"/>
<path d="M3712 1365 c0 -16 2 -22 5 -12 2 9 2 23 0 30 -3 6 -5 -1 -5 -18z"/>
<path d="M3763 900 c2 -78 4 -85 22 -85 17 0 20 7 20 40 0 28 -4 39 -13 37 -9
-2 -11 4 -7 17 3 11 -1 33 -9 48 -15 27 -16 24 -13 -57z"/>
<path d="M4127 9383 c-4 -3 -7 -11 -7 -17 0 -6 5 -5 12 2 6 6 9 14 7 17 -3 3
-9 2 -12 -2z"/>
<path d="M5413 9137 c-4 -66 4 -87 32 -87 21 0 25 5 25 31 0 24 -4 30 -16 25
-8 -3 -12 -2 -9 4 5 8 -20 70 -28 70 -1 0 -3 -19 -4 -43z"/>
<path d="M4915 9000 c-3 -5 -1 -10 4 -10 6 0 11 5 11 10 0 6 -2 10 -4 10 -3 0
-8 -4 -11 -10z"/>
<path d="M3924 8625 c5 -64 16 -69 16 -7 0 29 -4 52 -10 52 -5 0 -8 -20 -6
-45z"/>
<path d="M5250 8659 c0 -8 -3 -23 -6 -34 -3 -11 1 -28 9 -39 12 -17 13 -14 12
28 -2 42 -15 80 -15 45z"/>
<path d="M3940 8496 c0 -17 43 -222 47 -226 3 -3 2 13 -2 35 -5 22 -11 73 -14
114 -4 46 -11 76 -18 79 -7 2 -13 1 -13 -2z"/>
<path d="M5260 8492 c0 -5 3 -12 7 -16 4 -3 8 -17 10 -29 9 -67 27 -154 35
-167 7 -12 8 -10 4 5 -14 60 -19 95 -21 145 -2 30 -3 58 -4 63 -1 10 -31 9
-31 -1z"/>
<path d="M7168 7783 c7 -3 16 -2 19 1 4 3 -2 6 -13 5 -11 0 -14 -3 -6 -6z"/>
<path d="M5748 7773 c6 -2 18 -2 25 0 6 3 1 5 -13 5 -14 0 -19 -2 -12 -5z"/>
<path d="M7188 7763 c7 -3 16 -2 19 1 4 3 -2 6 -13 5 -11 0 -14 -3 -6 -6z"/>
<path d="M4750 7228 c-14 -5 -76 -8 -142 -5 -121 4 -131 2 -141 -23 -4 -11 -6
-10 -6 5 -1 17 -3 18 -11 5 -9 -13 -12 -13 -23 2 -10 13 -26 16 -68 13 -30 -1
-54 -3 -54 -4 0 -7 -81 -9 -89 -2 -6 4 -37 3 -68 -4 -32 -6 -58 -8 -58 -3 0
12 -43 10 -95 -4 -44 -12 -45 -13 -45 -54 0 -42 -14 -66 -23 -42 -6 14 -7 3
-11 -89 -1 -44 2 -64 11 -67 7 -3 13 -10 13 -16 0 -6 -4 -8 -10 -5 -6 4 -10
-7 -10 -24 0 -17 5 -31 11 -31 6 0 8 -7 5 -16 -3 -9 -3 -21 1 -27 3 -6 8 -27
9 -46 6 -67 12 -99 22 -117 10 -17 11 -17 21 9 8 19 7 42 0 78 -8 37 -8 54 0
62 15 15 20 7 23 -46 2 -26 7 -47 12 -47 5 0 7 -3 3 -6 -7 -7 46 -54 62 -54
13 0 14 29 3 48 -5 7 -16 10 -25 6 -10 -3 -17 -1 -17 5 0 7 7 14 15 17 8 4 13
9 10 13 -2 5 4 30 13 57 18 49 24 207 9 231 -4 6 -1 13 7 16 8 3 16 -2 19 -15
6 -20 34 -20 30 0 -1 5 4 12 11 15 9 4 12 0 9 -13 -4 -15 3 -20 40 -25 47 -7
72 -1 61 16 -3 6 -19 8 -35 5 -16 -2 -29 0 -29 5 0 16 50 10 78 -11 40 -29 76
-34 96 -15 10 10 16 12 16 5 0 -8 11 -11 29 -8 17 2 28 1 25 -4 -3 -4 4 -8 16
-8 12 0 18 5 15 10 -3 6 3 10 15 10 12 0 19 -4 16 -8 -2 -4 6 -9 18 -10 35 -2
71 -25 72 -45 1 -9 -5 -17 -13 -17 -10 0 -14 -7 -10 -20 3 -11 1 -20 -5 -20
-5 0 -6 -6 -1 -12 4 -7 8 -15 9 -18 11 -60 24 -85 36 -69 7 11 8 9 6 -6 -5
-30 -22 -24 -34 12 -7 25 -13 30 -21 22 -9 -9 -20 -5 -43 15 -17 14 -42 26
-56 26 -13 0 -24 5 -24 11 0 13 -80 5 -111 -12 -27 -14 -77 -59 -66 -59 4 0
-1 -8 -12 -19 -28 -28 -39 -145 -16 -181 4 -7 -60 -24 -123 -34 -13 -2 -33 5
-45 16 -17 15 -18 18 -4 14 10 -3 17 0 17 8 0 8 6 17 13 19 7 3 4 6 -6 6 -11
1 -27 11 -37 24 l-19 22 1 -40 c1 -69 0 -74 -22 -68 -12 3 -20 0 -20 -6 0 -7
-5 -9 -11 -5 -32 19 -157 -5 -143 -27 4 -7 0 -18 -10 -24 -15 -12 -15 -13 4
-18 11 -3 18 -1 14 4 -3 5 1 9 8 10 7 1 28 2 45 4 20 2 30 -1 27 -7 -4 -6 2
-7 17 -2 13 4 96 8 184 8 146 1 163 -1 204 -21 24 -13 59 -23 77 -23 37 0 85
16 95 32 10 16 86 17 106 2 10 -7 31 -14 47 -14 25 0 27 2 15 18 -11 14 -11
15 1 5 8 -7 27 -13 43 -13 27 0 29 2 22 28 -3 15 -8 36 -9 48 -1 11 -6 26 -10
33 -5 8 -3 17 5 22 8 5 10 9 5 9 -5 0 -3 7 4 15 10 12 10 18 -1 32 -11 13 -11
17 -2 20 9 3 11 14 7 31 -5 20 -4 24 5 16 15 -14 22 -52 11 -59 -6 -3 -5 -16
0 -30 5 -14 6 -25 2 -25 -4 0 -1 -4 7 -9 12 -8 12 -12 2 -25 -9 -11 -12 -34
-9 -71 5 -59 1 -64 -55 -66 l-32 -1 29 -8 c16 -5 33 -7 37 -5 4 3 9 -1 12 -9
6 -15 -43 -27 -93 -23 -16 1 -25 -3 -25 -13 0 -15 41 -23 60 -12 6 4 39 7 75
7 l65 1 6 64 c13 142 8 171 -39 232 -27 35 -42 65 -42 84 -1 26 -2 27 -14 12
-11 -15 -12 -8 -8 40 2 31 5 58 7 60 1 1 16 -3 33 -9 28 -10 30 -13 20 -35 -6
-13 -15 -24 -20 -24 -4 0 -8 -4 -8 -10 0 -5 6 -10 14 -10 18 0 30 -61 14 -72
-10 -6 -10 -10 2 -17 25 -16 30 -2 30 80 0 68 -3 81 -20 91 -11 7 -20 18 -20
24 0 6 -7 17 -15 24 -9 7 -13 15 -10 18 3 3 12 -3 19 -14 8 -10 17 -16 21 -12
10 10 -5 89 -16 82 -5 -3 -9 2 -9 10 0 9 4 16 10 16 13 0 10 157 -4 174 -8 11
-17 12 -36 4z m-220 -18 c8 -5 11 -10 5 -10 -5 0 -17 5 -25 10 -8 5 -10 10 -5
10 6 0 17 -5 25 -10z m-132 -25 c-3 -3 -9 2 -12 12 -6 14 -5 15 5 6 7 -7 10
-15 7 -18z m182 5 c-20 -13 -43 -13 -35 0 3 6 16 10 28 10 18 0 19 -2 7 -10z
m-522 -31 c10 0 5 -5 -10 -11 -27 -9 -34 -30 -29 -75 1 -6 -4 -15 -10 -19 -8
-4 -9 -3 -5 4 4 7 1 12 -8 12 -9 0 -16 7 -16 16 0 8 4 13 9 10 5 -3 17 16 26
42 10 25 20 41 23 34 2 -6 11 -12 20 -13z m615 0 c-4 -4 -28 -5 -53 -1 l-45 7
45 5 c49 6 67 3 53 -11z m-428 1 c-3 -5 -11 -10 -16 -10 -6 0 -7 5 -4 10 3 6
11 10 16 10 6 0 7 -4 4 -10z m70 1 c3 -5 1 -12 -5 -16 -5 -3 -10 -1 -10 6 0 7
-11 3 -24 -10 -15 -14 -33 -21 -48 -18 -21 4 -21 5 10 16 17 7 32 17 32 22 0
12 37 12 45 0z m75 -1 c0 -13 -20 -13 -40 0 -12 8 -9 10 13 10 15 0 27 -4 27
-10z m340 6 c0 -2 -7 -6 -15 -10 -8 -3 -15 -1 -15 4 0 6 7 10 15 10 8 0 15 -2
15 -4z m-550 -31 c-7 -8 -17 -12 -23 -8 -6 4 -3 9 9 14 27 11 28 11 14 -6z
m290 5 c0 -5 8 -11 18 -11 9 -1 0 -5 -21 -9 -21 -4 -54 -6 -75 -4 -20 1 -53 3
-72 3 -25 1 -31 4 -21 10 8 5 28 7 45 4 17 -2 42 0 56 6 33 13 70 14 70 1z
m120 0 c0 -5 -4 -10 -10 -10 -5 0 -10 5 -10 10 0 6 5 10 10 10 6 0 10 -4 10
-10z m113 -65 c-7 -21 -13 -19 -13 6 0 11 4 18 10 14 5 -3 7 -12 3 -20z m-323
-9 c0 -3 -4 -8 -10 -11 -5 -3 -10 -1 -10 4 0 6 5 11 10 11 6 0 10 -2 10 -4z
m115 -6 c3 -5 1 -10 -4 -10 -6 0 -11 5 -11 10 0 6 2 10 4 10 3 0 8 -4 11 -10z
m95 0 c8 -5 11 -10 5 -11 -45 -7 -53 -5 -48 7 6 16 22 18 43 4z m40 -50 c0
-11 -2 -20 -4 -20 -2 0 -6 9 -9 20 -3 11 -1 20 4 20 5 0 9 -9 9 -20z m-540
-101 c0 -6 -4 -7 -10 -4 -5 3 -10 11 -10 16 0 6 5 7 10 4 6 -3 10 -11 10 -16z
m535 -17 c-3 -3 -11 0 -18 7 -9 10 -8 11 6 5 10 -3 15 -9 12 -12z m-540 -20
c-3 -3 -11 0 -18 7 -9 10 -8 11 6 5 10 -3 15 -9 12 -12z m5 -32 c0 -5 -4 -10
-10 -10 -5 0 -10 5 -10 10 0 6 5 10 10 10 6 0 10 -4 10 -10z m543 -112 c-2 -5
-8 -8 -14 -8 -11 0 -12 33 -2 44 8 8 23 -25 16 -36z m-61 -13 c3 -14 1 -25 -3
-25 -5 0 -9 6 -9 14 0 8 -3 22 -7 32 -4 11 -3 15 4 11 6 -4 13 -18 15 -32z
m-592 0 c0 -8 -4 -15 -10 -15 -5 0 -7 7 -4 15 4 8 8 15 10 15 2 0 4 -7 4 -15z
m277 -27 c-3 -8 -6 -5 -6 6 -1 11 2 17 5 13 3 -3 4 -12 1 -19z m372 -25 c-2
-24 -2 -25 -6 -5 -3 13 -9 19 -15 16 -7 -4 -8 -2 -4 4 13 21 26 13 25 -15z m1
-49 c0 -19 -46 -18 -53 0 -4 9 1 16 11 19 24 5 42 -3 42 -19z m179 -109 c1
-21 -2 -26 -8 -16 -7 11 -10 10 -14 -5 -4 -16 -5 -16 -6 4 0 12 4 22 10 22 6
0 9 6 6 14 -3 8 -8 32 -11 53 l-5 38 13 -40 c8 -22 15 -53 15 -70z m-594 85
c-3 -5 -12 -10 -18 -10 -7 0 -6 4 3 10 19 12 23 12 15 0z m172 -76 c-3 -3 -12
-4 -19 -1 -8 3 -5 6 6 6 11 1 17 -2 13 -5z m398 -74 c3 -5 1 -10 -4 -10 -6 0
-11 5 -11 10 0 6 2 10 4 10 3 0 8 -4 11 -10z"/>
<path d="M6730 7228 c-14 -6 -76 -8 -142 -5 -67 3 -120 1 -124 -4 -3 -5 -10
-6 -16 -3 -6 4 -14 1 -18 -5 -5 -10 -11 -9 -22 3 -15 15 -109 18 -123 4 -4 -4
-13 -4 -20 -1 -8 2 -22 0 -32 -5 -13 -8 -22 -7 -33 2 -12 11 -26 11 -72 1 -32
-6 -58 -8 -58 -3 0 12 -43 10 -95 -4 -44 -12 -45 -13 -45 -54 0 -24 -5 -46
-12 -50 -6 -4 -8 -3 -4 4 3 6 2 13 -3 16 -12 8 -19 -57 -9 -84 4 -12 4 -30 -2
-40 -7 -13 -4 -25 12 -46 18 -23 19 -27 5 -21 -14 5 -17 1 -17 -23 0 -17 5
-30 11 -30 6 0 8 -7 5 -16 -3 -9 -3 -21 1 -27 4 -7 8 -24 9 -39 3 -45 14 -79
24 -73 6 3 10 -1 10 -10 0 -11 -5 -15 -15 -12 -12 5 -12 2 -3 -19 24 -52 40 9
24 92 -6 33 -4 43 8 47 15 6 21 -20 19 -80 -1 -7 4 -13 10 -13 6 0 8 -3 4 -6
-3 -4 4 -15 16 -26 12 -11 17 -17 10 -14 -8 5 -11 -9 -10 -46 2 -50 1 -53 -20
-50 -13 2 -23 -1 -23 -7 0 -5 -11 -6 -27 -2 -31 8 -112 -4 -127 -19 -7 -7 -6
-10 2 -10 21 0 13 -18 -10 -26 -22 -7 -22 -7 -3 -14 11 -4 23 -3 27 3 8 13 79
16 71 4 -3 -5 5 -6 18 -1 13 4 96 8 184 9 148 1 163 -1 204 -22 24 -13 58 -23
76 -23 42 0 95 19 95 34 0 15 97 13 112 -2 7 -7 25 -12 41 -12 26 0 28 2 16
18 -11 14 -11 15 1 5 8 -7 27 -13 43 -13 27 0 29 2 22 28 -11 46 -13 96 -3
121 5 15 4 28 -3 37 -9 11 -9 14 1 14 8 0 10 10 5 33 -5 29 -4 30 8 15 8 -10
18 -18 23 -18 4 0 3 5 -4 12 -7 7 -12 26 -12 42 -1 28 -2 29 -14 14 -11 -15
-12 -8 -8 40 2 31 5 58 7 60 1 1 16 -3 33 -9 28 -10 30 -13 20 -35 -6 -13 -16
-24 -22 -24 -6 0 -2 -7 8 -15 14 -11 20 -28 21 -57 1 -23 6 -43 13 -46 9 -3
12 19 12 76 0 89 -5 112 -26 112 -8 0 -14 6 -14 14 0 7 -7 19 -15 26 -9 7 -13
15 -11 18 3 2 13 -3 22 -12 9 -9 19 -15 21 -12 9 9 -9 86 -18 80 -5 -3 -9 2
-9 10 0 9 5 16 11 16 6 0 9 16 8 38 -2 21 0 43 4 49 4 6 3 14 -3 18 -5 3 -7
18 -4 33 7 37 -12 53 -46 40z m-220 -18 c8 -5 11 -10 5 -10 -5 0 -17 5 -25 10
-8 5 -10 10 -5 10 6 0 17 -5 25 -10z m-132 -25 c-3 -3 -9 2 -12 12 -6 14 -5
15 5 6 7 -7 10 -15 7 -18z m182 5 c-20 -13 -43 -13 -35 0 3 6 16 10 28 10 18
0 19 -2 7 -10z m92 -32 c-6 -6 -20 -7 -33 -2 l-24 8 25 6 c30 8 46 2 32 -12z
m-625 -11 c-24 -8 -27 -14 -27 -53 0 -24 -5 -44 -11 -44 -5 0 -7 5 -4 10 3 6
-1 10 -9 10 -9 0 -16 7 -16 16 0 8 4 13 9 10 4 -3 15 12 24 34 13 33 18 38 38
33 23 -6 23 -7 -4 -16z m198 13 c-3 -5 -11 -10 -16 -10 -6 0 -7 5 -4 10 3 6
11 10 16 10 6 0 7 -4 4 -10z m67 -5 c-2 -5 -9 -9 -14 -7 -6 2 -19 -4 -28 -13
-10 -9 -29 -15 -42 -12 -21 3 -21 5 10 16 17 7 32 17 32 23 0 5 10 8 23 6 12
-2 20 -7 19 -13z m78 5 c0 -13 -20 -13 -40 0 -12 8 -9 10 13 10 15 0 27 -4 27
-10z m213 3 c-7 -2 -13 -11 -13 -19 0 -8 -4 -14 -9 -14 -5 0 -7 9 -4 20 3 11
13 20 22 19 10 0 11 -2 4 -6z m127 3 c0 -2 -7 -6 -15 -10 -8 -3 -15 -1 -15 4
0 6 7 10 15 10 8 0 15 -2 15 -4z m-590 -26 c0 -5 -5 -10 -11 -10 -5 0 -7 5 -4
10 3 6 8 10 11 10 2 0 4 -4 4 -10z m50 0 c0 -5 -10 -10 -22 -9 -22 0 -22 1 -3
9 11 5 21 9 23 9 1 1 2 -3 2 -9z m294 -5 c19 -14 18 -15 -15 -17 -19 0 -52 -1
-74 -1 -96 2 -110 3 -96 12 7 5 29 7 48 6 19 -2 45 0 56 5 32 13 60 11 81 -5z
m219 -60 c-7 -21 -13 -19 -13 6 0 11 4 18 10 14 5 -3 7 -12 3 -20z m-563 -40
c8 0 14 5 13 12 -1 6 4 13 11 16 9 4 12 0 9 -13 -4 -15 3 -20 40 -25 47 -7 72
-1 61 16 -3 6 -19 8 -35 5 -16 -2 -29 0 -29 5 0 16 50 10 78 -11 39 -28 76
-34 94 -16 9 8 19 11 24 6 15 -14 88 -25 80 -11 -5 7 1 11 14 11 12 0 19 -4
16 -8 -2 -4 6 -9 18 -10 35 -2 71 -25 74 -46 3 -14 -1 -17 -13 -12 -14 5 -16
2 -13 -19 3 -14 1 -25 -5 -25 -5 0 -3 -7 4 -17 8 -9 13 -18 12 -19 -2 -2 0
-18 4 -34 6 -32 22 -50 25 -28 0 7 4 -7 7 -32 7 -51 4 -73 -11 -64 -5 3 -7 17
-4 30 4 15 1 33 -9 47 -8 12 -15 31 -16 42 0 11 -3 14 -6 8 -7 -19 -22 -16
-55 12 -16 14 -40 25 -54 25 -13 0 -24 5 -24 10 0 12 -85 3 -114 -12 -27 -14
-73 -58 -61 -58 5 0 1 -6 -9 -13 -11 -8 -19 -27 -20 -45 0 -18 -5 -32 -10 -32
-8 0 -2 -92 8 -108 3 -5 -22 -15 -57 -22 -34 -6 -67 -13 -74 -15 -7 -2 -22 5
-35 16 -17 15 -18 19 -5 15 10 -3 17 0 17 8 0 8 6 17 13 19 6 3 2 6 -10 6 -25
1 -32 21 -8 21 17 0 20 27 5 50 -8 12 -11 13 -19 1 -7 -10 -10 -11 -16 -1 -5
8 -2 18 7 24 8 6 15 18 16 26 0 8 7 33 15 55 8 25 13 75 12 135 -2 100 4 144
15 100 3 -14 12 -25 20 -25z m463 24 c-7 -7 -23 -13 -38 -14 -22 -3 -24 -1
-14 11 7 8 20 12 30 9 12 -4 19 -1 19 6 0 7 3 9 7 6 4 -4 2 -12 -4 -18z m-223
7 c0 -3 -4 -8 -10 -11 -5 -3 -10 -1 -10 4 0 6 5 11 10 11 6 0 10 -2 10 -4z
m115 -6 c3 -5 1 -10 -4 -10 -6 0 -11 5 -11 10 0 6 2 10 4 10 3 0 8 -4 11 -10z
m135 -50 c0 -11 -2 -20 -4 -20 -2 0 -6 9 -9 20 -3 11 -1 20 4 20 5 0 9 -9 9
-20z m-540 -101 c0 -6 -4 -7 -10 -4 -5 3 -10 11 -10 16 0 6 5 7 10 4 6 -3 10
-11 10 -16z m535 -17 c-3 -3 -11 0 -18 7 -9 10 -8 11 6 5 10 -3 15 -9 12 -12z
m-525 -26 c0 -10 -30 0 -34 11 -4 11 -1 11 14 3 11 -6 20 -12 20 -14z m-10
-26 c0 -5 -4 -10 -10 -10 -5 0 -10 5 -10 10 0 6 5 10 10 10 6 0 10 -4 10 -10z
m482 -120 c3 -16 1 -30 -4 -30 -4 0 -8 14 -8 30 0 17 2 30 4 30 2 0 6 -13 8
-30z m-315 -32 c-3 -8 -6 -5 -6 6 -1 11 2 17 5 13 3 -3 4 -12 1 -19z m374 -8
c1 -5 1 -19 1 -30 0 -45 -2 -50 -28 -50 -14 0 -23 4 -20 9 4 5 0 12 -6 14 -13
5 15 11 38 8 7 -1 9 9 6 24 -2 14 -9 22 -15 18 -6 -3 -7 -1 -3 5 9 15 26 16
27 2z m-416 -90 c-3 -5 -12 -10 -18 -10 -7 0 -6 4 3 10 19 12 23 12 15 0z
m195 -80 c11 -8 7 -9 -15 -4 -37 8 -45 14 -19 14 10 0 26 -5 34 -10z"/>
<path d="M6170 6650 c-27 -9 -27 -9 8 -16 15 -3 22 1 22 11 0 8 -1 15 -2 14
-2 -1 -14 -5 -28 -9z"/>
<path d="M6744 6688 c0 -24 5 -46 9 -49 5 -4 4 -15 -1 -26 -6 -11 -10 -43 -8
-71 2 -56 -3 -61 -57 -63 l-32 -1 29 -8 c16 -5 33 -7 37 -5 4 3 9 -2 13 -10 6
-16 -3 -18 -79 -19 -29 -1 -40 -5 -40 -16 0 -15 41 -23 60 -11 6 3 39 6 75 6
l65 0 9 103 c9 117 6 139 -30 181 -37 44 -52 40 -50 -11z m36 -127 c0 -32 -6
-24 -14 19 -4 25 -3 31 4 20 5 -8 10 -26 10 -39z m7 -63 c-3 -7 -5 -2 -5 12 0
14 2 19 5 13 2 -7 2 -19 0 -25z m-20 -20 c-3 -7 -5 -2 -5 12 0 14 2 19 5 13 2
-7 2 -19 0 -25z"/>
<path d="M4190 6650 c-27 -9 -27 -9 8 -16 15 -3 22 1 22 11 0 8 -1 15 -2 14
-2 -1 -14 -5 -28 -9z"/>
<path d="M8090 6471 c0 -16 -5 -21 -14 -18 -10 4 -12 0 -9 -14 3 -11 9 -22 14
-24 9 -6 24 63 15 72 -3 4 -6 -4 -6 -16z"/>
<path d="M7490 6448 c0 -34 3 -38 24 -38 36 0 37 11 5 45 l-29 30 0 -37z"/>
<path d="M4557 6463 c-4 -3 -7 -17 -7 -30 0 -18 5 -23 25 -23 16 0 25 6 25 15
0 8 3 14 8 13 4 -2 18 5 32 15 l24 17 -50 0 c-28 0 -54 -3 -57 -7z"/>
<path d="M6534 6455 c-4 -8 -4 -22 0 -30 7 -20 46 -20 46 1 0 8 4 13 8 10 4
-2 19 4 32 15 l25 19 -53 0 c-38 0 -54 -4 -58 -15z"/>
<path d="M2379 6180 c-18 -12 27 -23 47 -12 14 8 12 10 -9 14 -14 3 -31 2 -38
-2z"/>
<path d="M2490 6176 c0 -8 20 -10 69 -6 93 7 96 15 5 17 -51 1 -74 -3 -74 -11z"/>
<path d="M7559 6180 c-18 -12 27 -23 47 -12 14 8 12 10 -9 14 -14 3 -31 2 -38
-2z"/>
<path d="M7670 6176 c0 -8 20 -10 69 -6 93 7 96 15 5 17 -51 1 -74 -3 -74 -11z"/>
<path d="M4925 5968 c4 -18 19 -53 33 -78 15 -25 30 -53 34 -63 6 -15 5 -16
-12 -7 -31 17 -38 -15 -9 -39 45 -36 185 -94 255 -106 21 -3 49 -11 61 -17 17
-8 34 -8 64 1 34 10 39 15 28 27 -10 12 -8 16 10 21 27 7 22 28 -7 28 -11 0
-24 4 -28 8 -4 4 -19 7 -34 7 -49 0 -207 87 -271 148 -60 59 -75 63 -38 10 20
-28 20 -29 2 -18 -10 7 -29 34 -42 61 -26 58 -57 69 -46 17z m145 -207 c0 -5
-9 -7 -20 -4 -11 3 -20 7 -20 9 0 2 9 4 20 4 11 0 20 -4 20 -9z"/>
<path d="M2981 5894 c0 -11 3 -14 6 -6 3 7 2 16 -1 19 -3 4 -6 -2 -5 -13z"/>
<path d="M2973 5600 c0 -25 2 -35 4 -22 2 12 2 32 0 45 -2 12 -4 2 -4 -23z"/>
<path d="M5798 5423 c7 -3 16 -2 19 1 4 3 -2 6 -13 5 -11 0 -14 -3 -6 -6z"/>
<path d="M6722 3610 c0 -14 2 -19 5 -12 2 6 2 18 0 25 -3 6 -5 1 -5 -13z"/>
<path d="M7672 3560 c0 -14 2 -19 5 -12 2 6 2 18 0 25 -3 6 -5 1 -5 -13z"/>
<path d="M6771 3115 c0 -49 3 -96 8 -103 14 -23 46 -10 49 20 4 32 -15 71 -30
62 -6 -4 -8 1 -4 13 3 11 0 37 -8 59 l-15 39 0 -90z"/>
<path d="M2498 2324 c-6 -119 -5 -148 3 -125 11 27 14 139 5 148 -3 4 -7 -7
-8 -23z"/>
<path d="M6585 2318 c4 -9 1 -26 -5 -38 -6 -12 -8 -30 -4 -43 6 -18 9 -12 15
28 5 31 4 54 -2 60 -7 7 -8 5 -4 -7z"/>
<path d="M2492 2070 c0 -19 2 -27 5 -17 2 9 2 25 0 35 -3 9 -5 1 -5 -18z"/>
<path d="M6582 2075 c0 -16 2 -22 5 -12 2 9 2 23 0 30 -3 6 -5 -1 -5 -18z"/>
<path d="M2490 1966 c0 -14 4 -27 9 -30 4 -3 7 -17 6 -31 -3 -24 -2 -25 60
-25 35 0 67 5 70 10 4 7 -14 9 -54 7 l-61 -4 0 49 c0 36 -4 48 -15 48 -9 0
-15 -9 -15 -24z"/>
<path d="M6585 1980 c-9 -15 3 -80 15 -80 12 0 13 60 1 79 -6 10 -10 10 -16 1z"/>
<path d="M2790 1890 l-135 -6 138 -2 c86 -1 137 2 137 8 0 6 -1 9 -2 8 -2 -1
-64 -5 -138 -8z"/>
<path d="M7318 1893 c7 -3 16 -2 19 1 4 3 -2 6 -13 5 -11 0 -14 -3 -6 -6z"/>
<path d="M6601 1844 c0 -11 3 -14 6 -6 3 7 2 16 -1 19 -3 4 -6 -2 -5 -13z"/>
<path d="M5222 1360 c0 -14 2 -19 5 -12 2 6 2 18 0 25 -3 6 -5 1 -5 -13z"/>
<path d="M5261 930 c-1 -99 5 -120 35 -120 21 0 24 5 24 40 0 28 -4 40 -14 40
-8 0 -15 8 -14 18 0 9 -7 35 -15 57 l-16 40 0 -75z"/>
<path d="M3898 328 c-19 -5 -17 -6 12 -9 68 -5 120 -4 120 3 0 9 -105 14 -132
6z"/>
<path d="M4150 325 c0 -15 21 -20 34 -8 4 4 27 6 51 4 25 -1 45 1 45 6 0 5
-29 9 -65 10 -51 2 -65 -1 -65 -12z"/>
<path d="M5415 330 c-18 -8 -16 -9 10 -11 63 -5 125 -4 125 4 0 4 -20 7 -44 7
-24 0 -50 2 -58 4 -7 3 -22 1 -33 -4z"/>
<path d="M5666 325 c-5 -15 15 -21 27 -8 4 4 78 6 164 4 87 -1 155 0 153 2 -3
3 -80 7 -172 10 -140 5 -167 4 -172 -8z"/>
<path d="M4343 323 c32 -2 81 -2 110 0 29 2 3 3 -58 3 -60 0 -84 -1 -52 -3z"/>
<path d="M4098 313 c7 -3 16 -2 19 1 4 3 -2 6 -13 5 -11 0 -14 -3 -6 -6z"/>
<path d="M5608 313 c6 -2 18 -2 25 0 6 3 1 5 -13 5 -14 0 -19 -2 -12 -5z"/>
</g>
</svg>
