<?xml version="1.0" encoding="UTF-8" standalone="no"?>
<!DOCTYPE svg PUBLIC "-//W3C//DTD SVG 1.1//EN" "http://www.w3.org/Graphics/SVG/1.1/DTD/svg11.dtd">
<svg width="100%" height="100%" viewBox="0 0 563 463" version="1.1" xmlns="http://www.w3.org/2000/svg" xmlns:xlink="http://www.w3.org/1999/xlink" xml:space="preserve" xmlns:serif="http://www.serif.com/" style="fill-rule:evenodd;clip-rule:evenodd;stroke-linejoin:round;stroke-miterlimit:2;">
    <g transform="matrix(1,0,0,1,-343,-103)">
        <g transform="matrix(0.585938,0,0,0.410156,0,0)">
            <g transform="matrix(0.922361,0,0,0.922361,85.0418,63.2623)">
                <g transform="matrix(1,0,0,1,63.16,-29.1635)">
                    <g transform="matrix(1.53948,0,0,2.4381,93.8184,25.6125)">
                        <rect x="554.575" y="183.661" width="72.105" height="39.947" style="fill:rgb(87,172,167);"/>
                    </g>
                    <g transform="matrix(1.70667,0,0,2.4381,0,0)">
                        <path d="M479.703,315.698C479.478,313.104 479.363,310.477 479.363,307.825C479.363,253.149 528.106,208.759 588.143,208.759C648.181,208.759 697.316,250.045 697.316,304.721C697.316,308.083 698.693,557.897 698.693,557.897C698.693,579.24 681.365,596.568 660.021,596.568L515.229,596.568C493.886,596.568 476.558,579.24 476.558,557.897C476.558,557.897 477.679,320.385 479.703,315.698Z" style="fill:rgb(250,247,245);"/>
                    </g>
                    <g transform="matrix(1.53948,0,0,1.20122,93.8184,252.779)">
                        <rect x="554.575" y="183.661" width="72.105" height="39.947" style="fill:rgb(87,172,167);"/>
                    </g>
                    <g transform="matrix(1.70667,0,0,2.4381,0,0)">
                        <path d="M545.608,585.87C545.608,585.87 527.302,588.241 517.063,580.319C496.615,564.499 500.926,557.137 500.926,557.137L499.756,305.844C499.756,305.844 500.197,279.158 519.124,256.932C537.949,234.827 579.095,212.959 584.478,236.859C589.86,260.759 568.697,255.009 554.422,264.904C525.945,284.644 527.334,304.515 527.125,309.106C526.715,318.144 525.536,345.572 525.843,392.557C526.372,473.568 545.608,585.87 545.608,585.87Z" style="fill:rgb(232,226,223);"/>
                    </g>
                    <g transform="matrix(1.70667,0,0,2.4381,0,0)">
                        <path d="M573.985,156.628C573.985,156.628 572.961,126.366 573.2,124.268C573.439,122.17 556.148,123.987 556.148,123.987C556.148,123.987 549.347,121.893 550.481,110.855C551.615,99.817 558.835,97.023 558.835,97.023C558.835,97.023 574.735,94.801 588.006,96.271C601.277,97.74 646.322,108.82 648.896,109.768C651.471,110.716 648.529,124.664 648.529,124.664C648.529,124.664 645.034,127.944 640.553,127.725C633.105,127.359 631.073,125.577 631.073,125.577L604.288,124.747L603.856,155.074L603.683,164.541L573.985,156.628Z" style="fill:rgb(250,247,245);"/>
                    </g>
                    <g transform="matrix(1.81369,0,0,2.38651,-73.1367,3.45596)">
                        <path d="M629.951,162.014C629.951,158.964 627.67,156.488 624.861,156.488L562.033,156.488C559.224,156.488 556.943,158.964 556.943,162.014L556.943,206.167C556.943,209.217 559.224,211.693 562.033,211.693L624.861,211.693C627.67,211.693 629.951,209.217 629.951,206.167L629.951,162.014Z" style="fill:rgb(250,247,245);"/>
                        <clipPath id="_clip1">
                            <path d="M629.951,162.014C629.951,158.964 627.67,156.488 624.861,156.488L562.033,156.488C559.224,156.488 556.943,158.964 556.943,162.014L556.943,206.167C556.943,209.217 559.224,211.693 562.033,211.693L624.861,211.693C627.67,211.693 629.951,209.217 629.951,206.167L629.951,162.014Z"/>
                        </clipPath>
                        <g clip-path="url(#_clip1)">
                            <g transform="matrix(0.940991,0,0,1,20.1801,11.7884)">
                                <rect x="603.493" y="90.639" width="66.322" height="143.474" style="fill:rgb(47,127,128);"/>
                            </g>
                        </g>
                    </g>
                    <g transform="matrix(1.70667,0,0,2.4381,-3.322,-41.2163)">
                        <circle cx="591.313" cy="339.869" r="38.166" style="fill:rgb(87,172,167);"/>
                    </g>
                    <g transform="matrix(1.70667,0,0,2.4381,0,0)">
                        <path d="M663.8,392.009L517.432,392.009L517.432,553.032C517.432,565.204 527.314,575.085 539.486,575.085L641.746,575.085C653.918,575.085 663.8,565.204 663.8,553.032L663.8,392.009Z" style="fill:rgb(87,172,167);"/>
                    </g>
                    <g transform="matrix(1.27795,0,0,1.82564,-117.155,613.336)">
                        <text x="838.426px" y="386.57px" style="font-family:'TrebuchetMS', 'Trebuchet MS', sans-serif;font-size:226.076px;fill:rgb(250,247,245);">?</text>
                    </g>
                </g>
                <g transform="matrix(0.654887,0,0,0.654887,10.8646,404.84)">
                    <g transform="matrix(1.53948,0,0,2.4381,93.8184,25.6125)">
                        <rect x="554.575" y="183.661" width="72.105" height="39.947" style="fill:rgb(255,99,104);"/>
                    </g>
                    <g transform="matrix(1.70667,0,0,2.4381,0,0)">
                        <path d="M479.703,315.698C479.478,313.104 479.363,310.477 479.363,307.825C479.363,253.149 528.106,208.759 588.143,208.759C648.181,208.759 697.316,250.045 697.316,304.721C697.316,308.083 698.693,557.897 698.693,557.897C698.693,579.24 681.365,596.568 660.021,596.568L515.229,596.568C493.886,596.568 476.558,579.24 476.558,557.897C476.558,557.897 477.679,320.385 479.703,315.698Z" style="fill:rgb(250,247,245);"/>
                    </g>
                    <g transform="matrix(1.53948,0,0,1.20122,93.8184,252.779)">
                        <rect x="554.575" y="183.661" width="72.105" height="39.947" style="fill:rgb(255,99,104);"/>
                    </g>
                    <g transform="matrix(1.70667,0,0,2.4381,0,0)">
                        <path d="M545.608,585.87C545.608,585.87 527.302,588.241 517.063,580.319C496.615,564.499 500.926,557.137 500.926,557.137L499.756,305.844C499.756,305.844 500.197,279.158 519.124,256.932C537.949,234.827 579.095,212.959 584.478,236.859C589.86,260.759 568.697,255.009 554.422,264.904C525.945,284.644 527.334,304.515 527.125,309.106C526.715,318.144 525.536,345.572 525.843,392.557C526.372,473.568 545.608,585.87 545.608,585.87Z" style="fill:rgb(232,226,223);"/>
                    </g>
                    <g transform="matrix(1.70667,0,0,2.4381,0,0)">
                        <path d="M573.985,156.628C573.985,156.628 572.961,126.366 573.2,124.268C573.439,122.17 556.148,123.987 556.148,123.987C556.148,123.987 549.347,121.893 550.481,110.855C551.615,99.817 558.835,97.023 558.835,97.023C558.835,97.023 574.735,94.801 588.006,96.271C601.277,97.74 646.322,108.82 648.896,109.768C651.471,110.716 648.529,124.664 648.529,124.664C648.529,124.664 645.034,127.944 640.553,127.725C633.105,127.359 631.073,125.577 631.073,125.577L604.288,124.747L603.856,155.074L603.683,164.541L573.985,156.628Z" style="fill:rgb(250,247,245);"/>
                    </g>
                    <g transform="matrix(1.81369,0,0,2.38651,-73.1367,3.45596)">
                        <path d="M629.951,162.014C629.951,158.964 627.67,156.488 624.861,156.488L562.033,156.488C559.224,156.488 556.943,158.964 556.943,162.014L556.943,206.167C556.943,209.217 559.224,211.693 562.033,211.693L624.861,211.693C627.67,211.693 629.951,209.217 629.951,206.167L629.951,162.014Z" style="fill:rgb(250,247,245);"/>
                        <clipPath id="_clip2">
                            <path d="M629.951,162.014C629.951,158.964 627.67,156.488 624.861,156.488L562.033,156.488C559.224,156.488 556.943,158.964 556.943,162.014L556.943,206.167C556.943,209.217 559.224,211.693 562.033,211.693L624.861,211.693C627.67,211.693 629.951,209.217 629.951,206.167L629.951,162.014Z"/>
                        </clipPath>
                        <g clip-path="url(#_clip2)">
                            <g transform="matrix(0.940991,0,0,1,20.1801,11.7884)">
                                <rect x="603.493" y="90.639" width="66.322" height="143.474" style="fill:rgb(255,99,104);"/>
                            </g>
                        </g>
                    </g>
                    <g transform="matrix(1.70667,0,0,2.4381,-3.322,-41.2163)">
                        <circle cx="591.313" cy="339.869" r="38.166" style="fill:rgb(255,99,104);"/>
                    </g>
                    <g transform="matrix(1.70667,0,0,2.4381,0,0)">
                        <path d="M663.8,392.009L517.432,392.009L517.432,553.032C517.432,565.204 527.314,575.085 539.486,575.085L641.746,575.085C653.918,575.085 663.8,565.204 663.8,553.032L663.8,392.009Z" style="fill:rgb(255,99,104);"/>
                    </g>
                    <g transform="matrix(1.27795,0,0,1.82564,-117.155,613.336)">
                        <text x="838.426px" y="386.57px" style="font-family:'TrebuchetMS', 'Trebuchet MS', sans-serif;font-size:226.076px;fill:rgb(250,247,245);">?</text>
                    </g>
                </g>
                <g transform="matrix(0.654887,0,0,0.654887,802.735,414.276)">
                    <g transform="matrix(1.53948,0,0,2.4381,93.8184,25.6125)">
                        <rect x="554.575" y="183.661" width="72.105" height="39.947" style="fill:rgb(255,191,1);"/>
                    </g>
                    <g transform="matrix(1.70667,0,0,2.4381,0,0)">
                        <path d="M479.703,315.698C479.478,313.104 479.363,310.477 479.363,307.825C479.363,253.149 528.106,208.759 588.143,208.759C648.181,208.759 697.316,250.045 697.316,304.721C697.316,308.083 698.693,557.897 698.693,557.897C698.693,579.24 681.365,596.568 660.021,596.568L515.229,596.568C493.886,596.568 476.558,579.24 476.558,557.897C476.558,557.897 477.679,320.385 479.703,315.698Z" style="fill:rgb(250,247,245);"/>
                    </g>
                    <g transform="matrix(1.53948,0,0,1.20122,93.8184,252.779)">
                        <rect x="554.575" y="183.661" width="72.105" height="39.947" style="fill:rgb(255,191,1);"/>
                    </g>
                    <g transform="matrix(1.70667,0,0,2.4381,0,0)">
                        <path d="M545.608,585.87C545.608,585.87 527.302,588.241 517.063,580.319C496.615,564.499 500.926,557.137 500.926,557.137L499.756,305.844C499.756,305.844 500.197,279.158 519.124,256.932C537.949,234.827 579.095,212.959 584.478,236.859C589.86,260.759 568.697,255.009 554.422,264.904C525.945,284.644 527.334,304.515 527.125,309.106C526.715,318.144 525.536,345.572 525.843,392.557C526.372,473.568 545.608,585.87 545.608,585.87Z" style="fill:rgb(232,226,223);"/>
                    </g>
                    <g transform="matrix(1.70667,0,0,2.4381,0,0)">
                        <path d="M573.985,156.628C573.985,156.628 572.961,126.366 573.2,124.268C573.439,122.17 556.148,123.987 556.148,123.987C556.148,123.987 549.347,121.893 550.481,110.855C551.615,99.817 558.835,97.023 558.835,97.023C558.835,97.023 574.735,94.801 588.006,96.271C601.277,97.74 646.322,108.82 648.896,109.768C651.471,110.716 648.529,124.664 648.529,124.664C648.529,124.664 645.034,127.944 640.553,127.725C633.105,127.359 631.073,125.577 631.073,125.577L604.288,124.747L603.856,155.074L603.683,164.541L573.985,156.628Z" style="fill:rgb(250,247,245);"/>
                    </g>
                    <g transform="matrix(1.81369,0,0,2.38651,-73.1367,3.45596)">
                        <path d="M629.951,162.014C629.951,158.964 627.67,156.488 624.861,156.488L562.033,156.488C559.224,156.488 556.943,158.964 556.943,162.014L556.943,206.167C556.943,209.217 559.224,211.693 562.033,211.693L624.861,211.693C627.67,211.693 629.951,209.217 629.951,206.167L629.951,162.014Z" style="fill:rgb(250,247,245);"/>
                        <clipPath id="_clip3">
                            <path d="M629.951,162.014C629.951,158.964 627.67,156.488 624.861,156.488L562.033,156.488C559.224,156.488 556.943,158.964 556.943,162.014L556.943,206.167C556.943,209.217 559.224,211.693 562.033,211.693L624.861,211.693C627.67,211.693 629.951,209.217 629.951,206.167L629.951,162.014Z"/>
                        </clipPath>
                        <g clip-path="url(#_clip3)">
                            <g transform="matrix(0.940991,0,0,1,20.1801,11.7884)">
                                <rect x="603.493" y="90.639" width="66.322" height="143.474" style="fill:rgb(255,191,1);"/>
                            </g>
                        </g>
                    </g>
                    <g transform="matrix(1.70667,0,0,2.4381,-3.322,-41.2163)">
                        <circle cx="591.313" cy="339.869" r="38.166" style="fill:rgb(255,191,1);"/>
                    </g>
                    <g transform="matrix(1.70667,0,0,2.4381,0,0)">
                        <path d="M663.8,392.009L517.432,392.009L517.432,553.032C517.432,565.204 527.314,575.085 539.486,575.085L641.746,575.085C653.918,575.085 663.8,565.204 663.8,553.032L663.8,392.009Z" style="fill:rgb(255,191,1);"/>
                    </g>
                    <g transform="matrix(1.27795,0,0,1.82564,-117.155,613.336)">
                        <text x="838.426px" y="386.57px" style="font-family:'TrebuchetMS', 'Trebuchet MS', sans-serif;font-size:226.076px;fill:rgb(250,247,245);">?</text>
                    </g>
                </g>
            </g>
        </g>
    </g>
</svg>
