<svg clip-rule="evenodd" fill-rule="evenodd" stroke-linejoin="round" stroke-miterlimit="2" viewBox="0 0 1001 1001" xmlns="http://www.w3.org/2000/svg" xmlns:xlink="http://www.w3.org/1999/xlink"><linearGradient id="a" gradientTransform="matrix(-1.05387 -55.7128 58.7457 -.999461 768.283 980.099)" gradientUnits="userSpaceOnUse" x1="0" x2="1" y1="0" y2="0"><stop offset="0" stop-color="#0f313d"/><stop offset="1" stop-color="#0a2a35"/></linearGradient><linearGradient id="b" gradientTransform="matrix(-1.71926 258.542 -156.475 -2.84071 886.977 1549.5)" gradientUnits="userSpaceOnUse" x1="0" x2="1" y1="0" y2="0"><stop offset="0" stop-color="#144c59"/><stop offset="1" stop-color="#457d91"/></linearGradient><linearGradient id="c" gradientTransform="matrix(307.83 -258.484 258.484 307.83 771.423 875.616)" gradientUnits="userSpaceOnUse" x1="0" x2="1" y1="0" y2="0"><stop offset="0" stop-color="#f9b860"/><stop offset=".47" stop-color="#fbc168"/><stop offset="1" stop-color="#fbc46a"/></linearGradient><clipPath id="d"><path clip-rule="evenodd" d="m523.921-796.276h991.461v506.099h-991.461z"/></clipPath><clipPath id="e"><path clip-rule="evenodd" d="m952.63 1600.77c0-33.38-56.292-60.48-125.628-60.48h-399.052c-69.336 0-125.628 27.1-125.628 60.48v144.75c0 33.38 56.292 60.49 125.628 60.49h399.052c69.336 0 125.628-27.11 125.628-60.49z"/></clipPath><clipPath id="f"><path clip-rule="evenodd" d="m952.63 1600.77c0-33.38-56.292-60.48-125.628-60.48h-399.052c-69.336 0-125.628 27.1-125.628 60.48v144.75c0 33.38 56.292 60.49 125.628 60.49h399.052c69.336 0 125.628-27.11 125.628-60.49z"/></clipPath><clipPath id="g"><path clip-rule="evenodd" d="m952.63 1565.34c0-13.83-23.052-25.05-51.446-25.05h-547.415c-28.395 0-51.447 11.22-51.447 25.05v215.61c0 13.83 23.052 25.06 51.447 25.06h547.415c28.394 0 51.446-11.23 51.446-25.06z"/></clipPath><clipPath id="h"><path clip-rule="evenodd" d="m952.63 1565.34c0-13.83-22.188-25.05-49.518-25.05h-551.272c-27.33 0-49.518 11.22-49.518 25.05v215.61c0 13.83 22.188 25.06 49.518 25.06h551.272c27.33 0 49.518-11.23 49.518-25.06z"/></clipPath><g transform="matrix(1.00861 0 0 1.9759 -528.4 1574.14)"><path d="m523.921-796.276h991.461v506.099h-991.461z" fill="none"/><g clip-path="url(#d)"><circle cx="351.976" cy="370.614" fill="#fff" r="786.475" transform="matrix(.560984 0 0 .286359 821.942 -649.657)"/><g fill="#0a2a35"><path d="m3891.17 4836.56 69.24-89.77c3.01-3.9 2.33-9.5-1.52-12.57l-75.95-60.44s66.36-27.28 66.36-27.28c4.57-1.88 6.76-7.11 4.88-11.68s-7.11-6.75-11.68-4.88l-80.53 33.04c-2.94 1.21-5.03 3.89-5.48 7.04s.81 6.3 3.3 8.29l80.91 64.48s-63.88 82.69-63.88 82.69c-3.05 3.96-2.32 9.66 1.64 12.71 3.96 3.06 9.66 2.33 12.71-1.63z" transform="matrix(.99146346293 0 0 .50610086166 -2836.18203292991 -3095.88490986584)"/><path d="m3866.14 4844.41-60.11-56.61s45.28-34.28 45.28-34.28c2.23-1.68 3.54-4.31 3.56-7.1s-1.26-5.43-3.46-7.14l-43.91-34.13c-3.89-3.04-9.52-2.33-12.55 1.56-3.04 3.9-2.33 9.53 1.56 12.56l34.64 26.98s-44.49 33.62-44.49 33.62c-2.12 1.6-3.42 4.05-3.57 6.7-.14 2.65.89 5.22 2.82 7.04l67.79 63.99c3.64 3.43 9.38 3.26 12.81-.38 3.44-3.64 3.27-9.38-.37-12.81z" transform="matrix(.99146346293 0 0 .50610086166 -2836.18203292991 -3095.88490986584)"/><path d="m3948.59 4866.18 24.57-59.75s47.94 7.89 47.94 7.89c2.35.38 4.76-.18 6.7-1.56l49.19-35.28c4.01-2.87 4.94-8.47 2.06-12.48-2.87-4.02-8.47-4.94-12.48-2.07l-46.21 33.05s-51.35-8.51-51.35-8.51c-4.14-.68-8.2 1.58-9.8 5.46l-27.38 66.34c-1.91 4.63.3 9.93 4.93 11.84 4.62 1.9 9.92-.31 11.83-4.93z" transform="matrix(.99146346293 0 0 .50610086166 -2836.18203292991 -3095.88490986584)"/><path d="m681.613 853.424h172.748v182.877h-172.748z" transform="matrix(.86021687955 0 0 .44777384112 355.94662187389 -804.464966272)"/></g><path d="m681.613 853.424h172.748v182.877h-172.748z" fill="url(#a)" transform="matrix(.83191228454 0 0 .44777384112 380.12934433799 -804.464966272)"/><path d="m952.63 1600.77c0-33.38-36.442-60.48-81.329-60.48h-487.65c-44.887 0-81.329 27.1-81.329 60.48v144.75c0 33.38 36.442 60.49 81.329 60.49h487.65c44.887 0 81.329-27.11 81.329-60.49z" fill="#10404c" transform="matrix(.41942941354 0 0 .28790156443 752.88183418918 -817.45582572796)"/><path d="m952.63 1600.77c0-33.38-35.679-60.48-79.626-60.48h-491.056c-43.947 0-79.626 27.1-79.626 60.48v144.75c0 33.38 35.679 60.49 79.626 60.49h491.056c43.947 0 79.626-27.11 79.626-60.49z" fill="#144c59" transform="matrix(.41942941354 0 0 .28187184189 752.88183418918 -806.56620323206)"/><path d="m952.63 1565.34c0-13.83-21.18-25.05-47.268-25.05h-555.771c-26.089 0-47.269 11.22-47.269 25.05v215.61c0 13.83 21.18 25.06 47.269 25.06h555.771c26.088 0 47.268-11.23 47.268-25.06z" fill="#2f7f80" transform="matrix(.7852654488 0 0 .75610643038 523.32818265227 -1527.95107232323)"/><path d="m952.63 1565.34c0-13.83-21.077-25.05-47.037-25.05h-556.234c-25.96 0-47.037 11.22-47.037 25.05v215.61c0 13.83 21.077 25.06 47.037 25.06h556.234c25.96 0 47.037-11.23 47.037-25.06z" fill="#57aca7" transform="matrix(.7852654488 0 0 .75240781845 523.32818265227 -1521.27028661372)"/><path d="m952.63 1565.34c0-13.83-19.997-25.05-44.627-25.05h-561.053c-24.631 0-44.628 11.22-44.628 25.05v215.61c0 13.83 19.997 25.06 44.628 25.06h561.053c24.63 0 44.627-11.23 44.627-25.06z" fill="#1c5f67" transform="matrix(.66033733314 0 0 .60029008914 600.37085692352 -1265.94068693027)"/><path d="m952.63 1565.34c0-13.83-19.905-25.05-44.423-25.05h-561.462c-24.518 0-44.423 11.22-44.423 25.05v215.61c0 13.83 19.905 25.06 44.423 25.06h561.462c24.518 0 44.423-11.23 44.423-25.06z" fill="#2b717b" transform="matrix(.66033733314 0 0 .59754075776 600.37085692352 -1260.97935277066)"/><path d="m952.63 1600.77c0-33.38-16.402-60.48-36.604-60.48h-577.099c-20.203 0-36.605 27.1-36.605 60.48v144.75c0 33.38 16.402 60.49 36.605 60.49h577.099c20.202 0 36.604-27.11 36.604-60.49z" fill="url(#b)" transform="matrix(.98557745454 0 0 .30448397309 397.58614870595 -1024.08236325692)"/><g transform="matrix(.28343367228 0 0 .30052341347 611.31974480541 -1017.55471620107)"><path d="m952.63 1600.77c0-33.38-56.292-60.48-125.628-60.48h-399.052c-69.336 0-125.628 27.1-125.628 60.48v144.75c0 33.38 56.292 60.49 125.628 60.49h399.052c69.336 0 125.628-27.11 125.628-60.49z" fill="#0f313d"/><g clip-path="url(#e)"><path d="m386.766 513.697h288.628v135.256h-288.628z" fill="#1c5f67" transform="matrix(3.0949 0 0 1.48998 -957.294 709.061)"/></g></g><g transform="matrix(.28343367228 0 0 .30052341347 1065.11081563309 -1017.55471620107)"><path d="m952.63 1600.77c0-33.38-56.292-60.48-125.628-60.48h-399.052c-69.336 0-125.628 27.1-125.628 60.48v144.75c0 33.38 56.292 60.49 125.628 60.49h399.052c69.336 0 125.628-27.11 125.628-60.49z" fill="#0f313d"/><g clip-path="url(#f)"><path d="m386.766 513.697h288.628v135.256h-288.628z" fill="#1c5f67" transform="matrix(3.0949 0 0 1.48998 -957.294 709.061)"/></g></g><ellipse cx="788.939" cy="451.706" fill="#57aca7" rx="103.111" ry="96.439" transform="matrix(.87719946112 0 0 .44777384112 322.25287302458 -811.20176848903)"/><path d="m813.078 424.053-140.755 5.168.524 113.23h140.231z" fill="#2f7f80" transform="matrix(1.21757039602 0 0 .16804683593 110.16867507187 -695.52830733512)"/><g transform="matrix(.84327026316 -.00520277381 .02092497911 .88372645283 454.08086420019 -1981.40268574863)"><path d="m952.63 1565.34c0-13.83-23.052-25.05-51.446-25.05h-547.415c-28.395 0-51.447 11.22-51.447 25.05v215.61c0 13.83 23.052 25.06 51.447 25.06h547.415c28.394 0 51.446-11.23 51.446-25.06z" fill="#10404c"/><g clip-path="url(#g)"><path d="m414.891 366.824h366.78v681.035h-366.78z" fill="#144c59" transform="matrix(1.04008 .0061233 -.0125712 .506615 -176.717 1328.32)"/></g></g><g transform="matrix(.7001262235 0 0 .70620651352 576.75131405744 -1686.92869687447)"><path d="m952.63 1565.34c0-13.83-22.188-25.05-49.518-25.05h-551.272c-27.33 0-49.518 11.22-49.518 25.05v215.61c0 13.83 22.188 25.06 49.518 25.06h551.272c27.33 0 49.518-11.23 49.518-25.06z" fill="#fbc46a"/><g clip-path="url(#h)"><path d="m772.578 875.944.649-85.826s117.363-38.273 117.434-64.19c.087-32.248 19.056-40.378 19.056-40.378l42.577-118.581 112.726 50.233v258.742h-291.387" fill="url(#c)" transform="matrix(1.25292 0 0 .634056 -330.856 1249.58)"/></g></g><ellipse cx="529.357" cy="1866.97" fill="#0a2a35" rx="70.147" ry="67.631" transform="matrix(.69695602465 0 0 .36951327249 652.91503446865 -1142.05330721224)"/><ellipse cx="644.59" cy="657.275" fill="#f9b860" rx="80.683" ry="85.77" transform="matrix(.90095068224 0 0 .43885350733 331.30750100391 -810.11896097597)"/><ellipse cx="644.59" cy="657.275" fill="#fdf7da" rx="80.683" ry="85.77" transform="matrix(.89345229502 0 0 .43425479798 335.87681256691 -807.05484855204)"/><ellipse cx="644.59" cy="657.275" fill="#0f313d" rx="80.683" ry="85.77" transform="matrix(.58082007919 0 0 .28230260032 537.39747930006 -707.18005610274)"/><ellipse cx="631.38" cy="617.866" fill="#fdf7da" rx="16.856" ry="16.534" transform="matrix(.81318296007 0 0 .43559008928 378.21511141949 -798.02511757805)"/><ellipse cx="644.59" cy="657.275" fill="#f9b860" rx="80.683" ry="85.77" transform="matrix(.90394771385 0 0 .43680399046 547.94260198893 -808.71309402635)"/><ellipse cx="644.59" cy="657.275" fill="#fdf7da" rx="80.683" ry="85.77" transform="matrix(.89345229502 0 0 .43425479798 554.49947986292 -807.05484855204)"/><ellipse cx="644.59" cy="657.275" fill="#0f313d" rx="80.683" ry="85.77" transform="matrix(.58082007919 0 0 .28230260032 756.02014659608 -707.18005610274)"/><ellipse cx="631.38" cy="617.866" fill="#fdf7da" rx="16.856" ry="16.534" transform="matrix(.81318296007 0 0 .43559008928 596.8377787155 -798.02511757805)"/><ellipse cx="563.088" cy="505.616" fill="#144c59" rx="19.927" ry="20.089" transform="matrix(.90857688584 0 0 .45788457445 688.23585849281 -666.52668969523)"/><ellipse cx="563.088" cy="505.616" fill="#1c5f67" rx="19.927" ry="20.089" transform="matrix(.84735011786 0 0 .42702892683 722.71155171374 -650.92593562892)"/><ellipse cx="563.088" cy="505.616" fill="#144c59" rx="19.927" ry="20.089" transform="matrix(.90857688584 0 0 .45788457445 316.08661871103 -666.52668969523)"/><ellipse cx="563.088" cy="505.616" fill="#1c5f67" rx="19.927" ry="20.089" transform="matrix(.84735011786 0 0 .42702892683 350.56231193197 -650.92593562892)"/><ellipse cx="563.088" cy="505.616" fill="#144c59" rx="19.927" ry="20.089" transform="matrix(.90857688584 0 0 .45788457445 316.08661871103 -810.20607618723)"/><ellipse cx="563.088" cy="505.616" fill="#1c5f67" rx="19.927" ry="20.089" transform="matrix(.84735011786 0 0 .42702892683 350.56231193197 -794.60532212092)"/><ellipse cx="563.088" cy="505.616" fill="#144c59" rx="19.927" ry="20.089" transform="matrix(.90857688584 0 0 .45788457445 688.23585849281 -810.20607618723)"/><ellipse cx="563.088" cy="505.616" fill="#1c5f67" rx="19.927" ry="20.089" transform="matrix(.84735011786 0 0 .42702892683 722.71155171374 -794.60532212092)"/><path d="m761.057 1278.07c15.095 0 52.832 89.05 45.285 106.87-7.548 17.81-83.023 17.81-90.57 0-7.548-17.82 30.19-106.87 45.285-106.87z" fill="#2f7f80" transform="matrix(-.34177712932 -.04432498357 .10236120796 -.20565794334 1289.62906118415 -386.68408434748)"/><path d="m761.057 1278.07c15.095 0 52.832 89.05 45.285 106.87-7.548 17.81-83.023 17.81-90.57 0-7.548-17.82 30.19-106.87 45.285-106.87z" fill="#2f7f80" transform="matrix(.34177712932 -.04432498357 -.10236120796 -.20565794334 739.49381628576 -389.76851862921)"/><path d="m761.057 1278.07c15.095 0 52.832 89.05 45.285 106.87-7.548 17.81-83.023 17.81-90.57 0-7.548-17.82 30.19-106.87 45.285-106.87z" fill="#2f7f80" transform="matrix(.25590129716 -.12384911646 -.28600814283 -.15398375412 931.06059498389 -361.31699545884)"/><path d="m761.057 1278.07c15.095 0 52.832 89.05 45.285 106.87-7.548 17.81-83.023 17.81-90.57 0-7.548-17.82 30.19-106.87 45.285-106.87z" fill="#2f7f80" transform="matrix(-.25590129716 -.12384911646 .28600814283 -.15398375412 1100.95995440252 -366.30510945968)"/></g></g></svg>