<svg clip-rule="evenodd" fill-rule="evenodd" stroke-linejoin="round" stroke-miterlimit="2" viewBox="0 0 1001 1001" xmlns="http://www.w3.org/2000/svg" xmlns:xlink="http://www.w3.org/1999/xlink"><linearGradient id="a" gradientTransform="matrix(-1.05387 -55.7128 58.7457 -.999461 768.283 980.099)" gradientUnits="userSpaceOnUse" x1="0" x2="1" y1="0" y2="0"><stop offset="0" stop-color="#0f313d"/><stop offset="1" stop-color="#0a2a35"/></linearGradient><linearGradient id="b" gradientTransform="matrix(-1.71926 258.542 -156.475 -2.84071 886.977 1549.5)" gradientUnits="userSpaceOnUse" x1="0" x2="1" y1="0" y2="0"><stop offset="0" stop-color="#144c59"/><stop offset="1" stop-color="#457d91"/></linearGradient><linearGradient id="c" gradientTransform="matrix(307.83 -258.484 258.484 307.83 771.423 875.616)" gradientUnits="userSpaceOnUse" x1="0" x2="1" y1="0" y2="0"><stop offset="0" stop-color="#f9b860"/><stop offset=".47" stop-color="#fbc168"/><stop offset="1" stop-color="#fbc46a"/></linearGradient><clipPath id="d"><path clip-rule="evenodd" d="m523.921-796.276h991.461v506.099h-991.461z"/></clipPath><clipPath id="e"><path clip-rule="evenodd" d="m952.63 1600.77c0-33.38-56.292-60.48-125.628-60.48h-399.052c-69.336 0-125.628 27.1-125.628 60.48v144.75c0 33.38 56.292 60.49 125.628 60.49h399.052c69.336 0 125.628-27.11 125.628-60.49z"/></clipPath><clipPath id="f"><path clip-rule="evenodd" d="m952.63 1600.77c0-33.38-56.292-60.48-125.628-60.48h-399.052c-69.336 0-125.628 27.1-125.628 60.48v144.75c0 33.38 56.292 60.49 125.628 60.49h399.052c69.336 0 125.628-27.11 125.628-60.49z"/></clipPath><clipPath id="g"><path clip-rule="evenodd" d="m952.63 1565.34c0-13.83-23.052-25.05-51.446-25.05h-547.415c-28.395 0-51.447 11.22-51.447 25.05v215.61c0 13.83 23.052 25.06 51.447 25.06h547.415c28.394 0 51.446-11.23 51.446-25.06z"/></clipPath><clipPath id="h"><path clip-rule="evenodd" d="m952.63 1565.34c0-13.83-22.188-25.05-49.518-25.05h-551.272c-27.33 0-49.518 11.22-49.518 25.05v215.61c0 13.83 22.188 25.06 49.518 25.06h551.272c27.33 0 49.518-11.23 49.518-25.06z"/></clipPath><g transform="matrix(1.00861 0 0 1.9759 -527.44 1573.83)"><path d="m523.921-796.276h991.461v506.099h-991.461z" fill="none"/><g clip-path="url(#d)"><circle cx="351.976" cy="370.614" fill="#fff" r="786.475" transform="matrix(.560984 0 0 .286359 821.942 -649.657)"/><path d="m681.613 853.424h172.748v182.877h-172.748z" fill="#0a2a35" transform="matrix(.86013436105 0 0 .44773088727 356.03484868671 -804.45122104)"/><path d="m681.613 853.424h172.748v182.877h-172.748z" fill="url(#a)" transform="matrix(.83183248123 0 0 .44773088727 380.21525136136 -804.45122104)"/><path d="m952.63 1600.77c0-33.38-36.442-60.48-81.329-60.48h-487.65c-44.887 0-81.329 27.1-81.329 60.48v144.75c0 33.38 36.442 60.49 81.329 60.49h487.65c44.887 0 81.329-27.11 81.329-60.49z" fill="#10404c" transform="matrix(.4193891787 0 0 .28787394674 752.93198397739 -817.44083431457)"/><path d="m952.63 1600.77c0-33.38-35.679-60.48-79.626-60.48h-491.056c-43.947 0-79.626 27.1-79.626 60.48v144.75c0 33.38 35.679 60.49 79.626 60.49h491.056c43.947 0 79.626-27.11 79.626-60.49z" fill="#144c59" transform="matrix(.4193891787 0 0 .28184480261 752.93198397739 -806.55225643353)"/><path d="m952.63 1565.34c0-13.83-21.18-25.05-47.268-25.05h-555.771c-26.089 0-47.269 11.22-47.269 25.05v215.61c0 13.83 21.18 25.06 47.269 25.06h555.771c26.088 0 47.268-11.23 47.268-25.06z" fill="#2f7f80" transform="matrix(.7851901202 0 0 .75603389894 523.40035296113 -1527.86792483763)"/><path d="m952.63 1565.34c0-13.83-21.077-25.05-47.037-25.05h-556.234c-25.96 0-47.037 11.22-47.037 25.05v215.61c0 13.83 21.077 25.06 47.037 25.06h556.234c25.96 0 47.037-11.23 47.037-25.06z" fill="#57aca7" transform="matrix(.7851901202 0 0 .75233564181 523.40035296113 -1521.18777999956)"/><path d="m952.63 1565.34c0-13.83-19.997-25.05-44.627-25.05h-561.053c-24.631 0-44.628 11.22-44.628 25.05v215.61c0 13.83 19.997 25.06 44.628 25.06h561.053c24.63 0 44.627-11.23 44.627-25.06z" fill="#1c5f67" transform="matrix(.6602739886 0 0 .60023250478 600.43563671697 -1265.88267346046)"/><path d="m952.63 1565.34c0-13.83-19.905-25.05-44.423-25.05h-561.462c-24.518 0-44.423 11.22-44.423 25.05v215.61c0 13.83 19.905 25.06 44.423 25.06h561.462c24.518 0 44.423-11.23 44.423-25.06z" fill="#2b717b" transform="matrix(.6602739886 0 0 .59748343714 600.43563671697 -1260.92181522951)"/><path d="m952.63 1600.77c0-33.38-16.402-60.48-36.604-60.48h-577.099c-20.203 0-36.605 27.1-36.605 60.48v144.75c0 33.38 16.402 60.49 36.605 60.49h577.099c20.202 0 36.604-27.11 36.604-60.49z" fill="url(#b)" transform="matrix(.98548291051 0 0 .30445476469 397.67038114075 -1024.04755066488)"/><g transform="matrix(.28340648318 0 0 .30049458499 611.38347429881 -1017.52052979026)"><path d="m952.63 1600.77c0-33.38-56.292-60.48-125.628-60.48h-399.052c-69.336 0-125.628 27.1-125.628 60.48v144.75c0 33.38 56.292 60.49 125.628 60.49h399.052c69.336 0 125.628-27.11 125.628-60.49z" fill="#0f313d"/><g clip-path="url(#e)"><path d="m386.766 513.697h288.628v135.256h-288.628z" fill="#1c5f67" transform="matrix(3.0949 0 0 1.48998 -957.294 709.061)"/></g></g><g transform="matrix(.28340648318 0 0 .30049458499 1065.13101405835 -1017.52052979026)"><path d="m952.63 1600.77c0-33.38-56.292-60.48-125.628-60.48h-399.052c-69.336 0-125.628 27.1-125.628 60.48v144.75c0 33.38 56.292 60.49 125.628 60.49h399.052c69.336 0 125.628-27.11 125.628-60.49z" fill="#0f313d"/><g clip-path="url(#f)"><path d="m386.766 513.697h288.628v135.256h-288.628z" fill="#1c5f67" transform="matrix(3.0949 0 0 1.48998 -957.294 709.061)"/></g></g><path d="m982.152 410.235 24.278 3.308s32.28-106.726 122.4-115.481c97.5-9.474 103.1 49.938 103.07 69.101-.03 19.49-25.26 50.342-45.42 50.66-20.8.329-34.79-14.862-34.63-30.98.15-15.635 5.9-25.124 17.19-26.169 29.3-2.714 27.98 14.97 36.99 5.959 9.01-9.01-8.97-28.016-36.99-26.896-24.24.969-37.55 27.022-37.72 47.106-.27 31.722 29.41 55.299 55.71 53.249 18.79-1.464 65.04-23.866 68.24-72.929 4.23-64.773-36.4-81.139-62.18-89.62-42.16-13.87-97.16.171-112.85 9.703-85.168 51.74-98.088 122.989-98.088 122.989z" fill="#0f313d" transform="matrix(-.00779146796 -.48612381085 -1.02467242271 .00427937152 1386.64552626693 -153.17739510819)"/><ellipse cx="788.939" cy="451.706" fill="#57aca7" rx="103.111" ry="96.439" transform="matrix(.87711531352 0 0 .44773088727 322.34433199637 -811.18737701207)"/><path d="m813.078 424.053-140.755 5.168.524 113.23h140.231z" fill="#2f7f80" transform="matrix(1.21745359747 0 0 .16803071561 110.28047876233 -695.52501213052)"/><g transform="matrix(.84318937031 -.00520227473 .02092297182 .88364167912 454.15967723504 -1981.27603975821)"><path d="m952.63 1565.34c0-13.83-23.052-25.05-51.446-25.05h-547.415c-28.395 0-51.447 11.22-51.447 25.05v215.61c0 13.83 23.052 25.06 51.447 25.06h547.415c28.394 0 51.446-11.23 51.446-25.06z" fill="#10404c"/><g clip-path="url(#g)"><path d="m414.891 366.824h366.78v681.035h-366.78z" fill="#144c59" transform="matrix(1.04008 .0061233 -.0125712 .506615 -176.717 1328.32)"/></g></g><g transform="matrix(.7000590621 0 0 .70613876886 576.8183596159 -1686.83029905397)"><path d="m952.63 1565.34c0-13.83-22.188-25.05-49.518-25.05h-551.272c-27.33 0-49.518 11.22-49.518 25.05v215.61c0 13.83 22.188 25.06 49.518 25.06h551.272c27.33 0 49.518-11.23 49.518-25.06z" fill="#fbc46a"/><g clip-path="url(#h)"><path d="m772.578 875.944.649-85.826s117.363-38.273 117.434-64.19c.087-32.248 19.056-40.378 19.056-40.378l42.577-118.581 112.726 50.233v258.742h-291.387" fill="url(#c)" transform="matrix(1.25292 0 0 .634056 -330.856 1249.58)"/></g></g><path d="m772.831 774.085c65.319 1.064 60.66-31.61 71.935-15.876 10.609 14.806-28.933 32.701-71.935 32.701-43.003 0-83.879-15.112-74.345-32.701 7.865-14.509 4.549 14.739 74.345 15.876z" fill="#0f313d" transform="matrix(.88236923425 0 0 .41579961585 340.88640061458 -779.3730529015)"/><path d="m772.831 774.085c65.319 1.064 60.66-31.61 71.935-15.876 10.609 14.806-28.933 32.701-71.935 32.701-43.003 0-83.879-15.112-74.345-32.701 7.865-14.509 4.549 14.739 74.345 15.876z" fill="#10404c" transform="matrix(.87711531352 0 0 .39696089104 344.54606514622 -765.17044710714)"/><ellipse cx="644.59" cy="657.275" fill="#f9b860" rx="80.683" ry="85.77" transform="matrix(.90086425624 0 0 .43881140919 331.39809138737 -810.10467337008)"/><ellipse cx="644.59" cy="657.275" fill="#fdf7da" rx="80.683" ry="85.77" transform="matrix(.89336658832 0 0 .43421314097 335.96696462748 -807.04085487897)"/><ellipse cx="644.59" cy="657.275" fill="#0f313d" rx="80.683" ry="85.77" transform="matrix(.58076436254 0 0 .28227551973 537.46829997569 -707.17564317436)"/><ellipse cx="631.38" cy="617.866" fill="#fdf7da" rx="16.856" ry="16.534" transform="matrix(.81310495342 0 0 .43554830418 378.30120207055 -798.01199010499)"/><ellipse cx="644.59" cy="657.275" fill="#f9b860" rx="80.683" ry="85.77" transform="matrix(.90386100035 0 0 .43676208892 548.01241109672 -808.69894128184)"/><ellipse cx="644.59" cy="657.275" fill="#fdf7da" rx="80.683" ry="85.77" transform="matrix(.89336658832 0 0 .43421314097 554.56865998544 -807.04085487897)"/><ellipse cx="644.59" cy="657.275" fill="#0f313d" rx="80.683" ry="85.77" transform="matrix(.58076436254 0 0 .28227551973 756.06999533365 -707.17564317436)"/><ellipse cx="631.38" cy="617.866" fill="#fdf7da" rx="16.856" ry="16.534" transform="matrix(.81310495342 0 0 .43554830418 596.90289742851 -798.01199010499)"/><ellipse cx="563.088" cy="505.616" fill="#144c59" rx="19.927" ry="20.089" transform="matrix(.90848972828 0 0 .4578406507 688.29220961144 -666.52617654492)"/><ellipse cx="563.088" cy="505.616" fill="#1c5f67" rx="19.927" ry="20.089" transform="matrix(.84726883363 0 0 .42698796299 722.76459566341 -650.92691902081)"/><ellipse cx="563.088" cy="505.616" fill="#144c59" rx="19.927" ry="20.089" transform="matrix(.90848972828 0 0 .4578406507 316.17866919652 -666.52617654492)"/><ellipse cx="563.088" cy="505.616" fill="#1c5f67" rx="19.927" ry="20.089" transform="matrix(.84726883363 0 0 .42698796299 350.65105524849 -650.92691902081)"/><ellipse cx="563.088" cy="505.616" fill="#144c59" rx="19.927" ry="20.089" transform="matrix(.90848972828 0 0 .4578406507 316.17866919652 -810.19178022459)"/><ellipse cx="563.088" cy="505.616" fill="#1c5f67" rx="19.927" ry="20.089" transform="matrix(.84726883363 0 0 .42698796299 350.65105524849 -794.59252270048)"/><ellipse cx="563.088" cy="505.616" fill="#144c59" rx="19.927" ry="20.089" transform="matrix(.90848972828 0 0 .4578406507 688.29220961144 -810.19178022459)"/><ellipse cx="563.088" cy="505.616" fill="#1c5f67" rx="19.927" ry="20.089" transform="matrix(.84726883363 0 0 .42698796299 722.76459566341 -794.59252270048)"/><path d="m4206.81 1615.16c-22.81 1.6-64.35 1.57-88.18-38.69-23.82-40.25-17.61-77.19-18.3-83.01-.69-5.81-11.03-5.69-14.36-11.89-3.34-6.2-.29-19.34 6.85-22.53 7.13-3.2 18.72.85 19.38.25.66-.61.97-16.72 80.53-18.24 41.25-.79 91.12 18.86 96.79 20.6 11.34 3.48 40.2 5.03 54.22 2.57 6.06-1.06 19.22-8.9 44.73-16.39 25.51-7.48 68.74-13.93 97.15-4.92s40.06 14.76 44.81 13.58c1.54-.38 6.19-2.52 13.66-.34 7.48 2.17 9.65 19.45 5.85 25.16-3.8 5.7-8.99 2.98-13.27 10.27-4.27 7.29-1.99 49.88-17.94 81.41-10.38 20.51-39.52 43.57-69.88 44.17-30.36.59-51.76 5.49-85.59-24.15-23.24-20.36-29.54-88.09-48.2-83.42-18.67 4.67-19.32 44.21-33.63 69.08-8.64 15.01-33.28 33.6-74.62 36.49zm-86.26-82.95c-2.16-20.78 1.87-40.61 11.99-55.19 10.13-14.57 37.91-15.15 71.5-16.4 34.65-1.29 74.69 9.71 79.73 27.56s-.99 73.87-14.35 87.42c-13.35 13.55-36.01 26.33-61.62 25.69-25.61-.63-54.03-4.31-69.04-21.5-8.25-9.43-16.05-26.8-18.21-47.58zm395.59-.05c2.16-20.78-1.87-40.61-11.99-55.19-10.13-14.57-37.91-15.15-71.5-16.4-34.66-1.29-74.69 9.71-79.73 27.56s.99 73.87 14.35 87.42c13.35 13.55 36.01 26.33 61.62 25.69 25.6-.63 53.3-7.06 69.04-21.5 16.34-14.99 16.05-26.8 18.21-47.58z" fill="#0a2a35" transform="matrix(.99146068224 0 0 .50609944224 -3265.28083704 -1294.93550701)"/></g></g></svg>