<?xml version="1.0" encoding="UTF-8" standalone="no"?>
<!DOCTYPE svg PUBLIC "-//W3C//DTD SVG 1.1//EN" "http://www.w3.org/Graphics/SVG/1.1/DTD/svg11.dtd">
<svg width="100%" height="100%" viewBox="0 0 49 49" version="1.1" xmlns="http://www.w3.org/2000/svg" xmlns:xlink="http://www.w3.org/1999/xlink" xml:space="preserve" xmlns:serif="http://www.serif.com/" style="fill-rule:evenodd;clip-rule:evenodd;stroke-linejoin:round;stroke-miterlimit:2;">
    <g transform="matrix(1,0,0,1,-1312,-1171)">
        <g id="icon" transform="matrix(0.0484134,0,0,0.094843,1286.71,1247.2)">
            <rect x="523.921" y="-796.276" width="991.461" height="506.099" style="fill:none;"/>
            <g id="robot" transform="matrix(1.16504,0,0,0.594706,122.505,-849.112)">
                <g id="head">
                    <g id="bg">
                        <g id="ears">
                            <g transform="matrix(0.323112,0,0,0.67115,309.313,-475.887)">
                                <path d="M952.63,1600.77C952.63,1567.39 896.338,1540.29 827.002,1540.29L427.95,1540.29C358.614,1540.29 302.322,1567.39 302.322,1600.77L302.322,1745.52C302.322,1778.9 358.614,1806.01 427.95,1806.01L827.002,1806.01C896.338,1806.01 952.63,1778.9 952.63,1745.52L952.63,1600.77Z" style="fill:rgb(15,49,61);"/>
                            </g>
                            <g transform="matrix(0.323112,0,0,0.67115,826.631,-475.887)">
                                <path d="M952.63,1600.77C952.63,1567.39 896.338,1540.29 827.002,1540.29L427.95,1540.29C358.614,1540.29 302.322,1567.39 302.322,1600.77L302.322,1745.52C302.322,1778.9 358.614,1806.01 427.95,1806.01L827.002,1806.01C896.338,1806.01 952.63,1778.9 952.63,1745.52L952.63,1600.77Z" style="fill:rgb(15,49,61);"/>
                            </g>
                        </g>
                        <g transform="matrix(-0.00888306,-1.08575,-1.16823,0.00955791,1193.19,1454.61)">
                            <path d="M982.152,410.235L1006.43,413.543C1006.43,413.543 1038.71,306.817 1128.83,298.062C1226.33,288.588 1231.93,348 1231.9,367.163C1231.87,386.653 1206.64,417.505 1186.48,417.823C1165.68,418.152 1151.69,402.961 1151.85,386.843C1152,371.208 1157.75,361.719 1169.04,360.674C1198.34,357.96 1197.02,375.644 1206.03,366.633C1215.04,357.623 1197.06,338.617 1169.04,339.737C1144.8,340.706 1131.49,366.759 1131.32,386.843C1131.05,418.565 1160.73,442.142 1187.03,440.092C1205.82,438.628 1252.07,416.226 1255.27,367.163C1259.5,302.39 1218.87,286.024 1193.09,277.543C1150.93,263.673 1095.93,277.714 1080.24,287.246C995.072,338.986 982.152,410.235 982.152,410.235Z" style="fill:rgb(15,49,61);"/>
                        </g>
                        <g transform="matrix(1,0,0,1,-20.2208,-15.0451)">
                            <g id="antenna">
                                <ellipse cx="788.939" cy="451.706" rx="103.111" ry="96.439" style="fill:rgb(87,172,167);"/>
                            </g>
                        </g>
                        <g transform="matrix(0.961321,-0.0116192,0.0238543,1.9736,130.062,-2628.42)">
                            <path d="M952.63,1565.34C952.63,1551.51 929.578,1540.29 901.184,1540.29L353.769,1540.29C325.374,1540.29 302.322,1551.51 302.322,1565.34L302.322,1780.95C302.322,1794.78 325.374,1806.01 353.769,1806.01L901.184,1806.01C929.578,1806.01 952.63,1794.78 952.63,1780.95L952.63,1565.34Z" style="fill:rgb(16,64,76);"/>
                        </g>
                    </g>
                    <g id="face" transform="matrix(1,0,0,1,5.83628,0)">
                        <g transform="matrix(0.798138,0,0,1.57715,264.069,-1970.78)">
                            <path d="M952.63,1565.34C952.63,1551.51 930.442,1540.29 903.112,1540.29L351.84,1540.29C324.51,1540.29 302.322,1551.51 302.322,1565.34L302.322,1780.95C302.322,1794.78 324.51,1806.01 351.84,1806.01L903.112,1806.01C930.442,1806.01 952.63,1794.78 952.63,1780.95L952.63,1565.34Z" style="fill:rgb(251,196,106);"/>
                        </g>
                        <g id="Layer10">
                            <g transform="matrix(1.00599,0,0,0.928682,-4.91725,56.0117)">
                                <path d="M772.831,774.085C838.15,775.149 833.491,742.475 844.766,758.209C855.375,773.015 815.833,790.91 772.831,790.91C729.828,790.91 688.952,775.798 698.486,758.209C706.351,743.7 703.035,772.948 772.831,774.085Z" style="fill:rgb(15,49,61);"/>
                            </g>
                            <g transform="matrix(1,0,0,0.886606,-0.744863,87.733)">
                                <path d="M772.831,774.085C838.15,775.149 833.491,742.475 844.766,758.209C855.375,773.015 815.833,790.91 772.831,790.91C729.828,790.91 688.952,775.798 698.486,758.209C706.351,743.7 703.035,772.948 772.831,774.085Z" style="fill:rgb(16,64,76);"/>
                            </g>
                        </g>
                        <g id="eyes">
                            <g id="eye" transform="matrix(0.66213,0,0,0.630458,214.301,235.493)">
                                <g transform="matrix(1.55117,0,0,1.55455,-347.418,-393.555)">
                                    <ellipse cx="644.59" cy="657.275" rx="80.683" ry="85.77" style="fill:rgb(249,184,96);"/>
                                </g>
                                <g transform="matrix(1.53826,0,0,1.53826,-339.551,-382.701)">
                                    <ellipse cx="644.59" cy="657.275" rx="80.683" ry="85.77" style="fill:rgb(253,247,218);"/>
                                </g>
                                <g transform="matrix(1,0,0,1,7.40785,-28.9147)">
                                    <ellipse cx="644.59" cy="657.275" rx="80.683" ry="85.77" style="fill:rgb(15,49,61);"/>
                                </g>
                                <g transform="matrix(1.40006,0,0,1.54299,-266.657,-350.715)">
                                    <ellipse cx="631.38" cy="617.866" rx="16.856" ry="16.534" style="fill:rgb(253,247,218);"/>
                                </g>
                            </g>
                            <g id="eye1" serif:id="eye" transform="matrix(0.66213,0,0,0.630458,463.529,235.493)">
                                <g transform="matrix(1.55633,0,0,1.54729,-350.84,-388.575)">
                                    <ellipse cx="644.59" cy="657.275" rx="80.683" ry="85.77" style="fill:rgb(249,184,96);"/>
                                </g>
                                <g transform="matrix(1.53826,0,0,1.53826,-339.551,-382.701)">
                                    <ellipse cx="644.59" cy="657.275" rx="80.683" ry="85.77" style="fill:rgb(253,247,218);"/>
                                </g>
                                <g transform="matrix(1,0,0,1,7.40785,-28.9147)">
                                    <ellipse cx="644.59" cy="657.275" rx="80.683" ry="85.77" style="fill:rgb(15,49,61);"/>
                                </g>
                                <g transform="matrix(1.40006,0,0,1.54299,-266.657,-350.715)">
                                    <ellipse cx="631.38" cy="617.866" rx="16.856" ry="16.534" style="fill:rgb(253,247,218);"/>
                                </g>
                            </g>
                        </g>
                    </g>
                </g>
            </g>
        </g>
    </g>
</svg>
