<svg clip-rule="evenodd" fill-rule="evenodd" stroke-linejoin="round" stroke-miterlimit="2" viewBox="0 0 49 49" xmlns="http://www.w3.org/2000/svg"><g transform="matrix(.0484134 0 0 .094843 -25.29 76.2)"><path d="m523.921-796.276h991.461v506.099h-991.461z" fill="none"/><g fill="#0f313d"><path d="m952.63 1600.77c0-33.38-56.292-60.48-125.628-60.48h-399.052c-69.336 0-125.628 27.1-125.628 60.48v144.75c0 33.38 56.292 60.49 125.628 60.49h399.052c69.336 0 125.628-27.11 125.628-60.49z" transform="matrix(.37643840448 0 0 .3991369319 482.86701752 -1132.124854222)"/><path d="m952.63 1600.77c0-33.38-56.292-60.48-125.628-60.48h-399.052c-69.336 0-125.628 27.1-125.628 60.48v144.75c0 33.38 56.292 60.49 125.628 60.49h399.052c69.336 0 125.628-27.11 125.628-60.49z" transform="matrix(.37643840448 0 0 .3991369319 1085.56318024 -1132.124854222)"/><path d="m982.152 410.235 24.278 3.308s32.28-106.726 122.4-115.481c97.5-9.474 103.1 49.938 103.07 69.101-.03 19.49-25.26 50.342-45.42 50.66-20.8.329-34.79-14.862-34.63-30.98.15-15.635 5.9-25.124 17.19-26.169 29.3-2.714 27.98 14.97 36.99 5.959 9.01-9.01-8.97-28.016-36.99-26.896-24.24.969-37.55 27.022-37.72 47.106-.27 31.722 29.41 55.299 55.71 53.249 18.79-1.464 65.04-23.866 68.24-72.929 4.23-64.773-36.4-81.139-62.18-89.62-42.16-13.87-97.16.171-112.85 9.703-85.168 51.74-98.088 122.989-98.088 122.989z" transform="matrix(-.01034912022 -.6457020395 -1.3610346792 .00568414642 1512.6190776 15.95329466)"/></g><ellipse cx="788.939" cy="451.706" fill="#57aca7" rx="103.111" ry="96.439" transform="matrix(1.16504 0 0 .594706 98.946959168 -858.0594112406)"/><path d="m952.63 1565.34c0-13.83-23.052-25.05-51.446-25.05h-547.415c-28.395 0-51.447 11.22-51.447 25.05v215.61c0 13.83 23.052 25.06 51.447 25.06h547.415c28.394 0 51.446-11.23 51.446-25.06z" fill="#10404c" transform="matrix(1.11997741784 -.00691000796 .02779121367 1.1737117616 274.03243248 -2412.24914452)"/><path d="m952.63 1565.34c0-13.83-22.188-25.05-49.518-25.05h-551.272c-27.33 0-49.518 11.22-49.518 25.05v215.61c0 13.83 22.188 25.06 49.518 25.06h551.272c27.33 0 49.518-11.23 49.518-25.06z" fill="#fbc46a" transform="matrix(.92986269552 0 0 .9379405679 436.9554474112 -2021.14669068)"/><path d="m772.831 774.085c65.319 1.064 60.66-31.61 71.935-15.876 10.609 14.806-28.933 32.701-71.935 32.701-43.003 0-83.879-15.112-74.345-32.701 7.865-14.509 4.549 14.739 74.345 15.876z" fill="#0f313d" transform="matrix(1.1720185896 0 0 .55229275749 123.5757067112 -815.8015059398)"/><path d="m772.831 774.085c65.319 1.064 60.66-31.61 71.935-15.876 10.609 14.806-28.933 32.701-71.935 32.701-43.003 0-83.879-15.112-74.345-32.701 7.865-14.509 4.549 14.739 74.345 15.876z" fill="#10404c" transform="matrix(1.16504 0 0 .52726990784 128.43670446168 -796.936658502)"/><ellipse cx="644.59" cy="657.275" fill="#f9b860" rx="80.683" ry="85.77" transform="matrix(1.19658484684 0 0 .58285855485 110.97273465989 -856.62129211498)"/><ellipse cx="644.59" cy="657.275" fill="#fdf7da" rx="80.683" ry="85.77" transform="matrix(1.1866259704 0 0 .57675082859 117.0414008861 -852.55172423083)"/><ellipse cx="644.59" cy="657.275" fill="#0f313d" rx="80.683" ry="85.77" transform="matrix(.7714079352 0 0 .37493715535 384.68821096397 -719.90409530774)"/><ellipse cx="631.38" cy="617.866" fill="#fdf7da" rx="16.856" ry="16.534" transform="matrix(1.08001739376 0 0 .57852428133 173.27241091457 -840.55898437987)"/><ellipse cx="644.59" cy="657.275" fill="#f9b860" rx="80.683" ry="85.77" transform="matrix(1.20056531179 0 0 .5801365111 398.69356582563 -854.75410508135)"/><ellipse cx="644.59" cy="657.275" fill="#fdf7da" rx="80.683" ry="85.77" transform="matrix(1.1866259704 0 0 .57675082859 407.4019900061 -852.55172423083)"/><ellipse cx="644.59" cy="657.275" fill="#0f313d" rx="80.683" ry="85.77" transform="matrix(.7714079352 0 0 .37493715535 675.04880008397 -719.90409530774)"/><ellipse cx="631.38" cy="617.866" fill="#fdf7da" rx="16.856" ry="16.534" transform="matrix(1.08001739376 0 0 .57852428133 463.63300003457 -840.55898437987)"/></g></svg>