<svg clip-rule="evenodd" fill-rule="evenodd" stroke-linejoin="round" stroke-miterlimit="2" viewBox="0 0 1001 1000" xmlns="http://www.w3.org/2000/svg" xmlns:xlink="http://www.w3.org/1999/xlink"><linearGradient id="a" gradientTransform="matrix(-1.05387 -55.7128 58.7457 -.999461 768.283 980.099)" gradientUnits="userSpaceOnUse" x1="0" x2="1" y1="0" y2="0"><stop offset="0" stop-color="#0f313d"/><stop offset="1" stop-color="#0a2a35"/></linearGradient><linearGradient id="b" gradientTransform="matrix(-1.71926 258.542 -156.475 -2.84071 886.977 1549.5)" gradientUnits="userSpaceOnUse" x1="0" x2="1" y1="0" y2="0"><stop offset="0" stop-color="#144c59"/><stop offset="1" stop-color="#457d91"/></linearGradient><linearGradient id="c" gradientTransform="matrix(307.83 -258.484 258.484 307.83 771.423 875.616)" gradientUnits="userSpaceOnUse" x1="0" x2="1" y1="0" y2="0"><stop offset="0" stop-color="#f9b860"/><stop offset=".47" stop-color="#fbc168"/><stop offset="1" stop-color="#fbc46a"/></linearGradient><clipPath id="d"><path clip-rule="evenodd" d="m523.921-796.276h991.461v506.099h-991.461z"/></clipPath><clipPath id="e"><path clip-rule="evenodd" d="m952.63 1600.77c0-33.38-56.292-60.48-125.628-60.48h-399.052c-69.336 0-125.628 27.1-125.628 60.48v144.75c0 33.38 56.292 60.49 125.628 60.49h399.052c69.336 0 125.628-27.11 125.628-60.49z"/></clipPath><clipPath id="f"><path clip-rule="evenodd" d="m952.63 1600.77c0-33.38-56.292-60.48-125.628-60.48h-399.052c-69.336 0-125.628 27.1-125.628 60.48v144.75c0 33.38 56.292 60.49 125.628 60.49h399.052c69.336 0 125.628-27.11 125.628-60.49z"/></clipPath><clipPath id="g"><path clip-rule="evenodd" d="m952.63 1565.34c0-13.83-23.052-25.05-51.446-25.05h-547.415c-28.395 0-51.447 11.22-51.447 25.05v215.61c0 13.83 23.052 25.06 51.447 25.06h547.415c28.394 0 51.446-11.23 51.446-25.06z"/></clipPath><clipPath id="h"><path clip-rule="evenodd" d="m952.63 1565.34c0-13.83-22.188-25.05-49.518-25.05h-551.272c-27.33 0-49.518 11.22-49.518 25.05v215.61c0 13.83 22.188 25.06 49.518 25.06h551.272c27.33 0 49.518-11.23 49.518-25.06z"/></clipPath><g transform="matrix(1.00861 0 0 1.9759 -528.028 1573.36)"><path d="m523.921-796.276h991.461v506.099h-991.461z" fill="none"/><g clip-path="url(#d)"><path d="m681.613 853.424h172.748v182.877h-172.748z" fill="#0a2a35" transform="matrix(.86013797616 0 0 .447732 356.03461041501 -804.452)"/><path d="m681.613 853.424h172.748v182.877h-172.748z" fill="url(#a)" transform="matrix(.83183597739 0 0 .447732 380.21511471891 -804.452)"/><path d="m952.63 1600.77c0-33.38-36.442-60.48-81.329-60.48h-487.65c-44.887 0-81.329 27.1-81.329 60.48v144.75c0 33.38 36.442 60.49 81.329 60.49h487.65c44.887 0 81.329-27.11 81.329-60.49z" fill="#10404c" transform="matrix(.41939094137 0 0 .28787466218 752.93341384821 -817.4416455572)"/><path d="m952.63 1600.77c0-33.38-35.679-60.48-79.626-60.48h-491.056c-43.947 0-79.626 27.1-79.626 60.48v144.75c0 33.38 35.679 60.49 79.626 60.49h491.056c43.947 0 79.626-27.11 79.626-60.49z" fill="#144c59" transform="matrix(.41939094137 0 0 .28184550307 752.93341384821 -806.55304061516)"/><path d="m952.63 1565.34c0-13.83-21.18-25.05-47.268-25.05h-555.771c-26.089 0-47.269 11.22-47.269 25.05v215.61c0 13.83 21.18 25.06 47.269 25.06h555.771c26.088 0 47.268-11.23 47.268-25.06z" fill="#2f7f80" transform="matrix(.78519342032 0 0 .75603577788 523.40081811984 -1527.87050168)"/><path d="m952.63 1565.34c0-13.83-21.077-25.05-47.037-25.05h-556.234c-25.96 0-47.037 11.22-47.037 25.05v215.61c0 13.83 21.077 25.06 47.037 25.06h556.234c25.96 0 47.037-11.23 47.037-25.06z" fill="#57aca7" transform="matrix(.78519342032 0 0 .75233751156 523.40081811984 -1521.19034024)"/><path d="m952.63 1565.34c0-13.83-19.997-25.05-44.627-25.05h-561.053c-24.631 0-44.628 11.22-44.628 25.05v215.61c0 13.83 19.997 25.06 44.628 25.06h561.053c24.63 0 44.627-11.23 44.627-25.06z" fill="#1c5f67" transform="matrix(.6602767637 0 0 .60023399652 600.43642565184 -1265.8845992)"/><path d="m952.63 1565.34c0-13.83-19.905-25.05-44.423-25.05h-561.462c-24.518 0-44.423 11.22-44.423 25.05v215.61c0 13.83 19.905 25.06 44.423 25.06h561.462c24.518 0 44.423-11.23 44.423-25.06z" fill="#2b717b" transform="matrix(.6602767637 0 0 .59748492204 600.43642565184 -1260.92372864)"/><path d="m952.63 1600.77c0-33.38-16.402-60.48-36.604-60.48h-577.099c-20.203 0-36.605 27.1-36.605 60.48v144.75c0 33.38 16.402 60.49 36.605 60.49h577.099c20.202 0 36.604-27.11 36.604-60.49z" fill="url(#b)" transform="matrix(.98548705245 0 0 .30445552134 397.6703178615 -1024.04887538)"/><g transform="matrix(.28340767433 0 0 .3004953318 611.384309247 -1017.521838284)"><path d="m952.63 1600.77c0-33.38-56.292-60.48-125.628-60.48h-399.052c-69.336 0-125.628 27.1-125.628 60.48v144.75c0 33.38 56.292 60.49 125.628 60.49h399.052c69.336 0 125.628-27.11 125.628-60.49z" fill="#0f313d"/><g clip-path="url(#e)"><path d="m386.766 513.697h288.628v135.256h-288.628z" fill="#1c5f67" transform="matrix(3.0949 0 0 1.48998 -957.294 709.061)"/></g></g><g transform="matrix(.28340767433 0 0 .3004953318 1065.133756089 -1017.521838284)"><path d="m952.63 1600.77c0-33.38-56.292-60.48-125.628-60.48h-399.052c-69.336 0-125.628 27.1-125.628 60.48v144.75c0 33.38 56.292 60.49 125.628 60.49h399.052c69.336 0 125.628-27.11 125.628-60.49z" fill="#0f313d"/><g clip-path="url(#f)"><path d="m386.766 513.697h288.628v135.256h-288.628z" fill="#1c5f67" transform="matrix(3.0949 0 0 1.48998 -957.294 709.061)"/></g></g><path d="m982.152 410.235 24.278 3.308s32.28-106.726 122.4-115.481c97.5-9.474 103.1 49.938 103.07 69.101-.03 19.49-25.26 50.342-45.42 50.66-20.8.329-34.79-14.862-34.63-30.98.15-15.635 5.9-25.124 17.19-26.169 29.3-2.714 27.98 14.97 36.99 5.959 9.01-9.01-8.97-28.016-36.99-26.896-24.24.969-37.55 27.022-37.72 47.106-.27 31.722 29.41 55.299 55.71 53.249 18.79-1.464 65.04-23.866 68.24-72.929 4.23-64.773-36.4-81.139-62.18-89.62-42.16-13.87-97.16.171-112.85 9.703-85.168 51.74-98.088 122.989-98.088 122.989z" fill="#0f313d" transform="matrix(-.0077915007 -.486125019 -1.02467672937 .00427938216 1386.64961961 -153.17655548)"/><ellipse cx="788.939" cy="451.706" fill="#57aca7" rx="103.111" ry="96.439" transform="matrix(.877119 0 0 .447732 322.3439521248 -811.1881727132)"/><path d="m813.078 424.053-140.755 5.168.524 113.23h140.231z" fill="#2f7f80" transform="matrix(1.21745871438 0 0 .16803113321 110.279207595 -695.52552038)"/><g transform="matrix(.8431929142 -.00520228765 .02092305976 .8836438752 454.159851378 -1981.27974344)"><path d="m952.63 1565.34c0-13.83-23.052-25.05-51.446-25.05h-547.415c-28.395 0-51.447 11.22-51.447 25.05v215.61c0 13.83 23.052 25.06 51.447 25.06h547.415c28.394 0 51.446-11.23 51.446-25.06z" fill="#10404c"/><g clip-path="url(#g)"><path d="m414.891 366.824h366.78v681.035h-366.78z" fill="#144c59" transform="matrix(1.04008 .0061233 -.0125712 .506615 -176.717 1328.32)"/></g></g><g transform="matrix(.70006200442 0 0 .7061405238 576.81904928832 -1686.83327096)"><path d="m952.63 1565.34c0-13.83-22.188-25.05-49.518-25.05h-551.272c-27.33 0-49.518 11.22-49.518 25.05v215.61c0 13.83 22.188 25.06 49.518 25.06h551.272c27.33 0 49.518-11.23 49.518-25.06z" fill="#fbc46a"/><g clip-path="url(#h)"><path d="m772.578 875.944.649-85.826s117.363-38.273 117.434-64.19c.087-32.248 19.056-40.378 19.056-40.378l42.577-118.581 112.726 50.233v258.742h-291.387" fill="url(#c)" transform="matrix(1.25292 0 0 .634056 -330.856 1249.58)"/></g></g><path d="m772.831 774.085c65.319 1.064 60.66-31.61 71.935-15.876 10.609 14.806-28.933 32.701-71.935 32.701-43.003 0-83.879-15.112-74.345-32.701 7.865-14.509 4.549 14.739 74.345 15.876z" fill="#0f313d" transform="matrix(.88237294281 0 0 .41580064922 340.88609867457 -779.3737695356)"/><path d="m772.831 774.085c65.319 1.064 60.66-31.61 71.935-15.876 10.609 14.806-28.933 32.701-71.935 32.701-43.003 0-83.879-15.112-74.345-32.701 7.865-14.509 4.549 14.739 74.345 15.876z" fill="#10404c" transform="matrix(.877119 0 0 .39696187759 344.54577858762 -765.171128444)"/><ellipse cx="644.59" cy="657.275" fill="#f9b860" rx="80.683" ry="85.77" transform="matrix(.90086804254 0 0 .43881249975 331.39774956838 -810.10546638041)"/><ellipse cx="644.59" cy="657.275" fill="#fdf7da" rx="80.683" ry="85.77" transform="matrix(.89337034311 0 0 .43421422011 335.96664201128 -807.04164027489)"/><ellipse cx="644.59" cy="657.275" fill="#0f313d" rx="80.683" ry="85.77" transform="matrix(.58076680347 0 0 .28227622126 537.46882426141 -707.17618037875)"/><ellipse cx="631.38" cy="617.866" fill="#fdf7da" rx="16.856" ry="16.534" transform="matrix(.81310837087 0 0 .43554938664 378.30105738342 -798.0127530618)"/><ellipse cx="644.59" cy="657.275" fill="#f9b860" rx="80.683" ry="85.77" transform="matrix(.90386479924 0 0 .43676317439 548.01297969891 -808.69973079855)"/><ellipse cx="644.59" cy="657.275" fill="#fdf7da" rx="80.683" ry="85.77" transform="matrix(.89337034311 0 0 .43421422011 554.56925614328 -807.04164027489)"/><ellipse cx="644.59" cy="657.275" fill="#0f313d" rx="80.683" ry="85.77" transform="matrix(.58076680347 0 0 .28227622126 756.07143839341 -707.17618037875)"/><ellipse cx="631.38" cy="617.866" fill="#fdf7da" rx="16.856" ry="16.534" transform="matrix(.81310837087 0 0 .43554938664 596.90367151542 -798.0127530618)"/><ellipse cx="563.088" cy="505.616" fill="#144c59" rx="19.927" ry="20.089" transform="matrix(.90849354663 0 0 .45784178856 688.29336780392 -666.5266127246)"/><ellipse cx="563.088" cy="505.616" fill="#1c5f67" rx="19.927" ry="20.089" transform="matrix(.84727239467 0 0 .42698902417 722.76589874192 -650.9273164322)"/><ellipse cx="563.088" cy="505.616" fill="#144c59" rx="19.927" ry="20.089" transform="matrix(.90849354663 0 0 .45784178856 316.17826341092 -666.5266127246)"/><ellipse cx="563.088" cy="505.616" fill="#1c5f67" rx="19.927" ry="20.089" transform="matrix(.84727239467 0 0 .42698902417 350.65079434892 -650.9273164322)"/><ellipse cx="563.088" cy="505.616" fill="#144c59" rx="19.927" ry="20.089" transform="matrix(.90849354663 0 0 .45784178856 316.17826341092 -810.1925734514)"/><ellipse cx="563.088" cy="505.616" fill="#1c5f67" rx="19.927" ry="20.089" transform="matrix(.84727239467 0 0 .42698902417 350.65079434892 -794.593277159)"/><ellipse cx="563.088" cy="505.616" fill="#144c59" rx="19.927" ry="20.089" transform="matrix(.90849354663 0 0 .45784178856 688.29336780392 -810.1925734514)"/><ellipse cx="563.088" cy="505.616" fill="#1c5f67" rx="19.927" ry="20.089" transform="matrix(.84727239467 0 0 .42698902417 722.76589874192 -794.593277159)"/></g></g></svg>