<?xml version="1.0" encoding="UTF-8" standalone="no"?>
<!DOCTYPE svg PUBLIC "-//W3C//DTD SVG 1.1//EN" "http://www.w3.org/Graphics/SVG/1.1/DTD/svg11.dtd">
<svg width="100%" height="100%" viewBox="0 0 1001 1001" version="1.1" xmlns="http://www.w3.org/2000/svg" xmlns:xlink="http://www.w3.org/1999/xlink" xml:space="preserve" xmlns:serif="http://www.serif.com/" style="fill-rule:evenodd;clip-rule:evenodd;stroke-linejoin:round;stroke-miterlimit:2;">
    <g transform="matrix(1,0,0,1,-1551,-2700)">
        <g id="ques2" transform="matrix(1.00861,0,0,1.9759,1022.62,4274.01)">
            <rect x="523.921" y="-796.276" width="991.461" height="506.099" style="fill:none;"/>
            <clipPath id="_clip1">
                <rect x="523.921" y="-796.276" width="991.461" height="506.099"/>
            </clipPath>
            <g clip-path="url(#_clip1)">
                <g transform="matrix(0.560984,0,0,0.286359,821.942,-649.657)">
                    <g transform="matrix(1.56368,0,0,1.56368,-859.118,-540.608)">
                        <g id="neck" transform="matrix(1,0,0,1,1.64959,4.54747e-13)">
                            <g transform="matrix(0.98064,0,0,1,16.5402,0)">
                                <rect x="681.613" y="853.424" width="172.748" height="182.877" style="fill:rgb(10,42,53);"/>
                            </g>
                            <g transform="matrix(0.948373,0,0,1,44.1083,0)">
                                <rect x="681.613" y="853.424" width="172.748" height="182.877" style="fill:url(#_Linear2);"/>
                            </g>
                            <g transform="matrix(0.478146,0,0,0.642962,469.043,-29.0121)">
                                <path d="M952.63,1600.77C952.63,1567.39 916.188,1540.29 871.301,1540.29L383.651,1540.29C338.764,1540.29 302.322,1567.39 302.322,1600.77L302.322,1745.52C302.322,1778.9 338.764,1806.01 383.651,1806.01L871.301,1806.01C916.188,1806.01 952.63,1778.9 952.63,1745.52L952.63,1600.77Z" style="fill:rgb(16,64,76);"/>
                            </g>
                            <g transform="matrix(0.478146,0,0,0.629496,469.043,-4.69263)">
                                <path d="M952.63,1600.77C952.63,1567.39 916.951,1540.29 873.004,1540.29L381.948,1540.29C338.001,1540.29 302.322,1567.39 302.322,1600.77L302.322,1745.52C302.322,1778.9 338.001,1806.01 381.948,1806.01L873.004,1806.01C916.951,1806.01 952.63,1778.9 952.63,1745.52L952.63,1600.77Z" style="fill:rgb(20,76,89);"/>
                            </g>
                        </g>
                        <g id="Body" transform="matrix(1,0,0,1,-2.44064,4.54747e-13)">
                            <g transform="matrix(0.895196,0,0,1.68859,211.444,-1615.74)">
                                <path d="M952.63,1565.34C952.63,1551.51 931.45,1540.29 905.362,1540.29L349.591,1540.29C323.502,1540.29 302.322,1551.51 302.322,1565.34L302.322,1780.95C302.322,1794.78 323.502,1806.01 349.591,1806.01L905.362,1806.01C931.45,1806.01 952.63,1794.78 952.63,1780.95L952.63,1565.34Z" style="fill:rgb(47,127,128);"/>
                            </g>
                            <g transform="matrix(0.895196,0,0,1.68033,211.444,-1600.82)">
                                <path d="M952.63,1565.34C952.63,1551.51 931.553,1540.29 905.593,1540.29L349.359,1540.29C323.399,1540.29 302.322,1551.51 302.322,1565.34L302.322,1780.95C302.322,1794.78 323.399,1806.01 349.359,1806.01L905.593,1806.01C931.553,1806.01 952.63,1794.78 952.63,1780.95L952.63,1565.34Z" style="fill:rgb(87,172,167);"/>
                            </g>
                            <g transform="matrix(0.752779,0,0,1.34061,299.272,-1030.6)">
                                <path d="M952.63,1565.34C952.63,1551.51 932.633,1540.29 908.003,1540.29L346.95,1540.29C322.319,1540.29 302.322,1551.51 302.322,1565.34L302.322,1780.95C302.322,1794.78 322.319,1806.01 346.95,1806.01L908.003,1806.01C932.633,1806.01 952.63,1794.78 952.63,1780.95L952.63,1565.34Z" style="fill:rgb(28,95,103);"/>
                            </g>
                            <g transform="matrix(0.752779,0,0,1.33447,299.272,-1019.52)">
                                <path d="M952.63,1565.34C952.63,1551.51 932.725,1540.29 908.207,1540.29L346.745,1540.29C322.227,1540.29 302.322,1551.51 302.322,1565.34L302.322,1780.95C302.322,1794.78 322.227,1806.01 346.745,1806.01L908.207,1806.01C932.725,1806.01 952.63,1794.78 952.63,1780.95L952.63,1565.34Z" style="fill:rgb(43,113,123);"/>
                            </g>
                        </g>
                        <g id="head">
                            <g id="bg">
                                <g id="ears">
                                    <g transform="matrix(1.12355,0,0,0.679995,65.6585,-490.465)">
                                        <path d="M952.63,1600.77C952.63,1567.39 936.228,1540.29 916.026,1540.29L338.927,1540.29C318.724,1540.29 302.322,1567.39 302.322,1600.77L302.322,1745.52C302.322,1778.9 318.724,1806.01 338.927,1806.01L916.026,1806.01C936.228,1806.01 952.63,1778.9 952.63,1745.52L952.63,1600.77Z" style="fill:url(#_Linear3);"/>
                                    </g>
                                    <g transform="matrix(0.323112,0,0,0.67115,309.313,-475.887)">
                                        <path d="M952.63,1600.77C952.63,1567.39 896.338,1540.29 827.002,1540.29L427.95,1540.29C358.614,1540.29 302.322,1567.39 302.322,1600.77L302.322,1745.52C302.322,1778.9 358.614,1806.01 427.95,1806.01L827.002,1806.01C896.338,1806.01 952.63,1778.9 952.63,1745.52L952.63,1600.77Z" style="fill:rgb(15,49,61);"/>
                                        <clipPath id="_clip4">
                                            <path d="M952.63,1600.77C952.63,1567.39 896.338,1540.29 827.002,1540.29L427.95,1540.29C358.614,1540.29 302.322,1567.39 302.322,1600.77L302.322,1745.52C302.322,1778.9 358.614,1806.01 427.95,1806.01L827.002,1806.01C896.338,1806.01 952.63,1778.9 952.63,1745.52L952.63,1600.77Z"/>
                                        </clipPath>
                                        <g clip-path="url(#_clip4)">
                                            <g transform="matrix(3.0949,0,0,1.48998,-957.294,709.061)">
                                                <rect x="386.766" y="513.697" width="288.628" height="135.256" style="fill:rgb(28,95,103);"/>
                                            </g>
                                        </g>
                                    </g>
                                    <g transform="matrix(0.323112,0,0,0.67115,826.631,-475.887)">
                                        <path d="M952.63,1600.77C952.63,1567.39 896.338,1540.29 827.002,1540.29L427.95,1540.29C358.614,1540.29 302.322,1567.39 302.322,1600.77L302.322,1745.52C302.322,1778.9 358.614,1806.01 427.95,1806.01L827.002,1806.01C896.338,1806.01 952.63,1778.9 952.63,1745.52L952.63,1600.77Z" style="fill:rgb(15,49,61);"/>
                                        <clipPath id="_clip5">
                                            <path d="M952.63,1600.77C952.63,1567.39 896.338,1540.29 827.002,1540.29L427.95,1540.29C358.614,1540.29 302.322,1567.39 302.322,1600.77L302.322,1745.52C302.322,1778.9 358.614,1806.01 427.95,1806.01L827.002,1806.01C896.338,1806.01 952.63,1778.9 952.63,1745.52L952.63,1600.77Z"/>
                                        </clipPath>
                                        <g clip-path="url(#_clip5)">
                                            <g transform="matrix(3.0949,0,0,1.48998,-957.294,709.061)">
                                                <rect x="386.766" y="513.697" width="288.628" height="135.256" style="fill:rgb(28,95,103);"/>
                                            </g>
                                        </g>
                                    </g>
                                </g>
                                <g transform="matrix(1,0,0,1,-20.2208,-15.0451)">
                                    <g id="antenna">
                                        <ellipse cx="788.939" cy="451.706" rx="103.111" ry="96.439" style="fill:rgb(87,172,167);"/>
                                    </g>
                                </g>
                                <g transform="matrix(1.38802,0,0,0.375294,-261.995,243.285)">
                                    <path d="M813.078,424.053L672.323,429.221L672.847,542.451L813.078,542.451L813.078,424.053Z" style="fill:rgb(47,127,128);"/>
                                </g>
                                <g transform="matrix(0.961321,-0.0116192,0.0238543,1.9736,130.062,-2628.42)">
                                    <path d="M952.63,1565.34C952.63,1551.51 929.578,1540.29 901.184,1540.29L353.769,1540.29C325.374,1540.29 302.322,1551.51 302.322,1565.34L302.322,1780.95C302.322,1794.78 325.374,1806.01 353.769,1806.01L901.184,1806.01C929.578,1806.01 952.63,1794.78 952.63,1780.95L952.63,1565.34Z" style="fill:rgb(16,64,76);"/>
                                    <clipPath id="_clip6">
                                        <path d="M952.63,1565.34C952.63,1551.51 929.578,1540.29 901.184,1540.29L353.769,1540.29C325.374,1540.29 302.322,1551.51 302.322,1565.34L302.322,1780.95C302.322,1794.78 325.374,1806.01 353.769,1806.01L901.184,1806.01C929.578,1806.01 952.63,1794.78 952.63,1780.95L952.63,1565.34Z"/>
                                    </clipPath>
                                    <g clip-path="url(#_clip6)">
                                        <g transform="matrix(1.04008,0.0061233,-0.0125712,0.506615,-176.717,1328.32)">
                                            <rect x="414.891" y="366.824" width="366.78" height="681.035" style="fill:rgb(20,76,89);"/>
                                        </g>
                                    </g>
                                </g>
                            </g>
                            <g id="face" transform="matrix(1,0,0,1,5.83628,0)">
                                <g transform="matrix(0.798138,0,0,1.57715,264.069,-1970.78)">
                                    <path d="M952.63,1565.34C952.63,1551.51 930.442,1540.29 903.112,1540.29L351.84,1540.29C324.51,1540.29 302.322,1551.51 302.322,1565.34L302.322,1780.95C302.322,1794.78 324.51,1806.01 351.84,1806.01L903.112,1806.01C930.442,1806.01 952.63,1794.78 952.63,1780.95L952.63,1565.34Z" style="fill:rgb(251,196,106);"/>
                                    <clipPath id="_clip7">
                                        <path d="M952.63,1565.34C952.63,1551.51 930.442,1540.29 903.112,1540.29L351.84,1540.29C324.51,1540.29 302.322,1551.51 302.322,1565.34L302.322,1780.95C302.322,1794.78 324.51,1806.01 351.84,1806.01L903.112,1806.01C930.442,1806.01 952.63,1794.78 952.63,1780.95L952.63,1565.34Z"/>
                                    </clipPath>
                                    <g clip-path="url(#_clip7)">
                                        <g transform="matrix(1.25292,0,0,0.634056,-330.856,1249.58)">
                                            <path d="M772.578,875.944L773.227,790.118C773.227,790.118 890.59,751.845 890.661,725.928C890.748,693.68 909.717,685.55 909.717,685.55L952.294,566.969L1065.02,617.202L1065.02,875.944L773.633,875.944" style="fill:url(#_Linear8);"/>
                                        </g>
                                    </g>
                                </g>
                                <g transform="matrix(0.794524,0,0,0.825223,350.895,-753.926)">
                                    <g id="Layer10">
                                        <ellipse cx="529.357" cy="1866.97" rx="70.147" ry="67.631" style="fill:rgb(10,42,53);"/>
                                    </g>
                                </g>
                                <g id="eyes">
                                    <g id="eye" transform="matrix(0.66213,0,0,0.630458,214.301,235.493)">
                                        <g transform="matrix(1.55117,0,0,1.55455,-347.418,-393.555)">
                                            <ellipse cx="644.59" cy="657.275" rx="80.683" ry="85.77" style="fill:rgb(249,184,96);"/>
                                        </g>
                                        <g transform="matrix(1.53826,0,0,1.53826,-339.551,-382.701)">
                                            <ellipse cx="644.59" cy="657.275" rx="80.683" ry="85.77" style="fill:rgb(253,247,218);"/>
                                        </g>
                                        <g transform="matrix(1,0,0,1,7.40785,-28.9147)">
                                            <ellipse cx="644.59" cy="657.275" rx="80.683" ry="85.77" style="fill:rgb(15,49,61);"/>
                                        </g>
                                        <g transform="matrix(1.40006,0,0,1.54299,-266.657,-350.715)">
                                            <ellipse cx="631.38" cy="617.866" rx="16.856" ry="16.534" style="fill:rgb(253,247,218);"/>
                                        </g>
                                    </g>
                                    <g id="eye1" serif:id="eye" transform="matrix(0.66213,0,0,0.630458,463.529,235.493)">
                                        <g transform="matrix(1.55633,0,0,1.54729,-350.84,-388.575)">
                                            <ellipse cx="644.59" cy="657.275" rx="80.683" ry="85.77" style="fill:rgb(249,184,96);"/>
                                        </g>
                                        <g transform="matrix(1.53826,0,0,1.53826,-339.551,-382.701)">
                                            <ellipse cx="644.59" cy="657.275" rx="80.683" ry="85.77" style="fill:rgb(253,247,218);"/>
                                        </g>
                                        <g transform="matrix(1,0,0,1,7.40785,-28.9147)">
                                            <ellipse cx="644.59" cy="657.275" rx="80.683" ry="85.77" style="fill:rgb(15,49,61);"/>
                                        </g>
                                        <g transform="matrix(1.40006,0,0,1.54299,-266.657,-350.715)">
                                            <ellipse cx="631.38" cy="617.866" rx="16.856" ry="16.534" style="fill:rgb(253,247,218);"/>
                                        </g>
                                    </g>
                                </g>
                                <g id="rivets" transform="matrix(1,0,0,1,-0.444558,-9.36285)">
                                    <g id="rivet" transform="matrix(1,0,0,1,-14.555,332.036)">
                                        <g transform="matrix(1.03577,0,0,1.02258,406.16,-14.6197)">
                                            <ellipse cx="563.088" cy="505.616" rx="19.927" ry="20.089" style="fill:rgb(20,76,89);"/>
                                        </g>
                                        <g transform="matrix(0.965972,0,0,0.953671,445.462,20.221)">
                                            <ellipse cx="563.088" cy="505.616" rx="19.927" ry="20.089" style="fill:rgb(28,95,103);"/>
                                        </g>
                                    </g>
                                    <g id="rivet1" serif:id="rivet" transform="matrix(1,0,0,1,-438.802,332.036)">
                                        <g transform="matrix(1.03577,0,0,1.02258,406.16,-14.6197)">
                                            <ellipse cx="563.088" cy="505.616" rx="19.927" ry="20.089" style="fill:rgb(20,76,89);"/>
                                        </g>
                                        <g transform="matrix(0.965972,0,0,0.953671,445.462,20.221)">
                                            <ellipse cx="563.088" cy="505.616" rx="19.927" ry="20.089" style="fill:rgb(28,95,103);"/>
                                        </g>
                                    </g>
                                    <g id="rivet2" serif:id="rivet" transform="matrix(1,0,0,1,-438.802,11.1611)">
                                        <g transform="matrix(1.03577,0,0,1.02258,406.16,-14.6197)">
                                            <ellipse cx="563.088" cy="505.616" rx="19.927" ry="20.089" style="fill:rgb(20,76,89);"/>
                                        </g>
                                        <g transform="matrix(0.965972,0,0,0.953671,445.462,20.221)">
                                            <ellipse cx="563.088" cy="505.616" rx="19.927" ry="20.089" style="fill:rgb(28,95,103);"/>
                                        </g>
                                    </g>
                                    <g id="rivet3" serif:id="rivet" transform="matrix(1,0,0,1,-14.555,11.1611)">
                                        <g transform="matrix(1.03577,0,0,1.02258,406.16,-14.6197)">
                                            <ellipse cx="563.088" cy="505.616" rx="19.927" ry="20.089" style="fill:rgb(20,76,89);"/>
                                        </g>
                                        <g transform="matrix(0.965972,0,0,0.953671,445.462,20.221)">
                                            <ellipse cx="563.088" cy="505.616" rx="19.927" ry="20.089" style="fill:rgb(28,95,103);"/>
                                        </g>
                                    </g>
                                </g>
                            </g>
                        </g>
                    </g>
                    <g transform="matrix(44.3414,0,0,5.3096,-14955.2,-8975.5)">
                        <path d="M345.091,1663.03L344.504,1663.03C344.404,1660.68 344.353,1658.99 344.353,1657.95C344.353,1656.17 344.393,1654.35 344.471,1652.49C344.55,1650.64 344.727,1648.42 345.004,1645.83C345.281,1643.25 345.467,1641.26 345.562,1639.88C345.657,1638.49 345.704,1637.14 345.704,1635.83C345.704,1631.48 345.211,1630.75 344.735,1630.41C344.434,1630.2 344.184,1630.27 343.855,1631.68L343.62,1626.29C343.991,1624.52 344.387,1623.62 344.98,1623.62C345.424,1623.62 345.794,1624.67 346.089,1626.78C346.383,1628.88 346.531,1631.69 346.531,1635.2C346.531,1636.98 346.493,1638.69 346.417,1640.34C346.342,1641.98 346.226,1643.5 346.069,1644.88L345.42,1650.67C345.159,1653.35 345.029,1656.34 345.029,1659.65C345.029,1660.17 345.049,1661.3 345.091,1663.03ZM344.904,1668.52C345.088,1668.52 345.245,1669.07 345.375,1670.16C345.506,1671.25 345.571,1672.56 345.571,1674.09C345.571,1675.62 345.506,1676.94 345.375,1678.04C345.245,1679.14 345.088,1679.69 344.904,1679.69C344.721,1679.69 344.564,1679.14 344.433,1678.04C344.303,1676.94 344.238,1675.62 344.238,1674.09C344.238,1672.56 344.303,1671.25 344.433,1670.16C344.564,1669.07 344.721,1668.52 344.904,1668.52Z" style="fill:rgb(15,49,61);fill-rule:nonzero;"/>
                    </g>
                    <g transform="matrix(1.22838,0,0,2.42978,-885.243,1521.21)">
                        <g id="robot">
                            <g>
                                <g transform="matrix(-0.495975,-0.0637046,0.148543,-0.295575,1399.35,-248.12)">
                                    <path d="M761.057,1278.07C776.152,1278.07 813.889,1367.12 806.342,1384.94C798.794,1402.75 723.319,1402.75 715.772,1384.94C708.224,1367.12 745.962,1278.07 761.057,1278.07Z" style="fill:rgb(47,127,128);"/>
                                </g>
                                <g transform="matrix(0.495975,-0.0637046,-0.148543,-0.295575,601.013,-252.553)">
                                    <path d="M761.057,1278.07C776.152,1278.07 813.889,1367.12 806.342,1384.94C798.794,1402.75 723.319,1402.75 715.772,1384.94C708.224,1367.12 745.962,1278.07 761.057,1278.07Z" style="fill:rgb(47,127,128);"/>
                                </g>
                                <g transform="matrix(0.371355,-0.177998,-0.415045,-0.221308,879.008,-211.662)">
                                    <path d="M761.057,1278.07C776.152,1278.07 813.889,1367.12 806.342,1384.94C798.794,1402.75 723.319,1402.75 715.772,1384.94C708.224,1367.12 745.962,1278.07 761.057,1278.07Z" style="fill:rgb(47,127,128);"/>
                                </g>
                                <g transform="matrix(-0.371355,-0.177998,0.415045,-0.221308,1125.56,-218.831)">
                                    <path d="M761.057,1278.07C776.152,1278.07 813.889,1367.12 806.342,1384.94C798.794,1402.75 723.319,1402.75 715.772,1384.94C708.224,1367.12 745.962,1278.07 761.057,1278.07Z" style="fill:rgb(47,127,128);"/>
                                </g>
                            </g>
                        </g>
                    </g>
                </g>
            </g>
        </g>
    </g>
    <defs>
        <linearGradient id="_Linear2" x1="0" y1="0" x2="1" y2="0" gradientUnits="userSpaceOnUse" gradientTransform="matrix(-1.05387,-55.7128,58.7457,-0.999461,768.283,980.099)"><stop offset="0" style="stop-color:rgb(15,49,61);stop-opacity:1"/><stop offset="1" style="stop-color:rgb(10,42,53);stop-opacity:1"/></linearGradient>
        <linearGradient id="_Linear3" x1="0" y1="0" x2="1" y2="0" gradientUnits="userSpaceOnUse" gradientTransform="matrix(-1.71926,258.542,-156.475,-2.84071,886.977,1549.5)"><stop offset="0" style="stop-color:rgb(20,76,89);stop-opacity:1"/><stop offset="1" style="stop-color:rgb(69,125,145);stop-opacity:1"/></linearGradient>
        <linearGradient id="_Linear8" x1="0" y1="0" x2="1" y2="0" gradientUnits="userSpaceOnUse" gradientTransform="matrix(307.83,-258.484,258.484,307.83,771.423,875.616)"><stop offset="0" style="stop-color:rgb(249,184,96);stop-opacity:1"/><stop offset="0.47" style="stop-color:rgb(251,193,104);stop-opacity:1"/><stop offset="1" style="stop-color:rgb(251,196,106);stop-opacity:1"/></linearGradient>
    </defs>
</svg>
